<svg width="127" height="39" viewBox="0 0 127 39" fill="none" xmlns="http://www.w3.org/2000/svg">
<path fill-rule="evenodd" clip-rule="evenodd" d="M28.3452 0C28.5468 0 28.6376 0.0201661 28.7535 0.0957892C28.8392 0.151246 28.9451 0.282326 29.1165 0.620109L29.1619 24.2347L29.2577 24.6027C29.3131 24.7993 29.3988 25.0615 29.4493 25.1774C29.4997 25.2984 29.6106 25.5102 29.6963 25.6513C29.787 25.7925 29.9282 25.974 30.019 26.0597C30.1097 26.1454 30.271 26.2614 30.3769 26.3219C30.4828 26.3874 30.6895 26.4731 30.8306 26.5235C30.9718 26.5689 31.2693 26.6294 31.4911 26.6546C31.7885 26.6899 32.0255 26.6899 32.3683 26.6596C32.6305 26.6344 33.064 26.5639 33.3312 26.5034C33.6035 26.4429 34.0068 26.3319 34.2337 26.2664C34.5412 26.1656 34.6824 26.1454 34.8336 26.1656C34.9395 26.1807 35.0907 26.2311 35.1714 26.2866C35.2521 26.337 35.363 26.4479 35.4184 26.5286C35.4739 26.6143 35.5898 26.9672 35.6856 27.3453C35.7764 27.7083 35.8671 28.1318 35.8823 28.2881C35.9075 28.5301 35.8974 28.5905 35.8066 28.7519C35.7512 28.8577 35.6251 28.9989 35.5142 29.0745C35.4084 29.1552 35.0655 29.2964 34.7227 29.4123C34.395 29.5232 33.9614 29.6493 33.7598 29.6997C33.5632 29.7501 33.1649 29.8308 32.8825 29.8761C32.5347 29.9366 32.0961 29.9719 31.5112 29.9921C30.9819 30.0022 30.4929 29.9921 30.2307 29.9618C29.9937 29.9366 29.6156 29.8761 29.3938 29.8257C29.172 29.7803 28.7838 29.6745 28.5367 29.5888C28.2897 29.5081 27.9318 29.3619 27.7452 29.2661C27.5587 29.1703 27.2864 29.014 27.1453 28.9082C27.0041 28.8073 26.7621 28.5956 26.6109 28.4292C26.4596 28.2679 26.258 28.0209 26.1622 27.8797C26.0714 27.7385 25.9252 27.4663 25.8345 27.2797C25.7488 27.0932 25.6278 26.7706 25.5723 26.5739C25.5118 26.3723 25.4362 26.0244 25.3959 25.8026C25.3606 25.5757 25.3102 25.122 25.2849 24.7943C25.2597 24.4061 25.2396 20.267 25.2396 13.103C25.2396 3.67528 25.2497 1.99645 25.3001 1.89562C25.3354 1.83008 25.4917 1.65362 25.653 1.49734C25.8143 1.34105 26.0916 1.10914 26.268 0.978058C26.4445 0.846978 26.742 0.650358 26.9335 0.539444C27.1201 0.433572 27.4579 0.267201 27.6797 0.176454C27.9923 0.0453738 28.1485 0.00504154 28.3452 0ZM43.9285 1.35617C44.0243 1.3713 44.1403 1.40155 44.1857 1.42675C44.231 1.44692 44.3268 1.5175 44.3924 1.578C44.4579 1.64354 44.5386 1.78975 44.5739 1.9057C44.6243 2.0872 44.6344 2.67706 44.6344 9.17055L47.0644 9.18064C49.1617 9.19072 49.5146 9.2008 49.6456 9.2613C49.7263 9.29659 49.8423 9.39238 50.0086 9.62429V10.7032C50.0086 11.7317 50.0036 11.7871 49.9179 11.9031C49.8675 11.9686 49.7767 12.0594 49.7112 12.1098C49.6003 12.1904 49.5196 12.1955 47.1148 12.2056C44.7856 12.2156 44.6344 12.2207 44.6344 12.2913C44.6344 12.3316 44.6041 14.8826 44.5739 17.9579C44.5285 21.85 44.5234 23.6801 44.5537 23.9775C44.5789 24.2145 44.6243 24.5321 44.6596 24.6884C44.6949 24.8396 44.7654 25.0716 44.8159 25.2026C44.8663 25.3287 44.9671 25.5354 45.0427 25.6513C45.1183 25.7673 45.2797 25.9589 45.4007 26.0698C45.5217 26.1807 45.7385 26.3319 45.8897 26.4025C46.0359 26.4731 46.2981 26.5588 46.4745 26.5991C46.651 26.6344 46.9988 26.6647 47.2459 26.6647C47.5131 26.6647 47.9214 26.6294 48.2542 26.5689C48.5567 26.5185 49.0659 26.4025 49.3784 26.3118C49.691 26.221 50.0137 26.1454 50.1044 26.1454C50.1952 26.1454 50.3414 26.1807 50.4372 26.221C50.5279 26.2664 50.659 26.3672 50.7195 26.4479C50.785 26.5286 50.8657 26.6798 50.901 26.7857C50.9363 26.8916 51.0119 27.1739 51.0724 27.4058C51.1329 27.6427 51.2035 27.9654 51.2236 28.1267C51.2589 28.3233 51.2589 28.4696 51.2287 28.5855C51.2035 28.6813 51.1279 28.8225 51.0623 28.8981C50.9968 28.9737 50.8254 29.0997 50.6892 29.1703C50.5481 29.2459 50.2053 29.3871 49.9229 29.4779C49.6406 29.5736 49.1869 29.6997 48.9146 29.7602C48.6474 29.8207 48.1634 29.9013 47.8458 29.9417C47.4072 29.9921 47.0493 30.0072 46.3485 29.9871C45.7687 29.977 45.2847 29.9417 45.0427 29.8963C44.831 29.856 44.473 29.7753 44.2512 29.7148C44.0243 29.6543 43.6815 29.5384 43.4799 29.4577C43.2782 29.377 42.9656 29.2157 42.7791 29.1098C42.5925 28.9989 42.3052 28.7821 42.1388 28.6309C41.9724 28.4746 41.7506 28.2376 41.6447 28.0914C41.5389 27.9503 41.3674 27.6831 41.2666 27.4915C41.1658 27.305 41.0347 27.0075 40.9742 26.8311C40.9137 26.6546 40.828 26.337 40.7826 26.1202C40.7373 25.9085 40.6818 25.5808 40.6516 25.3942C40.6263 25.2077 40.5961 24.4514 40.581 23.7204C40.5658 22.939 40.5961 20.4938 40.6465 17.7865C40.6969 15.2506 40.7423 12.982 40.7625 12.3013H39.4769C38.2266 12.3013 38.1862 12.2963 37.9997 12.2056C37.8837 12.1451 37.7728 12.0493 37.7224 11.9585C37.6418 11.8224 37.6317 11.7165 37.6216 10.8645C37.6115 10.2494 37.6266 9.8562 37.6569 9.73016C37.6871 9.62429 37.7476 9.47809 37.798 9.41255C37.8485 9.34197 37.9694 9.25122 38.0652 9.20584C38.2165 9.1403 38.3778 9.13022 40.8028 9.13022L40.833 8.23787C40.8532 7.74884 40.8784 6.59937 40.8885 5.67677C40.9036 4.75921 40.9238 3.80636 40.9591 3.10559L41.312 2.75772C41.5036 2.57118 41.8414 2.2939 42.0682 2.14769C42.29 1.99645 42.6379 1.79983 42.8396 1.70404C43.0362 1.60825 43.3286 1.48725 43.4799 1.4318C43.6815 1.35617 43.8075 1.33601 43.9285 1.35617ZM8.67309 7.99083C9.42428 8.00092 10.115 8.03621 10.4729 8.07654C10.7905 8.11183 11.2796 8.18241 11.5619 8.23283C11.8442 8.28324 12.2022 8.34878 12.3534 8.38407C12.5097 8.41936 12.9433 8.53532 13.3163 8.63615C13.6945 8.73698 14.2037 8.88823 14.4507 8.97393C14.6977 9.0546 15.0758 9.19576 15.2876 9.28651C15.4993 9.37221 15.7867 9.52346 15.9279 9.61925C16.069 9.71504 16.2455 9.88141 16.3161 9.98728C16.3917 10.0932 16.4723 10.2797 16.4976 10.4057C16.5379 10.5721 16.548 12.4778 16.548 17.9479C16.548 23.0146 16.5631 25.3438 16.5984 25.5203C16.6236 25.6614 16.6891 25.858 16.7395 25.9488C16.8 26.0547 16.9059 26.1555 17.0067 26.2059C17.1429 26.2815 17.2487 26.2916 17.642 26.2866C17.9798 26.2815 18.3075 26.2412 18.7965 26.1454C19.2654 26.0496 19.5426 26.0143 19.6636 26.0294C19.7645 26.0446 19.9208 26.095 20.0065 26.1404C20.0972 26.1807 20.2232 26.2815 20.2888 26.3622C20.3594 26.4429 20.44 26.5739 20.4753 26.6596C20.5056 26.7403 20.6014 27.0781 20.6871 27.4058C20.7677 27.7385 20.8484 28.1318 20.8635 28.2881C20.8837 28.4897 20.8686 28.6158 20.8232 28.7569C20.7778 28.883 20.677 29.0191 20.5459 29.135C20.4299 29.2409 20.193 29.3922 20.0165 29.4728C19.8401 29.5585 19.5326 29.6795 19.3309 29.7451C19.1343 29.8106 18.7662 29.9013 18.5192 29.9518C18.2722 29.9971 17.8689 30.0576 17.6218 30.0828C17.3092 30.1181 16.9967 30.1181 16.6135 30.0879C16.311 30.0627 15.9027 30.0072 15.7161 29.9618C15.5296 29.9165 15.2372 29.8308 15.0758 29.7652C14.9095 29.7047 14.7078 29.614 14.6221 29.5636C14.5414 29.5131 14.3599 29.3821 14.2238 29.2762C14.0827 29.1653 13.8659 28.9435 13.7348 28.7821C13.6088 28.6158 13.4424 28.3486 13.3668 28.1923C13.2911 28.036 13.2155 27.9099 13.1903 27.92C13.1651 27.9251 12.9836 28.0561 12.7819 28.2074C12.5853 28.3586 12.2475 28.5905 12.0358 28.7216C11.824 28.8527 11.456 29.0594 11.2191 29.1754C10.9872 29.2913 10.599 29.4627 10.362 29.5484C10.1301 29.6392 9.72173 29.7652 9.46461 29.8308C9.20749 29.8963 8.76384 29.982 8.48151 30.0223C8.14373 30.0728 7.69503 30.098 7.17575 30.098C6.73714 30.098 6.20778 30.0728 5.99603 30.0476C5.78429 30.0173 5.43138 29.9568 5.20451 29.9114C4.98269 29.8661 4.62474 29.7703 4.41299 29.6946C4.20125 29.6241 3.83322 29.4678 3.6013 29.3468C3.36435 29.2258 3.02657 29.014 2.85012 28.883C2.67366 28.7519 2.39638 28.4948 2.23001 28.3183C2.06364 28.1368 1.82668 27.8242 1.6956 27.6125C1.56452 27.4058 1.38807 27.063 1.30236 26.8512C1.21666 26.6395 1.10574 26.3118 1.05533 26.1202C1.00491 25.9337 0.934332 25.5656 0.899042 25.3085C0.843585 24.9354 0.833502 24.6229 0.848626 23.8061C0.868792 22.9793 0.888959 22.697 0.964582 22.3491C1.015 22.1172 1.11583 21.7542 1.18137 21.5475C1.25195 21.3408 1.37799 21.0333 1.46369 20.8619C1.5494 20.6905 1.71073 20.4182 1.8166 20.2518C1.92751 20.0855 2.18967 19.7779 2.40142 19.5662C2.61316 19.3494 2.95095 19.0671 3.15261 18.936C3.34923 18.7999 3.71726 18.5982 3.96429 18.4772C4.21133 18.3613 4.59449 18.205 4.82136 18.1294C5.04318 18.0537 5.4213 17.9479 5.65321 17.8924C5.89016 17.842 6.27332 17.7613 6.51027 17.726C6.74722 17.6907 7.11021 17.6403 7.327 17.6151C7.53874 17.5899 8.26977 17.5546 8.95037 17.5294C9.63602 17.5093 10.7754 17.474 12.7819 17.4235V11.8728L12.4492 11.7014C12.2677 11.6107 11.9148 11.4645 11.6678 11.3838C11.4207 11.3031 10.9821 11.1872 10.6847 11.1267C10.3923 11.0662 9.9486 10.9956 9.70156 10.9704C9.45453 10.9401 8.78904 10.9149 8.22439 10.9149C7.49841 10.9149 7.04467 10.9351 6.68168 10.9855C6.39936 11.0258 5.78429 11.1267 5.31039 11.2073C4.84152 11.288 4.32729 11.3586 4.16596 11.3586C4.00967 11.3586 3.81809 11.3334 3.73743 11.3031C3.6618 11.2678 3.53576 11.167 3.46014 11.0763C3.35931 10.9553 3.26352 10.7385 3.13244 10.3301C3.02657 10.0125 2.93078 9.66462 2.91061 9.55875C2.89549 9.42263 2.90557 9.30667 2.95095 9.18064C2.99632 9.07476 3.09715 8.93864 3.20302 8.84789C3.30385 8.76723 3.49039 8.65632 3.62147 8.61094C3.75255 8.56053 4.18612 8.4597 4.5844 8.37903C4.98269 8.29837 5.59271 8.1925 5.93554 8.14208C6.27332 8.09671 6.75731 8.03621 7.00434 8.01604C7.25138 7.99587 8.00256 7.98579 8.67309 7.99083ZM7.68999 20.3325C7.39254 20.3728 6.96905 20.4535 6.74722 20.514C6.5254 20.5695 6.20274 20.6854 6.04141 20.7661C5.87504 20.8467 5.63808 21.0081 5.50701 21.119C5.38097 21.2299 5.19947 21.4366 5.10872 21.5778C5.01798 21.7189 4.89698 21.9811 4.84152 22.1575C4.78102 22.334 4.7054 22.6819 4.66507 22.9289C4.61465 23.2566 4.60457 23.5641 4.61969 24.0431C4.62978 24.4464 4.66507 24.8346 4.71044 25.0312C4.75077 25.2077 4.86169 25.5102 4.95244 25.7068C5.06839 25.9488 5.19443 26.1303 5.35576 26.2916C5.50196 26.4429 5.70362 26.584 5.90024 26.6798C6.07166 26.7605 6.36407 26.8663 6.55564 26.9168C6.74218 26.9621 7.12534 27.0226 7.40766 27.0428C7.76057 27.073 8.08323 27.073 8.42605 27.0428C8.70334 27.0226 9.12683 26.9621 9.36882 26.9168C9.61082 26.8714 10.0192 26.7706 10.2763 26.6949C10.5385 26.6243 10.9519 26.4781 11.1989 26.3824C11.4459 26.2815 11.7736 26.1353 11.9249 26.0597C12.0812 25.979 12.3736 25.8127 12.5803 25.6866L12.9534 25.4598V20.0603C12.4391 20.0653 11.3754 20.1157 10.2561 20.1661C9.13691 20.2216 7.9824 20.2972 7.68999 20.3325ZM63.399 8.2782C63.888 8.27316 64.4728 8.29333 64.7047 8.31853C64.9316 8.34374 65.35 8.41432 65.6324 8.46978C65.9147 8.53028 66.3331 8.64623 66.555 8.72186C66.7768 8.80252 67.1045 8.92856 67.2809 9.00922C67.4574 9.08989 67.7397 9.24113 67.9011 9.34197C68.0674 9.4428 68.3548 9.64446 68.5464 9.7957C68.7329 9.94191 69.0152 10.194 69.1665 10.3553C69.3228 10.5166 69.5345 10.7637 69.6454 10.9099C69.7513 11.051 69.9227 11.2981 70.0235 11.4645C70.1244 11.6308 70.3008 11.9585 70.4117 12.1955C70.5227 12.4274 70.6739 12.8055 70.7445 13.0273C70.8201 13.2542 70.9209 13.5819 70.9663 13.7584C71.0117 13.9348 71.0823 14.3028 71.1327 14.57C71.178 14.8423 71.2385 15.296 71.2688 15.5783C71.3041 15.9212 71.3142 16.6371 71.299 17.7412C71.2789 19.173 71.2688 19.415 71.2033 19.5662C71.1629 19.6569 71.0873 19.783 71.0369 19.8384C70.9865 19.8939 70.8907 19.9645 70.8251 19.9998C70.7243 20.0502 69.7715 20.0603 58.6549 20.0552L58.6851 21.0333C58.7002 21.5677 58.7456 22.208 58.7809 22.46C58.8212 22.7071 58.8969 23.0902 58.9523 23.3171C59.0078 23.5389 59.1187 23.8969 59.1943 24.1086C59.275 24.3204 59.4363 24.6581 59.5573 24.8548C59.6733 25.0514 59.885 25.3388 60.0312 25.495C60.1724 25.6513 60.3942 25.858 60.5202 25.9589C60.6513 26.0547 60.8984 26.216 61.0748 26.3118C61.2513 26.4025 61.5991 26.5487 61.8462 26.6344C62.0932 26.7151 62.5268 26.826 62.8091 26.8764C63.2578 26.9621 63.4746 26.9722 64.4778 26.9722C65.4559 26.9773 65.7231 26.9621 66.2121 26.8865C66.5298 26.8361 67.1297 26.7151 67.5381 26.6193C67.9515 26.5235 68.5867 26.3874 68.9547 26.3118C69.5396 26.1958 69.6404 26.1857 69.8068 26.2311C69.9429 26.2664 70.0639 26.342 70.2 26.4781C70.3412 26.6243 70.4168 26.7453 70.4622 26.9168C70.5025 27.0428 70.5932 27.3907 70.6689 27.6881C70.7445 27.9805 70.8151 28.3385 70.8251 28.4796C70.8403 28.6611 70.8302 28.7771 70.7848 28.8678C70.7495 28.9384 70.6537 29.0594 70.5731 29.1401C70.4924 29.2207 70.2958 29.3518 70.1294 29.4274C69.963 29.5031 69.6202 29.6442 69.3581 29.74C69.1009 29.8408 68.6774 29.977 68.4153 30.0425C68.1582 30.1131 67.7246 30.2089 67.4524 30.2593C67.1852 30.3047 66.7213 30.3753 66.4289 30.4105C66.1315 30.4458 65.5719 30.4912 65.1837 30.5114C64.7955 30.5315 64.1401 30.5315 63.7317 30.5114C63.3183 30.4962 62.7486 30.4458 62.4663 30.4105C62.1839 30.3702 61.7302 30.2895 61.458 30.229C61.1908 30.1685 60.7673 30.0526 60.5202 29.9719C60.2732 29.8862 59.8951 29.7451 59.6833 29.6493C59.4716 29.5585 59.1237 29.3821 58.912 29.2611C58.7002 29.1401 58.3725 28.9233 58.186 28.7821C57.9944 28.646 57.6617 28.3536 57.4399 28.1419C57.2231 27.9251 56.9206 27.5974 56.7744 27.4058C56.6231 27.2192 56.4013 26.9016 56.2753 26.7C56.1543 26.4983 55.9375 26.095 55.7963 25.8026C55.6552 25.5051 55.4485 24.9859 55.3375 24.643C55.2266 24.3002 55.0855 23.8011 55.025 23.5288C54.9645 23.2566 54.8737 22.7676 54.8283 22.4348C54.783 22.1071 54.7174 21.5475 54.6922 21.1946C54.662 20.7812 54.6519 20.0704 54.667 19.2234C54.6771 18.4218 54.7174 17.6605 54.7578 17.3126C54.7931 16.995 54.8737 16.4657 54.9342 16.138C54.9947 15.8052 55.1056 15.2859 55.1863 14.9784C55.267 14.6709 55.4031 14.2171 55.4888 13.9701C55.5745 13.7231 55.7661 13.2693 55.9123 12.9668C56.0585 12.6593 56.2753 12.2459 56.3963 12.0442C56.5173 11.8426 56.724 11.535 56.855 11.3586C56.9912 11.1821 57.218 10.8998 57.3642 10.7385C57.5155 10.5721 57.818 10.2847 58.0398 10.0982C58.2616 9.90662 58.5944 9.65454 58.786 9.53354C58.9725 9.40751 59.3506 9.2008 59.6178 9.06972C59.89 8.93864 60.3135 8.76723 60.5606 8.68657C60.8076 8.6059 61.2109 8.50003 61.458 8.44961C61.705 8.3992 62.0428 8.3387 62.2092 8.31853C62.3755 8.29837 62.9099 8.2782 63.399 8.2782ZM61.826 11.3989C61.6596 11.4493 61.3975 11.5602 61.2462 11.6359C61.095 11.7115 60.8328 11.8829 60.6664 12.0089C60.5051 12.14 60.2782 12.3518 60.1724 12.4778C60.0665 12.6038 59.9102 12.8055 59.8346 12.9215C59.7539 13.0374 59.6077 13.2996 59.5069 13.5012C59.4111 13.7029 59.2599 14.076 59.1792 14.3381C59.0935 14.5952 58.9876 15.0087 58.9422 15.2557C58.8918 15.5027 58.8313 15.8607 58.8061 16.0522C58.7809 16.2388 58.7456 16.6371 58.7305 16.9396L58.7002 17.4891L67.5834 17.484C67.6238 17.3025 67.6288 16.7581 67.6137 16.1581C67.5986 15.412 67.5683 14.9381 67.5179 14.6557C67.4826 14.4339 67.3767 14.0407 67.291 13.7785C67.2053 13.5214 67.044 13.1534 66.9381 12.9668C66.8121 12.7349 66.6306 12.503 66.3835 12.256C66.1466 12.019 65.9096 11.8325 65.6979 11.7115C65.5214 11.6157 65.2341 11.4846 65.0576 11.4241C64.8812 11.3687 64.5636 11.288 64.3518 11.2527C64.1098 11.2124 63.7317 11.1872 63.3435 11.1872C63.0007 11.1922 62.5873 11.2174 62.4259 11.2477C62.2596 11.2779 61.9873 11.3435 61.826 11.3989ZM85.133 9.06468C85.5263 9.06972 85.9548 9.09997 86.101 9.13022C86.2422 9.15543 86.4085 9.20584 86.4741 9.24113C86.5396 9.27138 86.6304 9.37726 86.6757 9.47305C86.7211 9.56379 86.7614 9.71 86.7614 9.7957C86.7614 9.87637 86.6858 10.4209 86.5951 11.0057C86.4842 11.7216 86.4085 12.1098 86.3531 12.2056C86.3027 12.2913 86.1968 12.382 86.0758 12.4375C85.8842 12.5232 85.8842 12.5232 85.3296 12.4476C84.9364 12.3971 84.6389 12.382 84.3213 12.3971C84.0642 12.4123 83.7365 12.4627 83.55 12.5131C83.3735 12.5635 83.0862 12.6744 82.9097 12.7551C82.7332 12.8357 82.4913 12.9668 82.3753 13.0374C82.2543 13.113 82.0073 13.2945 81.8157 13.4407C81.6292 13.5869 81.367 13.8188 81.2359 13.955C81.0998 14.0961 80.9032 14.318 80.5956 14.7011V21.9004C80.5956 27.2142 80.5856 29.1602 80.5452 29.3266C80.515 29.4829 80.4494 29.6039 80.3385 29.7249C80.2377 29.8308 80.1116 29.9165 79.9957 29.9518C79.8545 29.9921 79.4865 30.0022 77.2733 29.982L77.1069 29.8711C77.0111 29.8106 76.9002 29.6846 76.8498 29.5888C76.7641 29.4224 76.7641 29.3266 76.754 19.8233C76.7489 14.5398 76.7489 10.1587 76.7641 10.0831C76.7792 10.0024 76.8548 9.86628 76.9456 9.7705C77.0363 9.67471 77.1775 9.57388 77.2581 9.54363C77.359 9.50834 77.7825 9.49321 78.5841 9.49321C79.6025 9.49321 79.789 9.50329 79.9654 9.56883C80.0915 9.61421 80.2074 9.69487 80.273 9.78058C80.3284 9.86124 80.394 9.99736 80.4192 10.0932C80.4494 10.1889 80.4696 10.441 80.4696 10.6628C80.4696 10.8796 80.4797 11.0863 80.4898 11.1216C80.5049 11.167 80.6511 11.051 80.9939 10.7284C81.2561 10.4814 81.6493 10.1587 81.8611 10.0175C82.0728 9.87637 82.3803 9.69487 82.5467 9.60917C82.708 9.5285 83.0357 9.39742 83.2727 9.31676C83.5096 9.24113 83.8626 9.14535 84.0642 9.11005C84.3213 9.06468 84.6339 9.04956 85.133 9.06468ZM112.322 9.39742C113.562 9.40751 113.638 9.41255 113.819 9.49825C113.925 9.55371 114.071 9.65958 114.142 9.74025C114.213 9.82595 115.196 11.3031 116.325 13.0223C117.454 14.7465 118.392 16.1531 118.407 16.148C118.422 16.143 119.35 14.7465 120.469 13.0525C121.583 11.3535 122.556 9.88645 122.622 9.7957C122.692 9.70496 122.844 9.57892 123.171 9.40751L124.477 9.39238C125.551 9.3823 125.818 9.39238 125.954 9.4428C126.05 9.47809 126.181 9.56884 126.247 9.63942C126.343 9.74529 126.363 9.81083 126.363 9.98728C126.363 10.1032 126.337 10.2545 126.302 10.32C126.272 10.3856 124.956 12.4223 123.388 14.8524C121.815 17.2773 120.525 19.2839 120.509 19.3091C120.499 19.3292 121.911 21.5122 123.645 24.149C125.385 26.7907 126.816 28.9939 126.842 29.0493C126.862 29.0997 126.877 29.256 126.877 29.3922C126.877 29.5585 126.852 29.6694 126.801 29.74C126.761 29.8005 126.665 29.8711 126.59 29.9013C126.484 29.9467 126.106 29.9568 125.067 29.9568C124.18 29.9568 123.625 29.9417 123.514 29.9114C123.423 29.8812 123.272 29.8156 123.187 29.7602C123.066 29.6846 122.879 29.4375 122.486 28.8325C122.188 28.3788 121.16 26.7907 120.197 25.3085C119.239 23.8213 118.432 22.6012 118.412 22.5962C118.397 22.5911 117.379 24.1338 116.159 26.0244C114.873 28.0158 113.865 29.5384 113.759 29.6392C113.663 29.735 113.492 29.8408 113.371 29.8862C113.184 29.9518 112.977 29.9568 111.778 29.9568C110.729 29.9568 110.361 29.9467 110.255 29.9013C110.179 29.8711 110.073 29.7904 110.018 29.7199C109.947 29.6291 109.922 29.5384 109.922 29.3922C109.922 29.2762 109.947 29.125 109.978 29.0493C110.013 28.9687 111.45 26.7605 113.179 24.1288C114.908 21.5021 116.32 19.3444 116.315 19.3292C116.315 19.3192 115.034 17.3429 113.477 14.9381C111.914 12.5333 110.593 10.4763 110.537 10.3704C110.482 10.2646 110.436 10.1083 110.436 10.0175C110.436 9.93183 110.462 9.80579 110.497 9.74025C110.527 9.67471 110.593 9.59404 110.633 9.55875C110.678 9.52346 110.779 9.468 110.865 9.43775C110.976 9.40246 111.369 9.38734 112.322 9.39742ZM90.3107 9.47305H91.9088C93.4818 9.47305 93.507 9.47305 93.6734 9.56883C93.7692 9.61925 93.8851 9.72512 93.9305 9.7957C93.9809 9.87133 95.1455 13.1836 96.5218 17.1563C98.1654 21.8954 99.0376 24.3557 99.0577 24.3103C99.0779 24.27 100.237 21.0535 101.644 17.1664C103.046 13.2744 104.23 10.0175 104.266 9.92174C104.306 9.82595 104.417 9.69487 104.674 9.49321L106.111 9.48313C107.205 9.47305 107.578 9.48313 107.674 9.52346C107.744 9.55371 107.82 9.63437 107.85 9.71C107.885 9.7957 107.891 9.89653 107.865 10.0276C107.85 10.1335 105.98 15.1952 103.716 21.2803C101.452 27.3604 99.5014 32.5683 99.3804 32.8506C99.2645 33.133 99.0729 33.5514 98.9569 33.7833C98.841 34.0152 98.6343 34.3984 98.4881 34.6404C98.3469 34.8824 98.1099 35.2454 97.9637 35.442C97.8175 35.6437 97.51 36.0066 97.273 36.2537C97.0361 36.4957 96.6781 36.8234 96.4815 36.9746C96.2799 37.1259 95.8665 37.3729 95.5589 37.5241C95.2514 37.6754 94.8481 37.8468 94.6615 37.9073C94.475 37.9678 94.0868 38.0636 93.8045 38.1241C93.5221 38.1796 93.0381 38.2501 92.7357 38.2753C92.3928 38.3056 91.8131 38.3207 91.2383 38.3056C90.6384 38.2905 90.1544 38.2552 89.9074 38.2098C89.6402 38.1594 89.4939 38.109 89.4234 38.0434C89.3679 37.993 89.2973 37.8468 89.257 37.7157C89.2066 37.5342 89.1965 37.383 89.2217 37.0502C89.2368 36.8133 89.2772 36.4402 89.3074 36.2134C89.3427 35.9915 89.3982 35.7193 89.4385 35.6134C89.4738 35.5075 89.5595 35.3714 89.62 35.3059C89.6855 35.2403 89.7964 35.1748 89.867 35.1597C89.9376 35.1496 90.3107 35.1698 90.6989 35.2101C91.1728 35.2605 91.5862 35.2756 91.9441 35.2605C92.2365 35.2454 92.6802 35.195 92.9272 35.1445C93.1743 35.0941 93.5322 34.9883 93.7188 34.9076C93.9053 34.8219 94.1674 34.6958 94.2935 34.6202C94.4246 34.5446 94.6817 34.3278 94.8733 34.1362C95.0648 33.9497 95.322 33.6422 95.448 33.4506C95.569 33.264 95.7555 32.9364 95.8564 32.7246C95.9572 32.5129 96.3151 31.6608 96.6529 30.8391C96.9857 30.0123 97.263 29.3064 97.263 29.2712C97.268 29.2359 95.6446 24.9153 93.6633 19.6721C90.6434 11.6863 90.0586 10.1032 90.0636 9.92678C90.0636 9.76041 90.0889 9.69991 90.1846 9.59908L90.3107 9.47305Z" fill="white"/>
</svg>
