<svg width="88" height="61" viewBox="0 0 88 61" fill="none" xmlns="http://www.w3.org/2000/svg">
<path fill-rule="evenodd" clip-rule="evenodd" d="M36.8761 6.61016C39.6679 3.70188 43.5573 1.89593 47.8568 1.89593C53.572 1.89593 58.5599 5.08357 61.2153 9.81579C63.5912 8.75451 66.1646 8.20749 68.7668 8.21061C79.076 8.21061 87.4324 16.6409 87.4324 27.0419C87.4324 37.443 79.076 45.8733 68.7668 45.8733C67.5063 45.8733 66.2771 45.7473 65.0886 45.5077C62.7504 49.6774 58.2919 52.4957 53.1771 52.4957C51.0359 52.4957 49.0102 52.0033 47.208 51.1216C44.8367 56.6995 39.3128 60.6088 32.876 60.6088C26.173 60.6088 20.4587 56.3662 18.2664 50.418C17.2896 50.6241 16.294 50.7279 15.2956 50.7277C7.31326 50.7286 0.842325 44.1904 0.842325 36.1247C0.836337 33.5686 1.50044 31.0556 2.76842 28.8362C4.03641 26.6168 5.86399 24.7684 8.06898 23.4755C7.1542 21.3677 6.68354 19.094 6.68634 16.7962C6.68634 7.51929 14.216 1.14298e-05 23.5043 1.14298e-05C26.0918 -0.00300744 28.645 0.592028 30.9646 1.73867C33.2841 2.8853 35.3073 4.55252 36.8761 6.61016Z" fill="white"/>
<path fill-rule="evenodd" clip-rule="evenodd" d="M13.3842 31.4313L13.7346 30.4587C13.7905 30.292 13.9164 30.3469 13.9676 30.3782C14.0651 30.436 14.1352 30.488 14.2612 30.5619C15.2934 31.2144 16.2499 31.221 16.5482 31.221C17.321 31.221 17.8001 30.8119 17.8001 30.2598V30.2314C17.8001 29.631 17.0615 29.4037 16.2082 29.1423L16.0188 29.0817C14.8474 28.7484 13.5945 28.2663 13.5945 26.7833V26.753C13.5945 25.3458 14.7299 24.3637 16.355 24.3637L16.533 24.3618C17.4876 24.3618 18.41 24.6393 19.0786 25.0446C19.1392 25.0825 19.1979 25.1526 19.1638 25.2454L18.804 26.218C18.7405 26.3837 18.5672 26.2738 18.5672 26.2738C17.8697 25.9104 17.0978 25.7124 16.3114 25.6952C15.622 25.6952 15.1788 26.0608 15.1788 26.557V26.5882C15.1788 27.1669 15.9383 27.414 16.819 27.701L16.9706 27.7483C18.1382 28.1177 19.3845 28.6291 19.3845 30.0354V30.0647C19.3845 31.5847 18.2803 32.5289 16.5046 32.5289C15.6324 32.5289 14.7981 32.3944 13.9155 31.9256C13.7488 31.829 13.584 31.7457 13.4212 31.6273C13.4041 31.6027 13.3293 31.5733 13.3833 31.4313H13.3842ZM39.3863 31.4313L39.7377 30.4587C39.7888 30.2996 39.9375 30.3583 39.9697 30.3782C40.0663 30.4378 40.1383 30.488 40.2633 30.5619C41.2974 31.2144 42.252 31.221 42.5532 31.221C43.3231 31.221 43.8032 30.8119 43.8032 30.2598V30.2314C43.8032 29.631 43.0655 29.4037 42.2122 29.1423L42.0228 29.0817C40.8495 28.7484 39.5966 28.2663 39.5966 26.7833V26.753C39.5966 25.3458 40.733 24.3637 42.3581 24.3637L42.5352 24.3618C43.4897 24.3618 44.4131 24.6393 45.0826 25.0446C45.1413 25.0825 45.201 25.1526 45.1679 25.2454C45.1347 25.3316 44.8392 26.127 44.808 26.218C44.7426 26.3837 44.5712 26.2738 44.5712 26.2738C43.8734 25.9102 43.1012 25.7122 42.3145 25.6952C41.6251 25.6952 41.1819 26.0608 41.1819 26.557V26.5882C41.1819 27.1669 41.9404 27.414 42.8221 27.701L42.9736 27.7483C44.1413 28.1177 45.3866 28.6291 45.3866 30.0354V30.0647C45.3866 31.5847 44.2833 32.5289 42.5077 32.5289C41.6346 32.5289 40.8002 32.3944 39.9186 31.9256C39.7519 31.829 39.5871 31.7457 39.4233 31.6273C39.4062 31.6027 39.3314 31.5733 39.3863 31.4313ZM58.6202 26.8581C58.766 27.3468 58.838 27.8838 58.838 28.451C58.838 29.0192 58.766 29.5543 58.6202 30.0429C58.4868 30.5141 58.2579 30.9529 57.9478 31.3318C57.637 31.6999 57.2473 31.9932 56.8076 32.1898C56.353 32.3982 55.8189 32.5023 55.2185 32.5023C54.6181 32.5023 54.0821 32.3982 53.6294 32.1898C53.1897 31.9932 52.8 31.6999 52.4892 31.3318C52.1794 30.9529 51.9502 30.5146 51.8159 30.0439C51.667 29.5262 51.5936 28.9897 51.5981 28.451C51.5981 27.8828 51.671 27.3468 51.8159 26.8581C51.9617 26.3657 52.1881 25.932 52.4883 25.5702C52.7998 25.2006 53.1896 24.905 53.6294 24.7046C54.083 24.4925 54.6162 24.3855 55.2185 24.3855C55.8208 24.3855 56.354 24.4925 56.8076 24.7046C57.2603 24.9158 57.6447 25.2066 57.9478 25.5702C58.2489 25.932 58.4762 26.3657 58.6202 26.8581ZM57.139 28.451C57.139 27.5921 56.9799 26.9169 56.6636 26.4434C56.3511 25.9736 55.8776 25.7464 55.2185 25.7464C54.5594 25.7464 54.0897 25.9736 53.7809 26.4434C53.4713 26.9169 53.3131 27.5921 53.3131 28.451C53.3131 29.309 53.4713 29.989 53.7828 30.4663C54.0897 30.9417 54.5594 31.1718 55.2185 31.1718C55.8776 31.1718 56.3511 30.9407 56.6636 30.4663C56.978 29.989 57.139 29.309 57.139 28.451ZM70.7969 30.9417L71.1605 31.9474C71.2078 32.0705 71.1008 32.1245 71.1008 32.1245C70.5393 32.3423 69.7599 32.4976 69.0013 32.4976C67.7153 32.4976 66.7304 32.1273 66.0731 31.3962C65.4197 30.667 65.0864 29.6755 65.0864 28.4453C65.0864 27.8762 65.1688 27.3373 65.3297 26.8496C65.4907 26.3572 65.7322 25.9234 66.0504 25.5617C66.3808 25.1898 66.7883 24.8944 67.2446 24.6961C67.7181 24.4849 68.275 24.3789 68.8962 24.3789C69.3157 24.3789 69.6888 24.4044 70.0089 24.4518C70.3508 24.5048 70.8063 24.6279 70.9986 24.7027C71.0336 24.716 71.1311 24.7634 71.0914 24.8779C70.9512 25.2728 70.8556 25.5304 70.7258 25.8903C70.669 26.0437 70.5535 25.9926 70.5535 25.9926C70.0658 25.8392 69.5979 25.7691 68.9871 25.7691C68.2532 25.7691 67.702 26.0134 67.3421 26.4917C66.9785 26.9737 66.7749 27.6053 66.772 28.4453C66.7692 29.3668 67.0003 30.0496 67.4094 30.4719C67.8175 30.8934 68.3876 31.1064 69.1055 31.1064C69.3962 31.1064 69.6709 31.0875 69.918 31.0487C70.1623 31.0098 70.3915 30.9341 70.6074 30.8498C70.6074 30.8498 70.7467 30.7977 70.7969 30.9417ZM78.3824 26.5788C78.7053 27.7095 78.5368 28.6859 78.5311 28.7399C78.5188 28.8686 78.3862 28.8705 78.3862 28.8705L73.368 28.8668C73.3992 29.6291 73.582 30.1689 73.9513 30.5354C74.314 30.8943 74.8898 31.1244 75.6692 31.1254C76.8606 31.1282 77.3691 30.8886 77.7299 30.7551C77.7299 30.7551 77.8672 30.7059 77.9193 30.8422L78.246 31.7618C78.3123 31.9161 78.2593 31.9701 78.2034 32.0014C77.889 32.1747 77.1267 32.4985 75.6759 32.5023C74.9722 32.5052 74.3595 32.4048 73.8548 32.2088C73.3751 32.0311 72.9431 31.7449 72.5924 31.3725C72.2572 31.0072 72.0083 30.5713 71.8641 30.0969C71.7088 29.5772 71.6325 29.037 71.6378 28.4946C71.6378 27.9264 71.7107 27.3866 71.8575 26.8932C72.0043 26.396 72.2325 25.9575 72.5365 25.5891C72.8516 25.2132 73.2466 24.9123 73.6928 24.7084C74.1531 24.4916 74.7232 24.3855 75.3501 24.3855C75.887 24.3855 76.3776 24.501 76.7858 24.6772C77.1002 24.8117 77.4165 25.055 77.7403 25.4035C77.9449 25.6232 78.2565 26.1043 78.3824 26.5788ZM73.3917 27.6271H76.9714C76.9344 27.1669 76.8445 26.754 76.638 26.4434C76.3236 25.9736 75.8899 25.7151 75.2317 25.7151C74.5726 25.7151 74.1048 25.9736 73.7951 26.4434C73.5924 26.754 73.4617 27.1498 73.3907 27.6271H73.3917ZM38.1865 26.5788C38.5085 27.7095 38.3427 28.6859 38.3371 28.7399C38.3238 28.8686 38.1912 28.8705 38.1912 28.8705L33.172 28.8668C33.2042 29.6291 33.3861 30.1689 33.7564 30.5354C34.1191 30.8943 34.6939 31.1244 35.4733 31.1254C36.6646 31.1282 37.1751 30.8886 37.5349 30.7551C37.5349 30.7551 37.6723 30.7059 37.7234 30.8422L38.0511 31.7618C38.1173 31.9161 38.0643 31.9701 38.0094 32.0014C37.6931 32.1747 36.9298 32.4985 35.4809 32.5023C34.7763 32.5052 34.1636 32.4048 33.6598 32.2088C33.18 32.0309 32.7477 31.7447 32.3964 31.3725C32.0622 31.0069 31.814 30.571 31.6701 30.0969C31.5136 29.5774 31.4367 29.0371 31.4419 28.4946C31.4419 27.9264 31.5157 27.3866 31.6616 26.8932C31.798 26.4171 32.0293 25.9736 32.3415 25.5891C32.6565 25.2135 33.0512 24.9126 33.4969 24.7084C33.959 24.4916 34.5291 24.3855 35.1541 24.3855C35.6481 24.3843 36.1372 24.4836 36.5917 24.6772C36.9061 24.8117 37.2224 25.055 37.5454 25.4035C37.7499 25.6232 38.0615 26.1043 38.1865 26.5788ZM33.1948 27.6271H36.7764C36.7385 27.1669 36.6485 26.754 36.443 26.4434C36.1305 25.9736 35.6949 25.7151 35.0367 25.7151C34.3776 25.7151 33.9088 25.9736 33.601 26.4434C33.3965 26.754 33.2667 27.1498 33.1938 27.6271H33.1948ZM24.344 27.3875C24.344 27.3875 24.7399 27.4226 25.1717 27.4851V27.2729C25.1717 26.6034 25.0325 26.288 24.7588 26.0769C24.4785 25.8628 24.0599 25.752 23.5182 25.752C23.5182 25.752 22.2966 25.7369 21.3306 26.2615C21.2861 26.288 21.2492 26.3032 21.2492 26.3032C21.2492 26.3032 21.1279 26.3458 21.0844 26.2217L20.7293 25.2672C20.6743 25.1298 20.7738 25.0673 20.7738 25.0673C21.2255 24.7151 22.3202 24.502 22.3202 24.502C22.7647 24.4239 23.2147 24.3824 23.6659 24.3779C24.6679 24.3779 25.4435 24.6109 25.971 25.0721C26.4994 25.5352 26.7684 26.2814 26.7684 27.2871L26.7712 31.8783C26.7712 31.8783 26.7816 32.0108 26.6557 32.0411C26.6557 32.0411 26.471 32.0923 26.3053 32.1311C26.1376 32.1699 25.5334 32.293 25.0401 32.3764C24.5362 32.4608 24.0262 32.5033 23.5154 32.5033C23.0277 32.5033 22.5807 32.4578 22.1867 32.3679C21.8196 32.291 21.4719 32.1402 21.1649 31.9247C20.8851 31.7215 20.6605 31.4516 20.5114 31.1396C20.3571 30.8242 20.2794 30.4388 20.2794 29.9937C20.2794 29.5571 20.3713 29.1679 20.5484 28.8365C20.7264 28.5069 20.9707 28.2275 21.2776 28.0088C21.5946 27.7856 21.949 27.621 22.324 27.5229C22.7151 27.4188 23.1309 27.3648 23.5608 27.3648C23.8762 27.3648 24.1394 27.3714 24.344 27.3875ZM22.3468 30.9142C22.3439 30.9132 22.7966 31.2693 23.8184 31.2068C24.5362 31.1633 25.1726 31.0269 25.1726 31.0269V28.7446C25.1726 28.7446 24.5306 28.6395 23.8099 28.6291C22.7881 28.6167 22.3524 28.9927 22.3553 28.9918C22.0541 29.2058 21.9073 29.523 21.9073 29.9624C21.9073 30.2437 21.9575 30.4634 22.0589 30.6168C22.1223 30.7182 22.1498 30.756 22.3468 30.9142ZM64.825 24.8012C64.7776 24.9385 64.5343 25.6261 64.4462 25.8543C64.414 25.9414 64.361 26.0011 64.2634 25.9907C64.2634 25.9907 63.9755 25.9244 63.7122 25.9244C63.5314 25.9244 63.2728 25.9471 63.0399 26.0191C62.8062 26.0909 62.5936 26.2187 62.4205 26.3913C62.2368 26.5684 62.0881 26.8174 61.9802 27.1299C61.8703 27.4443 61.8135 27.9444 61.8135 28.4463V32.1851C61.8136 32.2051 61.8098 32.2249 61.8022 32.2434C61.7947 32.2619 61.7835 32.2787 61.7694 32.2928C61.7554 32.307 61.7386 32.3183 61.7202 32.3259C61.7017 32.3336 61.6819 32.3376 61.662 32.3376H60.3447C60.3245 32.3378 60.3045 32.3341 60.2858 32.3266C60.2671 32.3191 60.2501 32.308 60.2356 32.294C60.2212 32.2799 60.2097 32.2631 60.2018 32.2446C60.1938 32.2261 60.1896 32.2062 60.1894 32.186V24.6999C60.1894 24.6156 60.2509 24.5484 60.3352 24.5484H61.6203C61.7055 24.5484 61.7661 24.6156 61.7661 24.6999V25.3117C61.9584 25.0541 62.3031 24.8268 62.6147 24.6866C62.9272 24.5446 63.2766 24.4404 63.9083 24.4783C64.2369 24.4982 64.664 24.5882 64.7502 24.6213C64.767 24.628 64.7824 24.6381 64.7953 24.6508C64.8082 24.6636 64.8184 24.6788 64.8254 24.6955C64.8324 24.7123 64.8359 24.7303 64.8358 24.7484C64.8358 24.7666 64.8321 24.7845 64.825 24.8012ZM52.4475 21.3323C52.4826 21.3465 52.5782 21.3929 52.5403 21.5066L52.1549 22.5606C52.1227 22.6402 52.1019 22.6875 51.938 22.6383C51.7214 22.5701 51.4957 22.535 51.2685 22.5341C51.0696 22.5341 50.8897 22.5597 50.7306 22.6127C50.5714 22.6637 50.4271 22.7527 50.3101 22.8722C50.1545 23.0226 50.0342 23.2057 49.9578 23.4082C49.7732 23.9385 49.7021 24.5039 49.6927 24.5399H51.2969C51.4323 24.5399 51.475 24.6024 51.4617 24.7018L51.2742 25.7454C51.2439 25.8969 51.1066 25.8912 51.1066 25.8912H49.4531L48.3233 32.2893C48.2262 32.8631 48.0785 33.4271 47.882 33.9749C47.7049 34.438 47.5221 34.7761 47.2285 35.099C46.978 35.388 46.6593 35.61 46.3014 35.7449C45.9539 35.8728 45.5315 35.9381 45.0703 35.9381C44.8506 35.9381 44.6138 35.9334 44.3345 35.8671C44.1788 35.8315 44.0254 35.7866 43.8752 35.7326C43.8136 35.7108 43.7634 35.6322 43.7994 35.5318C43.8335 35.4324 44.1309 34.6189 44.1706 34.5119C44.2218 34.3831 44.3525 34.4323 44.3525 34.4323C44.4415 34.4702 44.504 34.4949 44.6224 34.5185C44.7426 34.5422 44.9036 34.563 45.0258 34.563C45.2446 34.563 45.4434 34.5365 45.6167 34.4778C45.8251 34.4106 45.9482 34.2884 46.0751 34.1255C46.2077 33.9541 46.3156 33.7221 46.4264 33.4105C46.5372 33.0952 46.6386 32.6785 46.7257 32.1737L47.8507 25.8922H46.7427C46.6102 25.8922 46.5647 25.8297 46.5798 25.7293L46.7655 24.6857C46.7948 24.5342 46.9359 24.5399 46.9359 24.5399H48.0733L48.1348 24.2008C48.3053 23.1932 48.6434 22.4271 49.1434 21.9242C49.6463 21.4176 50.3613 21.1619 51.2685 21.1619C51.528 21.1619 51.7572 21.1789 51.9513 21.2139C52.1417 21.2499 52.2865 21.2831 52.4475 21.3323ZM30.0261 32.1851C30.0261 32.2703 29.9674 32.3376 29.8821 32.3376H28.5516C28.4663 32.3376 28.4086 32.2694 28.4086 32.186V21.4725C28.4086 21.3901 28.4673 21.3219 28.5506 21.3219H29.8821C29.9674 21.3219 30.0261 21.3901 30.0261 21.4734V32.1851Z" fill="#0A0404"/>
</svg>
