<svg width="159" height="46" viewBox="0 0 159 46" fill="none" xmlns="http://www.w3.org/2000/svg">
<path d="M27.9204 43.4472C35.4404 42.1023 41.6514 40.9894 41.7227 40.9741L41.8524 40.9463L34.7529 32.3968C30.8481 27.6946 27.6533 23.8291 27.6533 23.8068C27.6533 23.7647 34.9842 3.32652 35.0254 3.25381C35.0392 3.2295 40.0281 11.9495 47.1188 24.3918C53.7573 36.0404 59.2304 45.6447 59.2813 45.7347L59.3738 45.8984L36.8108 45.8954L14.2478 45.8925L27.9204 43.4472V43.4472ZM114.447 41.3796C111.012 41.1567 109.015 39.1767 108.485 35.4707C108.345 34.4848 108.344 34.4592 108.33 28.059L108.316 21.8646H109.836H111.356L111.368 27.8562C111.379 33.2562 111.385 33.8893 111.436 34.2692C111.643 35.8109 112.055 36.8476 112.757 37.5918C113.318 38.1873 113.975 38.5361 114.885 38.7211C115.314 38.8084 116.535 38.8086 116.927 38.7215C117.849 38.516 118.588 38.1096 119.24 37.4497C119.983 36.6975 120.533 35.6303 120.799 34.4235L120.889 34.0168L120.899 27.9745L120.909 21.9323H122.461H124.013V31.4309V40.9294H122.477H120.941V39.4224C120.941 38.3984 120.93 37.9191 120.906 37.927C120.887 37.9335 120.809 38.0556 120.731 38.1985C120.202 39.1758 119.32 40.0694 118.354 40.6078C117.196 41.2532 116.034 41.4827 114.447 41.3797L114.447 41.3796ZM149.308 41.3642C148.095 41.272 146.819 40.85 145.775 40.1966C143.576 38.8193 142.275 36.5492 141.894 33.4252C141.762 32.3441 141.746 30.892 141.856 29.9734C142.102 27.9209 142.899 25.9059 144.033 24.4674C144.324 24.0987 144.984 23.4307 145.348 23.1363C146.332 22.3413 147.482 21.7853 148.704 21.5148C149.415 21.3572 150.669 21.2832 151.425 21.3541C153.324 21.5323 155.065 22.4378 156.248 23.8629C157.451 25.3107 158.111 27.3339 158.196 29.8252C158.209 30.2156 158.212 30.9001 158.203 31.3463L158.186 32.1576L151.533 32.1661L144.881 32.1746V32.4752C144.881 33.3901 145.1 34.4323 145.48 35.3189C145.808 36.0835 146.372 36.9184 146.833 37.3225C147.78 38.151 148.938 38.6468 150.206 38.7662C150.676 38.8104 151.874 38.7638 152.41 38.6805C153.938 38.4427 155.391 37.8359 156.564 36.9452C156.702 36.8405 156.834 36.7426 156.858 36.7277C156.892 36.7059 156.9 36.9797 156.899 38.1305L156.898 39.5604L156.584 39.7572C155.257 40.5883 153.736 41.122 152.126 41.3218C151.645 41.3814 149.882 41.408 149.308 41.3642L149.308 41.3642ZM155.097 29.3048C155.097 27.7722 154.46 26.0696 153.557 25.1929C152.912 24.5673 152.134 24.1849 151.208 24.0397C150.77 23.971 149.846 23.9975 149.385 24.092C148.408 24.2917 147.601 24.7262 146.896 25.4308C146.155 26.1724 145.599 27.0731 145.25 28.0993C145.124 28.4683 144.977 29.0741 144.932 29.4111L144.91 29.5717H150.004H155.097V29.3048ZM64.8552 40.8871C64.863 40.8639 67.1221 34.8555 69.8754 27.5352L74.8814 14.2254L76.4899 14.2253L78.0984 14.2252L78.2318 14.5717C78.6396 15.6305 88.2536 40.9005 88.2536 40.9136C88.2536 40.9223 87.4835 40.9293 86.5424 40.9291L84.8312 40.9288L83.4456 37.1939L82.06 33.459L76.4808 33.4589L70.9016 33.4589L70.8532 33.5856C70.8265 33.6554 70.2345 35.3359 69.5376 37.3202L68.2705 40.9281L66.5558 40.9287C65.1985 40.9292 64.844 40.9205 64.8552 40.887V40.8871ZM81.0416 30.6088C81.0416 30.6029 80.1092 28.0436 78.9695 24.9215C76.8373 19.0806 76.718 18.7291 76.5496 17.7914C76.4706 17.3517 76.4306 17.3395 76.3837 17.7407C76.3502 18.0275 76.2049 18.6692 76.0928 19.0252C76.0373 19.2018 75.0771 21.8698 73.9592 24.954C72.8412 28.0382 71.9266 30.5747 71.9266 30.5906C71.9266 30.6065 73.9774 30.6195 76.4841 30.6195C78.9907 30.6195 81.0416 30.6147 81.0416 30.6088V30.6088ZM89.2886 40.4429V39.9565L94.8472 32.2204L100.406 24.4843L95.373 24.4674L90.3403 24.4505L90.3316 23.1576L90.3229 21.8646H97.602H104.881V22.3013V22.738L99.3219 30.5163C96.2643 34.7944 93.7627 38.3018 93.7627 38.3106C93.7627 38.3194 96.2343 38.3266 99.2551 38.3266H104.748V39.628V40.9294H97.0181H89.2886V40.4429ZM130.078 40.9068C130.066 40.8944 130.056 36.6049 130.056 31.3745V21.8646H131.575H133.094V23.8252C133.094 24.9035 133.107 25.7857 133.123 25.7857C133.139 25.7857 133.213 25.6092 133.288 25.3935C133.629 24.4049 134.221 23.4812 134.985 22.7471C135.672 22.0858 136.458 21.6903 137.385 21.5389C137.645 21.4964 137.866 21.4883 138.387 21.502C139.041 21.5193 139.383 21.5677 139.78 21.6993L139.906 21.7408V23.3372V24.9337L139.547 24.7518C138.913 24.4305 138.287 24.3033 137.535 24.3429C137.046 24.3687 136.724 24.4323 136.333 24.581C135.528 24.8869 134.875 25.4268 134.419 26.1638C133.758 27.2308 133.287 28.6023 133.148 29.8628C133.123 30.089 133.108 31.9313 133.102 35.5632L133.094 40.9294H131.597C130.774 40.9294 130.091 40.9192 130.078 40.9068ZM0.842285 40.8401C0.842285 40.828 4.18757 34.9488 8.27624 27.7752L15.7102 14.7322L24.3736 7.3717C29.1385 3.32341 33.0499 0.00621605 33.0655 0.00016629C33.0812 -0.00588227 33.0185 0.153835 32.9263 0.355095C32.834 0.556355 28.6007 9.74889 23.519 20.7829L14.2796 40.8449L7.56092 40.8534C3.86567 40.8581 0.842285 40.8521 0.842285 40.84V40.8401Z" fill="white"/>
</svg>
