<svg width="232" height="51" viewBox="0 0 232 51" fill="none" xmlns="http://www.w3.org/2000/svg">
<path d="M16.4161 35.0453L31.9899 25.841L16.4161 0L0.842285 25.841L16.4161 35.0453Z" fill="white"/>
<path d="M16.4161 50.7373L31.9983 28.7939L16.4161 37.9897L0.842285 28.7939L16.4161 50.7373Z" fill="white"/>
<path d="M67.0236 32.2186C67.0236 32.6097 66.6911 32.9377 66.2945 32.9377H52.1599C52.5181 36.3822 55.1403 39.5238 58.8371 39.5238C61.3698 39.5238 63.2373 38.5775 64.6572 36.584C64.8619 36.3065 65.1689 36.1298 65.5526 36.2938C65.7573 36.3822 65.9108 36.5714 65.9492 36.7985C65.9875 37.0256 65.9236 37.1518 65.8596 37.278C64.4398 39.7257 61.6128 40.9243 58.8371 40.9243C54.0786 40.9243 50.7017 36.7354 50.7017 32.2438C50.7017 27.7521 54.0914 23.5633 58.8371 23.5633C63.5827 23.5507 67.0236 27.7269 67.0236 32.2186ZM65.5142 31.5246C65.2072 28.0802 62.5338 24.9385 58.8371 24.9385C55.1403 24.9385 52.5181 28.0802 52.1599 31.5246H65.5142ZM84.1643 23.9039C84.5736 23.9039 84.8678 24.2572 84.8678 24.5979C84.8678 25.0016 84.5608 25.2918 84.1643 25.2918H80.378V39.9528C80.378 40.3061 80.071 40.6467 79.6745 40.6467C79.2651 40.6467 78.9709 40.2934 78.9709 39.9528V25.2918H75.3253C74.916 25.2918 74.6218 24.989 74.6218 24.5979C74.6218 24.2446 74.9288 23.9039 75.3253 23.9039H78.9709V18.5417C78.9709 18.2011 79.2012 17.8856 79.5465 17.8352C80.0198 17.7595 80.3908 18.0749 80.3908 18.5165V23.9039H84.1643ZM107.279 30.9821V39.8645C107.279 40.2682 106.92 40.5584 106.575 40.5584C106.166 40.5584 105.871 40.2556 105.871 39.8645V30.9821C105.871 27.9919 104.157 25.0016 100.768 25.0016C96.4185 25.0016 94.551 28.7363 94.8068 32.5844C94.8068 32.6854 94.858 33.127 94.858 33.1775V39.8392C94.858 40.1799 94.6277 40.4953 94.2824 40.5458C93.8091 40.6215 93.4381 40.3061 93.4381 39.8645V10.6939C93.4381 10.3407 93.7451 10 94.1417 10C94.551 10 94.8452 10.3533 94.8452 10.6939V27.197C96.0604 25.0521 98.2349 23.6011 100.755 23.6011C104.899 23.6011 107.279 27.197 107.279 30.9821ZM132.606 32.2186C132.606 32.6097 132.273 32.9377 131.877 32.9377H117.742C118.1 36.3822 120.722 39.5238 124.419 39.5238C126.952 39.5238 128.819 38.5775 130.239 36.584C130.444 36.3065 130.751 36.1298 131.135 36.2938C131.339 36.3822 131.493 36.5714 131.531 36.7985C131.57 37.0256 131.506 37.1518 131.442 37.278C130.022 39.7257 127.195 40.9243 124.419 40.9243C119.661 40.9243 116.284 36.7354 116.284 32.2438C116.284 27.7521 119.674 23.5633 124.419 23.5633C129.165 23.5507 132.593 27.7269 132.606 32.2186ZM131.084 31.5246C130.777 28.0802 128.103 24.9385 124.406 24.9385C120.71 24.9385 118.087 28.0802 117.729 31.5246H131.084ZM149.951 24.5474C149.951 25.0016 149.695 25.2414 149.299 25.2918C145.154 25.8848 143.287 29.2283 143.287 33.127V39.7888C143.287 40.1294 143.056 40.4448 142.711 40.4953C142.238 40.571 141.867 40.2556 141.867 39.814V24.6105C141.867 24.2698 142.097 23.9544 142.442 23.9039C142.916 23.8282 143.287 24.1437 143.287 24.5853V27.6764C144.451 25.7334 146.779 23.8913 149.196 23.8913C149.542 23.9039 149.951 24.1437 149.951 24.5474ZM173.155 32.2186C173.155 32.6097 172.822 32.9377 172.426 32.9377H158.291C158.649 36.3822 161.272 39.5238 164.968 39.5238C167.501 39.5238 169.369 38.5775 170.788 36.584C170.993 36.3065 171.3 36.1298 171.684 36.2938C171.889 36.3822 172.042 36.5714 172.08 36.7985C172.119 37.0256 172.055 37.1518 171.991 37.278C170.571 39.7257 167.744 40.9243 164.968 40.9243C160.21 40.9243 156.833 36.7354 156.833 32.2438C156.833 27.7521 160.223 23.5633 164.968 23.5633C169.714 23.5507 173.142 27.7269 173.155 32.2186ZM171.633 31.5246C171.326 28.0802 168.652 24.9385 164.956 24.9385C161.259 24.9385 158.636 28.0802 158.278 31.5246H171.633ZM195.962 24.7241V39.9528C195.962 40.3565 195.604 40.6467 195.259 40.6467C194.849 40.6467 194.555 40.3439 194.555 39.9528V37.0635C193.391 39.3598 191.319 41 188.684 41C184.488 41 182.16 37.4041 182.16 33.619V24.6862C182.16 24.3329 182.467 23.9923 182.864 23.9923C183.273 23.9923 183.567 24.3455 183.567 24.6862V33.619C183.567 36.6093 185.281 39.5995 188.671 39.5995C193.429 39.5995 194.542 35.2088 194.542 30.3765V24.6862C194.542 24.2825 194.952 23.8787 195.451 24.0175C195.758 24.1184 195.962 24.4086 195.962 24.7241ZM231.702 30.9316V39.8645C231.702 40.2682 231.343 40.5584 230.998 40.5584C230.589 40.5584 230.295 40.2556 230.295 39.8645V30.9316C230.295 27.9414 228.581 25.0016 225.191 25.0016C220.944 25.0016 219.319 29.4933 219.319 32.9756V39.8519C219.319 40.2556 218.961 40.5458 218.616 40.5458C218.207 40.5458 217.912 40.243 217.912 39.8519V30.919C217.912 27.9288 216.198 24.989 212.809 24.989C208.511 24.989 206.745 28.3325 206.899 32.7737C206.899 32.8746 206.95 33.0765 206.899 33.127V39.8392C206.899 40.1799 206.669 40.4953 206.323 40.5458C205.85 40.6215 205.479 40.3061 205.479 39.8645V24.6105C205.479 24.2698 205.709 23.9544 206.055 23.9039C206.528 23.8282 206.899 24.1437 206.899 24.5853V27.1339C208.114 24.989 210.289 23.5885 212.809 23.5885C215.687 23.5885 217.912 25.3801 218.821 28.0297C219.985 25.4306 222.262 23.5885 225.191 23.5885C229.322 23.6012 231.702 27.1465 231.702 30.9316Z" fill="white"/>
</svg>
