<svg width="534" height="397" viewBox="0 0 534 397" fill="none" xmlns="http://www.w3.org/2000/svg">
<path d="M315.679 155.626L317.907 156.913L342.731 113.919L340.503 112.632L315.679 155.626Z" fill="#F7F7F7"/>
<path d="M364.815 152.191H315.169V154.764H364.815V152.191Z" fill="#F7F7F7"/>
<path d="M316.151 153.637L340.984 167.974L342.27 165.746L317.438 151.408L316.151 153.637Z" fill="#F7F7F7"/>
<path d="M337.723 116.269L362.556 130.607L363.842 128.378L339.01 114.041L337.723 116.269Z" fill="#F7F7F7"/>
<path d="M316.158 128.369L317.445 130.597L342.277 116.259L340.991 114.031L316.158 128.369Z" fill="#F7F7F7"/>
<path d="M337.275 113.919L362.098 156.913L364.326 155.627L339.503 112.633L337.275 113.919Z" fill="#F7F7F7"/>
<path d="M319.71 126.663H317.137V155.338H319.71V126.663Z" fill="#F7F7F7"/>
<path d="M362.862 126.663H360.289V155.338H362.862V126.663Z" fill="#F7F7F7"/>
<path d="M339.422 164.939L340.546 166.885L362.144 154.415L361.02 152.469L339.422 164.939Z" fill="#F7F7F7"/>
<path d="M366.272 156.175C364.784 158.763 361.467 159.647 358.879 158.159C356.29 156.671 355.407 153.354 356.895 150.765C358.383 148.177 361.7 147.293 364.288 148.781C366.892 150.285 367.776 153.586 366.272 156.175Z" fill="#F7F7F7"/>
<path d="M323.089 131.235C321.601 133.824 318.284 134.707 315.696 133.219C313.107 131.731 312.224 128.414 313.712 125.826C315.2 123.237 318.517 122.354 321.105 123.842C323.694 125.345 324.577 128.647 323.089 131.235Z" fill="#F7F7F7"/>
<path d="M313.727 156.175C312.239 153.586 313.123 150.285 315.711 148.781C318.3 147.293 321.601 148.177 323.105 150.765C324.593 153.354 323.709 156.655 321.121 158.159C318.517 159.647 315.215 158.763 313.727 156.175Z" fill="#F7F7F7"/>
<path d="M356.91 131.235C355.422 128.647 356.306 125.345 358.894 123.842C361.483 122.354 364.784 123.237 366.288 125.826C367.776 128.414 366.892 131.716 364.304 133.219C361.715 134.707 358.398 133.824 356.91 131.235Z" fill="#F7F7F7"/>
<path d="M340 171.349C337.008 171.349 334.59 168.931 334.59 165.94C334.59 162.948 337.008 160.53 340 160.53C342.991 160.53 345.409 162.948 345.409 165.94C345.409 168.916 342.991 171.349 340 171.349Z" fill="#F7F7F7"/>
<path d="M340 121.47C337.008 121.47 334.59 119.052 334.59 116.061C334.59 113.069 337.008 110.651 340 110.651C342.991 110.651 345.409 113.069 345.409 116.061C345.409 119.052 342.991 121.47 340 121.47Z" fill="#F7F7F7"/>
<path d="M399.081 151.508H398.937C398.721 152.036 398.457 152.54 398.145 153.02C397.833 153.476 397.449 153.884 396.993 154.244C396.537 154.604 395.973 154.892 395.301 155.108C394.653 155.324 393.885 155.432 392.997 155.432C390.261 155.432 388.197 154.364 386.805 152.228C385.413 150.092 384.717 146.864 384.717 142.544C384.717 138.104 385.449 134.816 386.913 132.68C388.401 130.52 390.609 129.44 393.537 129.44C394.569 129.44 395.493 129.584 396.309 129.872C397.125 130.16 397.833 130.544 398.433 131.024C399.033 131.504 399.537 132.068 399.945 132.716C400.377 133.364 400.725 134.048 400.989 134.768L399.117 135.596C398.661 134.372 398.001 133.352 397.137 132.536C396.297 131.72 395.121 131.312 393.609 131.312C391.377 131.312 389.721 132.14 388.641 133.796C387.561 135.428 387.021 137.744 387.021 140.744V144.02C387.021 146.996 387.525 149.336 388.533 151.04C389.565 152.744 391.197 153.596 393.429 153.596C394.317 153.596 395.109 153.452 395.805 153.164C396.501 152.876 397.089 152.468 397.569 151.94C398.049 151.412 398.421 150.8 398.685 150.104C398.949 149.384 399.081 148.592 399.081 147.728V144.74H393.357V143.012H401.097V155H399.081V151.508ZM406.843 153.236H412.675V138.188H406.843V136.424H414.727V140.672H414.871C415.279 139.376 415.975 138.344 416.959 137.576C417.967 136.808 419.287 136.424 420.919 136.424H424.123V138.44H420.307C418.627 138.44 417.271 138.944 416.239 139.952C415.231 140.936 414.727 142.268 414.727 143.948V153.236H422.287V155H406.843V153.236ZM442.865 155C442.025 155 441.425 154.796 441.065 154.388C440.705 153.98 440.501 153.428 440.453 152.732V152.084H440.273C439.865 153.068 439.193 153.872 438.257 154.496C437.321 155.12 436.049 155.432 434.441 155.432C432.497 155.432 430.961 154.964 429.833 154.028C428.729 153.068 428.177 151.724 428.177 149.996C428.177 149.18 428.309 148.448 428.573 147.8C428.861 147.128 429.305 146.564 429.905 146.108C430.529 145.652 431.321 145.304 432.281 145.064C433.241 144.8 434.417 144.668 435.809 144.668H440.345V142.4C440.345 140.84 439.913 139.676 439.049 138.908C438.209 138.14 437.033 137.756 435.521 137.756C432.977 137.756 431.201 138.776 430.193 140.816L428.789 139.808C429.269 138.728 430.073 137.828 431.201 137.108C432.353 136.364 433.829 135.992 435.629 135.992C437.741 135.992 439.397 136.544 440.597 137.648C441.797 138.728 442.397 140.24 442.397 142.184V153.2H445.169V155H442.865ZM434.765 153.704C435.557 153.704 436.289 153.608 436.961 153.416C437.633 153.224 438.221 152.96 438.725 152.624C439.229 152.264 439.625 151.832 439.913 151.328C440.201 150.824 440.345 150.26 440.345 149.636V146.216H435.809C433.865 146.216 432.461 146.516 431.597 147.116C430.757 147.692 430.337 148.484 430.337 149.492V150.428C430.337 151.508 430.733 152.324 431.525 152.876C432.341 153.428 433.421 153.704 434.765 153.704ZM451.059 136.424H453.111V139.376H453.219C453.747 138.368 454.479 137.552 455.415 136.928C456.375 136.304 457.563 135.992 458.979 135.992C461.307 135.992 463.119 136.832 464.415 138.512C465.711 140.168 466.359 142.568 466.359 145.712C466.359 148.856 465.711 151.268 464.415 152.948C463.119 154.604 461.307 155.432 458.979 155.432C457.563 155.432 456.375 155.12 455.415 154.496C454.479 153.872 453.747 153.056 453.219 152.048H453.111V162.2H451.059V136.424ZM458.295 153.596C460.167 153.596 461.607 153.008 462.615 151.832C463.647 150.656 464.163 149.048 464.163 147.008V144.416C464.163 142.376 463.647 140.768 462.615 139.592C461.607 138.416 460.167 137.828 458.295 137.828C457.599 137.828 456.939 137.924 456.315 138.116C455.691 138.308 455.139 138.584 454.659 138.944C454.179 139.304 453.795 139.748 453.507 140.276C453.243 140.804 453.111 141.392 453.111 142.04V149.384C453.111 150.032 453.243 150.62 453.507 151.148C453.795 151.676 454.179 152.12 454.659 152.48C455.139 152.84 455.691 153.116 456.315 153.308C456.939 153.5 457.599 153.596 458.295 153.596ZM472.717 128.36H474.769V139.304H474.913C475.273 138.44 475.873 137.672 476.713 137C477.577 136.328 478.789 135.992 480.349 135.992C482.365 135.992 483.925 136.604 485.029 137.828C486.157 139.028 486.721 140.756 486.721 143.012V155H484.669V143.372C484.669 141.452 484.249 140.048 483.409 139.16C482.593 138.272 481.393 137.828 479.809 137.828C479.161 137.828 478.537 137.912 477.937 138.08C477.337 138.248 476.797 138.5 476.317 138.836C475.861 139.172 475.489 139.604 475.201 140.132C474.913 140.636 474.769 141.236 474.769 141.932V155H472.717V128.36ZM507.839 160.508H503.087C502.079 160.508 501.335 160.232 500.855 159.68C500.375 159.152 500.135 158.432 500.135 157.52V155.36C495.119 154.856 492.611 150.548 492.611 142.436C492.611 138.116 493.307 134.876 494.699 132.716C496.115 130.532 498.275 129.44 501.179 129.44C504.083 129.44 506.231 130.532 507.623 132.716C509.039 134.876 509.747 138.116 509.747 142.436C509.747 150.548 507.239 154.856 502.223 155.36V158.744H507.839V160.508ZM501.179 153.56C503.339 153.56 504.923 152.744 505.931 151.112C506.939 149.456 507.443 147.128 507.443 144.128V140.744C507.443 137.768 506.939 135.452 505.931 133.796C504.923 132.14 503.339 131.312 501.179 131.312C499.019 131.312 497.435 132.14 496.427 133.796C495.419 135.452 494.915 137.768 494.915 140.744V144.128C494.915 147.128 495.419 149.456 496.427 151.112C497.435 152.744 499.019 153.56 501.179 153.56ZM516.645 155V129.872H518.805V153.128H531.117V155H516.645Z" fill="#F7F7F7"/>
<path d="M43.8423 0H92.9673V49.2446H43.8423V0ZM87.8583 44.1232V5.12144H48.9513V44.1232H87.8583ZM53.3725 12.7051V27.577C53.3725 34.3728 57.106 38.4108 63.394 38.4108C69.8785 38.4108 73.612 34.3728 73.612 27.577V12.7051H68.503V27.577C68.503 31.4181 66.8328 33.5848 63.4923 33.5848C59.9553 33.5848 58.3833 31.3196 58.3833 27.577V12.7051H53.3725ZM80.1948 15.7583C81.9633 15.7583 83.3388 14.4779 83.3388 12.7051C83.3388 10.8338 82.0616 9.55346 80.1948 9.55346C78.4263 9.55346 77.0508 10.8338 77.0508 12.7051C77.0508 14.4779 78.4263 15.7583 80.1948 15.7583ZM77.6403 18.122V38.1154H82.7493V18.122H77.6403ZM108.098 29.9407C113.6 29.9407 117.235 26.6906 117.235 21.2737C117.235 16.0538 113.698 12.7051 108.098 12.7051H98.4693V38.2138H103.578V30.0392H108.098V29.9407ZM107.508 25.9027H103.48V16.8417H107.508C110.456 16.8417 112.028 18.516 112.028 21.2737C112.028 24.2284 110.456 25.9027 107.508 25.9027ZM118.905 28.1679C118.905 34.1758 122.737 38.4108 128.141 38.4108C131.383 38.4108 133.446 37.2289 134.625 35.3577V38.2138H139.734V18.122H134.625V21.2737C133.348 19.2054 131.285 17.925 128.141 17.925C122.639 17.925 118.905 22.2586 118.905 28.1679ZM134.625 28.1679C134.625 31.6151 132.464 33.8803 129.32 33.8803C125.881 33.8803 124.113 31.4181 124.113 28.1679C124.113 24.6223 126.078 22.3571 129.32 22.3571C132.562 22.3571 134.625 24.7208 134.625 28.1679ZM152.507 33.7818C150.542 33.7818 150.051 32.8954 150.051 31.1226V22.4556H154.472V18.122H150.051V12.6066H144.942V18.122H142.584V22.4556H144.942V31.1226C144.942 35.8501 147.005 38.1154 151.917 38.1154H154.57V33.7818H152.507ZM162.43 20.9782V11.5232H157.321V38.2138H162.43V27.577C162.43 24.1299 164.199 22.0616 167.244 22.0616C170.192 22.0616 171.764 24.0314 171.764 27.0846V38.1154H176.873V26.5921C176.873 21.3722 173.139 17.925 168.423 17.925C165.476 17.925 163.609 19.0084 162.43 20.9782ZM176.48 11.4248V12.2127H178.15V17.3341H179.133V12.2127H180.705V11.4248H176.48ZM187.091 11.4248L185.028 16.1522L183.063 11.4248H181.884V17.3341H182.768V12.8036L184.733 17.3341H185.421L187.287 12.8036V17.3341H188.172V11.4248H187.091Z" fill="white"/>
<path fill-rule="evenodd" clip-rule="evenodd" d="M379.876 231.61C382.668 228.702 386.557 226.896 390.857 226.896C396.572 226.896 401.56 230.084 404.215 234.816C406.591 233.755 409.165 233.207 411.767 233.211C422.076 233.211 430.432 241.641 430.432 252.042C430.432 262.443 422.076 270.873 411.767 270.873C410.506 270.873 409.277 270.747 408.089 270.508C405.75 274.677 401.292 277.496 396.177 277.496C394.036 277.496 392.01 277.003 390.208 276.122C387.837 281.7 382.313 285.609 375.876 285.609C369.173 285.609 363.459 281.366 361.266 275.418C360.29 275.624 359.294 275.728 358.296 275.728C350.313 275.729 343.842 269.19 343.842 261.125C343.836 258.569 344.5 256.056 345.768 253.836C347.036 251.617 348.864 249.768 351.069 248.475C350.154 246.368 349.684 244.094 349.686 241.796C349.686 232.519 357.216 225 366.504 225C369.092 224.997 371.645 225.592 373.965 226.739C376.284 227.885 378.307 229.553 379.876 231.61Z" fill="white"/>
<path fill-rule="evenodd" clip-rule="evenodd" d="M356.384 256.431L356.735 255.459C356.79 255.292 356.916 255.347 356.968 255.378C357.065 255.436 357.135 255.488 357.261 255.562C358.293 256.214 359.25 256.221 359.548 256.221C360.321 256.221 360.8 255.812 360.8 255.26V255.231C360.8 254.631 360.061 254.404 359.208 254.142L359.019 254.082C357.847 253.748 356.594 253.266 356.594 251.783V251.753C356.594 250.346 357.73 249.364 359.355 249.364L359.533 249.362C360.488 249.362 361.41 249.639 362.079 250.045C362.139 250.082 362.198 250.153 362.164 250.245L361.804 251.218C361.741 251.384 361.567 251.274 361.567 251.274C360.87 250.91 360.098 250.712 359.311 250.695C358.622 250.695 358.179 251.061 358.179 251.557V251.588C358.179 252.167 358.938 252.414 359.819 252.701L359.971 252.748C361.138 253.118 362.384 253.629 362.384 255.035V255.065C362.384 256.585 361.28 257.529 359.505 257.529C358.632 257.529 357.798 257.394 356.916 256.926C356.749 256.829 356.584 256.746 356.421 256.627C356.404 256.603 356.329 256.573 356.383 256.431H356.384ZM382.386 256.431L382.738 255.459C382.789 255.3 382.938 255.358 382.97 255.378C383.066 255.438 383.138 255.488 383.263 255.562C384.297 256.214 385.252 256.221 385.553 256.221C386.323 256.221 386.803 255.812 386.803 255.26V255.231C386.803 254.631 386.065 254.404 385.212 254.142L385.023 254.082C383.849 253.748 382.597 253.266 382.597 251.783V251.753C382.597 250.346 383.733 249.364 385.358 249.364L385.535 249.362C386.49 249.362 387.413 249.639 388.083 250.045C388.141 250.082 388.201 250.153 388.168 250.245C388.135 250.332 387.839 251.127 387.808 251.218C387.743 251.384 387.571 251.274 387.571 251.274C386.873 250.91 386.101 250.712 385.315 250.695C384.625 250.695 384.182 251.061 384.182 251.557V251.588C384.182 252.167 384.94 252.414 385.822 252.701L385.974 252.748C387.141 253.118 388.387 253.629 388.387 255.035V255.065C388.387 256.585 387.283 257.529 385.508 257.529C384.635 257.529 383.8 257.394 382.919 256.926C382.752 256.829 382.587 256.746 382.423 256.627C382.406 256.603 382.331 256.573 382.386 256.431ZM401.62 251.858C401.766 252.347 401.838 252.884 401.838 253.451C401.838 254.019 401.766 254.554 401.62 255.043C401.487 255.514 401.258 255.953 400.948 256.332C400.637 256.7 400.247 256.993 399.808 257.19C399.353 257.398 398.819 257.502 398.218 257.502C397.618 257.502 397.082 257.398 396.629 257.19C396.19 256.993 395.8 256.7 395.489 256.332C395.179 255.953 394.95 255.515 394.816 255.044C394.667 254.526 394.594 253.99 394.598 253.451C394.598 252.883 394.671 252.347 394.816 251.858C394.962 251.366 395.188 250.932 395.488 250.57C395.8 250.201 396.19 249.905 396.629 249.705C397.083 249.493 397.616 249.385 398.218 249.385C398.821 249.385 399.354 249.493 399.808 249.705C400.26 249.916 400.645 250.207 400.948 250.57C401.249 250.932 401.476 251.366 401.62 251.858ZM400.139 253.451C400.139 252.592 399.98 251.917 399.664 251.443C399.351 250.974 398.878 250.746 398.218 250.746C397.559 250.746 397.09 250.974 396.781 251.443C396.471 251.917 396.313 252.592 396.313 253.451C396.313 254.309 396.471 254.989 396.783 255.466C397.09 255.942 397.559 256.172 398.218 256.172C398.878 256.172 399.351 255.941 399.664 255.466C399.978 254.989 400.139 254.309 400.139 253.451ZM413.797 255.942L414.16 256.947C414.208 257.07 414.101 257.124 414.101 257.124C413.539 257.342 412.76 257.498 412.001 257.498C410.715 257.498 409.73 257.127 409.073 256.396C408.42 255.667 408.086 254.676 408.086 253.445C408.086 252.876 408.169 252.337 408.33 251.85C408.491 251.357 408.732 250.923 409.05 250.562C409.381 250.19 409.788 249.894 410.245 249.696C410.718 249.485 411.275 249.379 411.896 249.379C412.316 249.379 412.689 249.404 413.009 249.452C413.351 249.505 413.806 249.628 413.999 249.703C414.034 249.716 414.131 249.763 414.091 249.878C413.951 250.273 413.856 250.53 413.726 250.89C413.669 251.044 413.553 250.993 413.553 250.993C413.066 250.839 412.598 250.769 411.987 250.769C411.253 250.769 410.702 251.013 410.342 251.492C409.978 251.974 409.775 252.605 409.772 253.445C409.769 254.367 410 255.05 410.409 255.472C410.818 255.893 411.388 256.106 412.105 256.106C412.396 256.106 412.671 256.087 412.918 256.049C413.162 256.01 413.392 255.934 413.607 255.85C413.607 255.85 413.747 255.798 413.797 255.942ZM421.382 251.579C421.705 252.71 421.537 253.686 421.531 253.74C421.519 253.869 421.386 253.871 421.386 253.871L416.368 253.867C416.399 254.629 416.582 255.169 416.951 255.535C417.314 255.894 417.89 256.124 418.669 256.125C419.861 256.128 420.369 255.889 420.73 255.755C420.73 255.755 420.867 255.706 420.919 255.842L421.246 256.762C421.312 256.916 421.259 256.97 421.203 257.001C420.889 257.175 420.127 257.499 418.676 257.502C417.972 257.505 417.36 257.405 416.855 257.209C416.375 257.031 415.943 256.745 415.592 256.373C415.257 256.007 415.008 255.571 414.864 255.097C414.709 254.577 414.632 254.037 414.638 253.495C414.638 252.926 414.711 252.387 414.857 251.893C415.004 251.396 415.233 250.958 415.537 250.589C415.852 250.213 416.247 249.912 416.693 249.708C417.153 249.492 417.723 249.385 418.35 249.385C418.887 249.385 419.378 249.501 419.786 249.677C420.1 249.812 420.416 250.055 420.74 250.404C420.945 250.623 421.256 251.104 421.382 251.579ZM416.392 252.627H419.971C419.934 252.167 419.844 251.754 419.638 251.443C419.324 250.974 418.89 250.715 418.232 250.715C417.573 250.715 417.105 250.974 416.795 251.443C416.592 251.754 416.462 252.15 416.391 252.627H416.392ZM381.186 251.579C381.508 252.71 381.343 253.686 381.337 253.74C381.324 253.869 381.191 253.871 381.191 253.871L376.172 253.867C376.204 254.629 376.386 255.169 376.756 255.535C377.119 255.894 377.694 256.124 378.473 256.125C379.665 256.128 380.175 255.889 380.535 255.755C380.535 255.755 380.672 255.706 380.723 255.842L381.051 256.762C381.117 256.916 381.064 256.97 381.009 257.001C380.693 257.175 379.93 257.499 378.481 257.502C377.776 257.505 377.164 257.405 376.66 257.209C376.18 257.031 375.748 256.745 375.396 256.373C375.062 256.007 374.814 255.571 374.67 255.097C374.514 254.577 374.437 254.037 374.442 253.495C374.442 252.926 374.516 252.387 374.662 251.893C374.798 251.417 375.029 250.974 375.342 250.589C375.657 250.213 376.051 249.913 376.497 249.708C376.959 249.492 377.529 249.385 378.154 249.385C378.648 249.384 379.137 249.484 379.592 249.677C379.906 249.812 380.222 250.055 380.545 250.404C380.75 250.623 381.061 251.104 381.186 251.579ZM376.195 252.627H379.776C379.738 252.167 379.649 251.754 379.443 251.443C379.131 250.974 378.695 250.715 378.037 250.715C377.378 250.715 376.909 250.974 376.601 251.443C376.396 251.754 376.267 252.15 376.194 252.627H376.195ZM367.344 252.388C367.344 252.388 367.74 252.423 368.172 252.485V252.273C368.172 251.603 368.032 251.288 367.759 251.077C367.478 250.863 367.06 250.752 366.518 250.752C366.518 250.752 365.297 250.737 364.331 251.262C364.286 251.288 364.249 251.303 364.249 251.303C364.249 251.303 364.128 251.346 364.084 251.222L363.729 250.267C363.674 250.13 363.774 250.067 363.774 250.067C364.225 249.715 365.32 249.502 365.32 249.502C365.765 249.424 366.215 249.382 366.666 249.378C367.668 249.378 368.443 249.611 368.971 250.072C369.499 250.535 369.768 251.281 369.768 252.287L369.771 256.878C369.771 256.878 369.782 257.011 369.656 257.041C369.656 257.041 369.471 257.092 369.305 257.131C369.138 257.17 368.533 257.293 368.04 257.376C367.536 257.461 367.026 257.503 366.515 257.503C366.028 257.503 365.581 257.458 365.187 257.368C364.82 257.291 364.472 257.14 364.165 256.925C363.885 256.721 363.66 256.452 363.511 256.14C363.357 255.824 363.279 255.439 363.279 254.994C363.279 254.557 363.371 254.168 363.548 253.836C363.726 253.507 363.971 253.228 364.278 253.009C364.595 252.786 364.949 252.621 365.324 252.523C365.715 252.419 366.131 252.365 366.561 252.365C366.876 252.365 367.139 252.371 367.344 252.388ZM365.347 255.914C365.344 255.913 365.797 256.269 366.818 256.207C367.536 256.163 368.173 256.027 368.173 256.027V253.745C368.173 253.745 367.531 253.639 366.81 253.629C365.788 253.617 365.352 253.993 365.355 253.992C365.054 254.206 364.907 254.523 364.907 254.962C364.907 255.244 364.958 255.463 365.059 255.617C365.122 255.718 365.15 255.756 365.347 255.914ZM407.825 249.801C407.778 249.939 407.534 250.626 407.446 250.854C407.414 250.941 407.361 251.001 407.263 250.991C407.263 250.991 406.976 250.924 406.712 250.924C406.531 250.924 406.273 250.947 406.04 251.019C405.806 251.091 405.594 251.219 405.421 251.391C405.237 251.568 405.088 251.817 404.98 252.13C404.87 252.444 404.813 252.944 404.813 253.446V257.185C404.814 257.205 404.81 257.225 404.802 257.243C404.795 257.262 404.784 257.279 404.769 257.293C404.755 257.307 404.739 257.318 404.72 257.326C404.702 257.334 404.682 257.338 404.662 257.338H403.345C403.325 257.338 403.305 257.334 403.286 257.327C403.267 257.319 403.25 257.308 403.236 257.294C403.221 257.28 403.21 257.263 403.202 257.245C403.194 257.226 403.19 257.206 403.189 257.186V249.7C403.189 249.616 403.251 249.548 403.335 249.548H404.62C404.706 249.548 404.766 249.616 404.766 249.7V250.312C404.958 250.054 405.303 249.827 405.615 249.687C405.927 249.545 406.277 249.44 406.908 249.478C407.237 249.498 407.664 249.588 407.75 249.621C407.767 249.628 407.782 249.638 407.795 249.651C407.808 249.664 407.818 249.679 407.825 249.696C407.832 249.712 407.836 249.73 407.836 249.748C407.836 249.767 407.832 249.785 407.825 249.801ZM395.448 246.332C395.483 246.347 395.578 246.393 395.54 246.507L395.155 247.561C395.123 247.64 395.102 247.688 394.938 247.638C394.721 247.57 394.496 247.535 394.269 247.534C394.07 247.534 393.89 247.56 393.731 247.613C393.571 247.664 393.427 247.753 393.31 247.872C393.155 248.023 393.034 248.206 392.958 248.408C392.773 248.939 392.702 249.504 392.693 249.54H394.297C394.432 249.54 394.475 249.602 394.462 249.702L394.274 250.745C394.244 250.897 394.107 250.891 394.107 250.891H392.453L391.323 257.289C391.226 257.863 391.078 258.427 390.882 258.975C390.705 259.438 390.522 259.776 390.229 260.099C389.978 260.388 389.659 260.61 389.301 260.745C388.954 260.873 388.532 260.938 388.07 260.938C387.851 260.938 387.614 260.933 387.334 260.867C387.179 260.832 387.025 260.787 386.875 260.733C386.814 260.711 386.763 260.632 386.799 260.532C386.834 260.432 387.131 259.619 387.171 259.512C387.222 259.383 387.352 259.432 387.352 259.432C387.441 259.47 387.504 259.495 387.622 259.519C387.743 259.542 387.904 259.563 388.026 259.563C388.245 259.563 388.443 259.537 388.617 259.478C388.825 259.411 388.948 259.288 389.075 259.126C389.208 258.954 389.316 258.722 389.426 258.411C389.537 258.095 389.639 257.678 389.726 257.174L390.851 250.892H389.743C389.61 250.892 389.565 250.83 389.58 250.729L389.765 249.686C389.795 249.534 389.936 249.54 389.936 249.54H391.073L391.135 249.201C391.305 248.193 391.643 247.427 392.143 246.924C392.646 246.418 393.361 246.162 394.269 246.162C394.528 246.162 394.757 246.179 394.951 246.214C395.142 246.25 395.287 246.283 395.448 246.332ZM373.026 257.185C373.026 257.27 372.967 257.338 372.882 257.338H371.552C371.466 257.338 371.409 257.269 371.409 257.186V246.472C371.409 246.39 371.467 246.322 371.551 246.322H372.882C372.967 246.322 373.026 246.39 373.026 246.473V257.185Z" fill="#0A0404"/>
<path d="M334.92 394.447C342.44 393.102 348.651 391.989 348.723 391.974L348.852 391.946L341.753 383.397C337.848 378.695 334.653 374.829 334.653 374.807C334.653 374.765 341.984 354.327 342.025 354.254C342.039 354.229 347.028 362.95 354.119 375.392C360.757 387.04 366.23 396.645 366.281 396.735L366.374 396.898L343.811 396.895L321.248 396.892L334.92 394.447V394.447ZM421.447 392.38C418.012 392.157 416.015 390.177 415.485 386.471C415.345 385.485 415.344 385.459 415.33 379.059L415.316 372.865H416.836H418.356L418.368 378.856C418.379 384.256 418.385 384.889 418.436 385.269C418.643 386.811 419.055 387.848 419.757 388.592C420.318 389.187 420.975 389.536 421.885 389.721C422.314 389.808 423.535 389.809 423.927 389.721C424.849 389.516 425.588 389.11 426.24 388.45C426.983 387.698 427.533 386.63 427.799 385.424L427.889 385.017L427.899 378.975L427.909 372.932H429.461H431.013V382.431V391.929H429.477H427.941V390.422C427.941 389.398 427.93 388.919 427.906 388.927C427.887 388.933 427.809 389.056 427.731 389.199C427.202 390.176 426.32 391.069 425.354 391.608C424.196 392.253 423.034 392.483 421.447 392.38L421.447 392.38ZM456.308 392.364C455.095 392.272 453.819 391.85 452.775 391.197C450.576 389.819 449.275 387.549 448.894 384.425C448.762 383.344 448.746 381.892 448.856 380.973C449.102 378.921 449.899 376.906 451.033 375.467C451.324 375.099 451.984 374.431 452.348 374.136C453.332 373.341 454.482 372.785 455.704 372.515C456.415 372.357 457.669 372.283 458.425 372.354C460.324 372.532 462.065 373.438 463.248 374.863C464.451 376.311 465.111 378.334 465.196 380.825C465.209 381.216 465.212 381.9 465.203 382.346L465.186 383.158L458.533 383.166L451.881 383.175V383.475C451.881 384.39 452.1 385.432 452.48 386.319C452.808 387.084 453.372 387.918 453.833 388.322C454.78 389.151 455.938 389.647 457.206 389.766C457.676 389.81 458.874 389.764 459.41 389.681C460.938 389.443 462.391 388.836 463.564 387.945C463.702 387.84 463.834 387.743 463.858 387.728C463.892 387.706 463.9 387.98 463.899 389.131L463.898 390.56L463.584 390.757C462.257 391.588 460.736 392.122 459.126 392.322C458.645 392.381 456.882 392.408 456.308 392.364L456.308 392.364ZM462.097 380.305C462.097 378.772 461.46 377.07 460.557 376.193C459.912 375.567 459.134 375.185 458.208 375.04C457.77 374.971 456.846 374.997 456.385 375.092C455.408 375.292 454.601 375.726 453.896 376.431C453.155 377.172 452.599 378.073 452.25 379.099C452.124 379.468 451.977 380.074 451.932 380.411L451.91 380.572H457.004H462.097V380.305ZM371.855 391.887C371.863 391.864 374.122 385.855 376.875 378.535L381.881 365.225L383.49 365.225L385.098 365.225L385.232 365.572C385.64 366.631 395.254 391.901 395.254 391.914C395.254 391.922 394.484 391.929 393.542 391.929L391.831 391.929L390.446 388.194L389.06 384.459L383.481 384.459L377.902 384.459L377.853 384.586C377.826 384.655 377.234 386.336 376.538 388.32L375.271 391.928L373.556 391.929C372.198 391.929 371.844 391.92 371.855 391.887V391.887ZM388.042 381.609C388.042 381.603 387.109 379.044 385.969 375.921C383.837 370.081 383.718 369.729 383.55 368.791C383.471 368.352 383.431 368.339 383.384 368.741C383.35 369.027 383.205 369.669 383.093 370.025C383.037 370.202 382.077 372.87 380.959 375.954C379.841 379.038 378.927 381.575 378.927 381.591C378.927 381.607 380.977 381.62 383.484 381.62C385.991 381.62 388.042 381.615 388.042 381.609V381.609ZM396.289 391.443V390.957L401.847 383.22L407.406 375.484L402.373 375.467L397.34 375.451L397.332 374.158L397.323 372.865H404.602H411.881V373.301V373.738L406.322 381.516C403.264 385.794 400.763 389.302 400.763 389.311C400.763 389.319 403.234 389.327 406.255 389.327H411.748V390.628V391.929H404.018H396.289V391.443ZM437.078 391.907C437.066 391.894 437.056 387.605 437.056 382.374V372.865H438.575H440.094V374.825C440.094 375.903 440.107 376.786 440.123 376.786C440.139 376.786 440.213 376.609 440.288 376.394C440.629 375.405 441.221 374.481 441.985 373.747C442.672 373.086 443.458 372.69 444.385 372.539C444.645 372.496 444.866 372.488 445.387 372.502C446.041 372.519 446.383 372.568 446.78 372.699L446.906 372.741V374.337V375.934L446.547 375.752C445.913 375.43 445.287 375.303 444.535 375.343C444.046 375.369 443.724 375.432 443.333 375.581C442.528 375.887 441.875 376.427 441.419 377.164C440.758 378.231 440.287 379.602 440.148 380.863C440.123 381.089 440.108 382.931 440.102 386.563L440.094 391.929H438.597C437.774 391.929 437.091 391.919 437.078 391.907ZM307.842 391.84C307.842 391.828 311.188 385.949 315.276 378.775L322.71 365.732L331.374 358.372C336.138 354.323 340.05 351.006 340.066 351C340.081 350.994 340.019 351.154 339.926 351.355C339.834 351.556 335.601 360.749 330.519 371.783L321.28 391.845L314.561 391.853C310.866 391.858 307.842 391.852 307.842 391.84V391.84Z" fill="white"/>
<path d="M96.7087 247.707C96.7087 248.824 96.8308 249.729 97.0445 250.393C97.2888 251.057 97.594 251.781 98.0214 252.566C98.1741 252.808 98.2351 253.049 98.2351 253.26C98.2351 253.562 98.052 253.864 97.6551 254.166L95.7318 255.433C95.457 255.614 95.1823 255.705 94.9381 255.705C94.6328 255.705 94.3275 255.554 94.0222 255.282C93.5948 254.83 93.2284 254.347 92.9232 253.864C92.6179 253.351 92.3126 252.777 91.9768 252.083C89.5955 254.86 86.6037 256.248 83.0013 256.248C80.4369 256.248 78.3915 255.524 76.8956 254.075C75.3997 252.626 74.6365 250.695 74.6365 248.281C74.6365 245.715 75.5523 243.633 77.4146 242.064C79.2768 240.494 81.7497 239.71 84.8941 239.71C85.9321 239.71 87.0006 239.8 88.1302 239.951C89.2597 240.102 90.4198 240.343 91.641 240.615V238.412C91.641 236.118 91.1525 234.519 90.2061 233.583C89.2292 232.648 87.5806 232.195 85.2299 232.195C84.1614 232.195 83.0624 232.316 81.9328 232.587C80.8033 232.859 79.7042 233.191 78.6357 233.613C78.1473 233.825 77.7809 233.945 77.5672 234.006C77.3535 234.066 77.2009 234.096 77.0788 234.096C76.6514 234.096 76.4377 233.794 76.4377 233.161V231.682C76.4377 231.199 76.4987 230.837 76.6514 230.626C76.804 230.414 77.0788 230.203 77.5062 229.992C78.5747 229.449 79.8569 228.996 81.3528 228.634C82.8487 228.241 84.4362 228.06 86.1153 228.06C89.7482 228.06 92.4042 228.875 94.1138 230.505C95.7929 232.135 96.6477 234.609 96.6477 237.929V247.707H96.7087ZM84.3141 252.295C85.3215 252.295 86.3595 252.113 87.4585 251.751C88.5576 251.389 89.5345 250.725 90.3587 249.82C90.8472 249.246 91.2136 248.613 91.3967 247.888C91.5799 247.164 91.702 246.289 91.702 245.263V243.995C90.8167 243.784 89.8703 243.603 88.8934 243.482C87.9165 243.361 86.9701 243.301 86.0237 243.301C83.9783 243.301 82.4823 243.693 81.4749 244.508C80.4675 245.323 79.979 246.47 79.979 247.979C79.979 249.397 80.3453 250.454 81.1086 251.178C81.8412 251.932 82.9097 252.295 84.3141 252.295ZM108.829 255.554C108.279 255.554 107.913 255.463 107.669 255.252C107.424 255.071 107.211 254.649 107.027 254.075L99.8532 230.746C99.67 230.143 99.5784 229.75 99.5784 229.539C99.5784 229.056 99.8226 228.785 100.311 228.785H103.303C103.883 228.785 104.28 228.875 104.494 229.086C104.738 229.268 104.921 229.69 105.104 230.263L110.233 250.242L114.995 230.263C115.148 229.66 115.331 229.268 115.575 229.086C115.82 228.905 116.247 228.785 116.797 228.785H119.239C119.819 228.785 120.216 228.875 120.46 229.086C120.704 229.268 120.918 229.69 121.04 230.263L125.864 250.484L131.145 230.263C131.328 229.66 131.542 229.268 131.756 229.086C132 228.905 132.397 228.785 132.946 228.785H135.785C136.274 228.785 136.549 229.026 136.549 229.539C136.549 229.69 136.518 229.841 136.488 230.022C136.457 230.203 136.396 230.445 136.274 230.777L128.916 254.105C128.733 254.709 128.52 255.101 128.275 255.282C128.031 255.463 127.634 255.584 127.115 255.584H124.49C123.91 255.584 123.513 255.494 123.269 255.282C123.024 255.071 122.811 254.679 122.689 254.075L117.957 234.609L113.255 254.045C113.103 254.649 112.919 255.041 112.675 255.252C112.431 255.463 112.004 255.554 111.454 255.554H108.829ZM148.058 256.369C146.47 256.369 144.883 256.188 143.357 255.826C141.83 255.463 140.639 255.071 139.846 254.618C139.357 254.347 139.021 254.045 138.899 253.773C138.777 253.502 138.716 253.2 138.716 252.928V251.389C138.716 250.755 138.96 250.454 139.418 250.454C139.602 250.454 139.785 250.484 139.968 250.544C140.151 250.604 140.426 250.725 140.731 250.846C141.769 251.299 142.899 251.661 144.089 251.902C145.31 252.144 146.501 252.264 147.722 252.264C149.645 252.264 151.141 251.932 152.179 251.268C153.217 250.604 153.767 249.639 153.767 248.401C153.767 247.556 153.492 246.862 152.943 246.289C152.393 245.715 151.355 245.202 149.859 244.719L145.432 243.361C143.204 242.667 141.555 241.641 140.548 240.283C139.54 238.955 139.021 237.476 139.021 235.907C139.021 234.639 139.296 233.523 139.846 232.557C140.395 231.591 141.128 230.746 142.044 230.082C142.96 229.388 143.998 228.875 145.219 228.513C146.44 228.151 147.722 228 149.065 228C149.737 228 150.439 228.03 151.111 228.121C151.813 228.211 152.454 228.332 153.095 228.453C153.706 228.604 154.286 228.754 154.835 228.936C155.385 229.117 155.812 229.298 156.118 229.479C156.545 229.72 156.85 229.962 157.033 230.233C157.217 230.475 157.308 230.807 157.308 231.229V232.648C157.308 233.281 157.064 233.613 156.606 233.613C156.362 233.613 155.965 233.493 155.446 233.251C153.706 232.467 151.752 232.074 149.584 232.074C147.844 232.074 146.47 232.346 145.524 232.919C144.578 233.493 144.089 234.368 144.089 235.605C144.089 236.45 144.395 237.175 145.005 237.748C145.616 238.321 146.745 238.895 148.363 239.408L152.698 240.766C154.896 241.46 156.484 242.426 157.43 243.663C158.377 244.901 158.835 246.319 158.835 247.888C158.835 249.186 158.56 250.363 158.041 251.389C157.491 252.415 156.759 253.321 155.812 254.045C154.866 254.799 153.736 255.343 152.424 255.735C151.05 256.157 149.615 256.369 148.058 256.369Z" fill="white"/>
<path fill-rule="evenodd" clip-rule="evenodd" d="M153.829 271.036C143.785 278.369 129.192 282.262 116.645 282.262C99.0606 282.262 83.2162 275.834 71.2489 265.151C70.3025 264.306 71.1573 263.159 72.2869 263.823C85.2311 271.247 101.198 275.744 117.714 275.744C128.857 275.744 141.099 273.45 152.364 268.742C154.043 267.988 155.478 269.829 153.829 271.036Z" fill="white"/>
<path fill-rule="evenodd" clip-rule="evenodd" d="M158.011 266.328C156.729 264.698 149.524 265.544 146.258 265.936C145.281 266.057 145.128 265.212 146.013 264.578C151.753 260.594 161.186 261.741 162.285 263.069C163.384 264.427 161.98 273.752 156.607 278.219C155.783 278.913 154.989 278.551 155.355 277.646C156.576 274.658 159.293 267.928 158.011 266.328Z" fill="white"/>
<path fill-rule="evenodd" clip-rule="evenodd" d="M351.345 5C351.547 5 351.638 5.02017 351.754 5.09579C351.839 5.15125 351.945 5.28233 352.117 5.62011L352.162 29.2347L352.258 29.6027C352.313 29.7993 352.399 30.0615 352.449 30.1774C352.5 30.2984 352.611 30.5102 352.696 30.6513C352.787 30.7925 352.928 30.974 353.019 31.0597C353.11 31.1454 353.271 31.2614 353.377 31.3219C353.483 31.3874 353.689 31.4731 353.831 31.5235C353.972 31.5689 354.269 31.6294 354.491 31.6546C354.789 31.6899 355.025 31.6899 355.368 31.6596C355.63 31.6344 356.064 31.5639 356.331 31.5034C356.603 31.4429 357.007 31.3319 357.234 31.2664C357.541 31.1656 357.682 31.1454 357.834 31.1656C357.939 31.1807 358.091 31.2311 358.171 31.2866C358.252 31.337 358.363 31.4479 358.418 31.5286C358.474 31.6143 358.59 31.9672 358.686 32.3453C358.776 32.7083 358.867 33.1318 358.882 33.2881C358.907 33.5301 358.897 33.5905 358.807 33.7519C358.751 33.8577 358.625 33.9989 358.514 34.0745C358.408 34.1552 358.066 34.2964 357.723 34.4123C357.395 34.5232 356.961 34.6493 356.76 34.6997C356.563 34.7501 356.165 34.8308 355.883 34.8761C355.535 34.9366 355.096 34.9719 354.511 34.9921C353.982 35.0022 353.493 34.9921 353.231 34.9618C352.994 34.9366 352.616 34.8761 352.394 34.8257C352.172 34.7803 351.784 34.6745 351.537 34.5888C351.29 34.5081 350.932 34.3619 350.745 34.2661C350.559 34.1703 350.286 34.014 350.145 33.9082C350.004 33.8073 349.762 33.5956 349.611 33.4292C349.46 33.2679 349.258 33.0209 349.162 32.8797C349.071 32.7385 348.925 32.4663 348.834 32.2797C348.749 32.0932 348.628 31.7706 348.572 31.5739C348.512 31.3723 348.436 31.0244 348.396 30.8026C348.361 30.5757 348.31 30.122 348.285 29.7943C348.26 29.4061 348.24 25.267 348.24 18.103C348.24 8.67528 348.25 6.99645 348.3 6.89562C348.335 6.83008 348.492 6.65362 348.653 6.49734C348.814 6.34105 349.092 6.10914 349.268 5.97806C349.444 5.84698 349.742 5.65036 349.934 5.53944C350.12 5.43357 350.458 5.2672 350.68 5.17645C350.992 5.04537 351.149 5.00504 351.345 5ZM366.929 6.35617C367.024 6.3713 367.14 6.40155 367.186 6.42675C367.231 6.44692 367.327 6.5175 367.392 6.578C367.458 6.64354 367.539 6.78975 367.574 6.9057C367.624 7.0872 367.634 7.67706 367.634 14.1706L370.064 14.1806C372.162 14.1907 372.515 14.2008 372.646 14.2613C372.726 14.2966 372.842 14.3924 373.009 14.6243V15.7032C373.009 16.7317 373.004 16.7871 372.918 16.9031C372.867 16.9686 372.777 17.0594 372.711 17.1098C372.6 17.1904 372.52 17.1955 370.115 17.2056C367.786 17.2156 367.634 17.2207 367.634 17.2913C367.634 17.3316 367.604 19.8826 367.574 22.9579C367.528 26.85 367.523 28.6801 367.554 28.9775C367.579 29.2145 367.624 29.5321 367.66 29.6884C367.695 29.8396 367.765 30.0716 367.816 30.2026C367.866 30.3287 367.967 30.5354 368.043 30.6513C368.118 30.7673 368.28 30.9589 368.401 31.0698C368.522 31.1807 368.738 31.3319 368.89 31.4025C369.036 31.4731 369.298 31.5588 369.475 31.5991C369.651 31.6344 369.999 31.6647 370.246 31.6647C370.513 31.6647 370.921 31.6294 371.254 31.5689C371.557 31.5185 372.066 31.4025 372.378 31.3118C372.691 31.221 373.014 31.1454 373.104 31.1454C373.195 31.1454 373.341 31.1807 373.437 31.221C373.528 31.2664 373.659 31.3672 373.719 31.4479C373.785 31.5286 373.866 31.6798 373.901 31.7857C373.936 31.8916 374.012 32.1739 374.072 32.4058C374.133 32.6427 374.203 32.9654 374.224 33.1267C374.259 33.3233 374.259 33.4696 374.229 33.5855C374.203 33.6813 374.128 33.8225 374.062 33.8981C373.997 33.9737 373.825 34.0997 373.689 34.1703C373.548 34.2459 373.205 34.3871 372.923 34.4779C372.641 34.5736 372.187 34.6997 371.915 34.7602C371.647 34.8207 371.163 34.9013 370.846 34.9417C370.407 34.9921 370.049 35.0072 369.348 34.9871C368.769 34.977 368.285 34.9417 368.043 34.8963C367.831 34.856 367.473 34.7753 367.251 34.7148C367.024 34.6543 366.682 34.5384 366.48 34.4577C366.278 34.377 365.966 34.2157 365.779 34.1098C365.593 33.9989 365.305 33.7821 365.139 33.6309C364.972 33.4746 364.751 33.2376 364.645 33.0914C364.539 32.9503 364.367 32.6831 364.267 32.4915C364.166 32.305 364.035 32.0075 363.974 31.8311C363.914 31.6546 363.828 31.337 363.783 31.1202C363.737 30.9085 363.682 30.5808 363.652 30.3942C363.626 30.2077 363.596 29.4514 363.581 28.7204C363.566 27.939 363.596 25.4938 363.647 22.7865C363.697 20.2506 363.742 17.982 363.762 17.3013H362.477C361.227 17.3013 361.186 17.2963 361 17.2056C360.884 17.1451 360.773 17.0493 360.722 16.9585C360.642 16.8224 360.632 16.7165 360.622 15.8645C360.612 15.2494 360.627 14.8562 360.657 14.7302C360.687 14.6243 360.748 14.4781 360.798 14.4125C360.848 14.342 360.969 14.2512 361.065 14.2058C361.216 14.1403 361.378 14.1302 363.803 14.1302L363.833 13.2379C363.853 12.7488 363.878 11.5994 363.889 10.6768C363.904 9.75921 363.924 8.80636 363.959 8.10559L364.312 7.75772C364.504 7.57118 364.841 7.2939 365.068 7.14769C365.29 6.99645 365.638 6.79983 365.84 6.70404C366.036 6.60825 366.329 6.48725 366.48 6.4318C366.682 6.35617 366.808 6.33601 366.929 6.35617ZM331.673 12.9908C332.424 13.0009 333.115 13.0362 333.473 13.0765C333.791 13.1118 334.28 13.1824 334.562 13.2328C334.844 13.2832 335.202 13.3488 335.353 13.3841C335.51 13.4194 335.943 13.5353 336.316 13.6361C336.694 13.737 337.204 13.8882 337.451 13.9739C337.698 14.0546 338.076 14.1958 338.288 14.2865C338.499 14.3722 338.787 14.5235 338.928 14.6192C339.069 14.715 339.245 14.8814 339.316 14.9873C339.392 15.0932 339.472 15.2797 339.498 15.4057C339.538 15.5721 339.548 17.4778 339.548 22.9479C339.548 28.0146 339.563 30.3438 339.598 30.5203C339.624 30.6614 339.689 30.858 339.74 30.9488C339.8 31.0547 339.906 31.1555 340.007 31.2059C340.143 31.2815 340.249 31.2916 340.642 31.2866C340.98 31.2815 341.307 31.2412 341.796 31.1454C342.265 31.0496 342.543 31.0143 342.664 31.0294C342.764 31.0446 342.921 31.095 343.006 31.1404C343.097 31.1807 343.223 31.2815 343.289 31.3622C343.359 31.4429 343.44 31.5739 343.475 31.6596C343.506 31.7403 343.601 32.0781 343.687 32.4058C343.768 32.7385 343.848 33.1318 343.864 33.2881C343.884 33.4897 343.869 33.6158 343.823 33.7569C343.778 33.883 343.677 34.0191 343.546 34.135C343.43 34.2409 343.193 34.3922 343.017 34.4728C342.84 34.5585 342.533 34.6795 342.331 34.7451C342.134 34.8106 341.766 34.9013 341.519 34.9518C341.272 34.9971 340.869 35.0576 340.622 35.0828C340.309 35.1181 339.997 35.1181 339.614 35.0879C339.311 35.0627 338.903 35.0072 338.716 34.9618C338.53 34.9165 338.237 34.8308 338.076 34.7652C337.909 34.7047 337.708 34.614 337.622 34.5636C337.541 34.5131 337.36 34.3821 337.224 34.2762C337.083 34.1653 336.866 33.9435 336.735 33.7821C336.609 33.6158 336.442 33.3486 336.367 33.1923C336.291 33.036 336.216 32.9099 336.19 32.92C336.165 32.9251 335.984 33.0561 335.782 33.2074C335.585 33.3586 335.248 33.5905 335.036 33.7216C334.824 33.8527 334.456 34.0594 334.219 34.1754C333.987 34.2913 333.599 34.4627 333.362 34.5484C333.13 34.6392 332.722 34.7652 332.465 34.8308C332.207 34.8963 331.764 34.982 331.482 35.0223C331.144 35.0728 330.695 35.098 330.176 35.098C329.737 35.098 329.208 35.0728 328.996 35.0476C328.784 35.0173 328.431 34.9568 328.205 34.9114C327.983 34.8661 327.625 34.7703 327.413 34.6946C327.201 34.6241 326.833 34.4678 326.601 34.3468C326.364 34.2258 326.027 34.014 325.85 33.883C325.674 33.7519 325.396 33.4948 325.23 33.3183C325.064 33.1368 324.827 32.8242 324.696 32.6125C324.565 32.4058 324.388 32.063 324.302 31.8512C324.217 31.6395 324.106 31.3118 324.055 31.1202C324.005 30.9337 323.934 30.5656 323.899 30.3085C323.844 29.9354 323.834 29.6229 323.849 28.8061C323.869 27.9793 323.889 27.697 323.965 27.3491C324.015 27.1172 324.116 26.7542 324.181 26.5475C324.252 26.3408 324.378 26.0333 324.464 25.8619C324.549 25.6905 324.711 25.4182 324.817 25.2518C324.928 25.0855 325.19 24.7779 325.401 24.5662C325.613 24.3494 325.951 24.0671 326.153 23.936C326.349 23.7999 326.717 23.5982 326.964 23.4772C327.211 23.3613 327.594 23.205 327.821 23.1294C328.043 23.0537 328.421 22.9479 328.653 22.8924C328.89 22.842 329.273 22.7613 329.51 22.726C329.747 22.6907 330.11 22.6403 330.327 22.6151C330.539 22.5899 331.27 22.5546 331.95 22.5294C332.636 22.5093 333.775 22.474 335.782 22.4235V16.8728L335.449 16.7014C335.268 16.6107 334.915 16.4645 334.668 16.3838C334.421 16.3031 333.982 16.1872 333.685 16.1267C333.392 16.0662 332.949 15.9956 332.702 15.9704C332.455 15.9401 331.789 15.9149 331.224 15.9149C330.498 15.9149 330.045 15.9351 329.682 15.9855C329.399 16.0258 328.784 16.1267 328.31 16.2073C327.842 16.288 327.327 16.3586 327.166 16.3586C327.01 16.3586 326.818 16.3334 326.737 16.3031C326.662 16.2678 326.536 16.167 326.46 16.0763C326.359 15.9553 326.264 15.7385 326.132 15.3301C326.027 15.0125 325.931 14.6646 325.911 14.5588C325.895 14.4226 325.906 14.3067 325.951 14.1806C325.996 14.0748 326.097 13.9386 326.203 13.8479C326.304 13.7672 326.49 13.6563 326.621 13.6109C326.753 13.5605 327.186 13.4597 327.584 13.379C327.983 13.2984 328.593 13.1925 328.936 13.1421C329.273 13.0967 329.757 13.0362 330.004 13.016C330.251 12.9959 331.003 12.9858 331.673 12.9908ZM330.69 25.3325C330.393 25.3728 329.969 25.4535 329.747 25.514C329.525 25.5695 329.203 25.6854 329.041 25.7661C328.875 25.8467 328.638 26.0081 328.507 26.119C328.381 26.2299 328.199 26.4366 328.109 26.5778C328.018 26.7189 327.897 26.9811 327.842 27.1575C327.781 27.334 327.705 27.6819 327.665 27.9289C327.615 28.2566 327.605 28.5641 327.62 29.0431C327.63 29.4464 327.665 29.8346 327.71 30.0312C327.751 30.2077 327.862 30.5102 327.952 30.7068C328.068 30.9488 328.194 31.1303 328.356 31.2916C328.502 31.4429 328.704 31.584 328.9 31.6798C329.072 31.7605 329.364 31.8663 329.556 31.9168C329.742 31.9621 330.125 32.0226 330.408 32.0428C330.761 32.073 331.083 32.073 331.426 32.0428C331.703 32.0226 332.127 31.9621 332.369 31.9168C332.611 31.8714 333.019 31.7706 333.276 31.6949C333.538 31.6243 333.952 31.4781 334.199 31.3824C334.446 31.2815 334.774 31.1353 334.925 31.0597C335.081 30.979 335.374 30.8127 335.58 30.6866L335.953 30.4598V25.0603C335.439 25.0653 334.375 25.1157 333.256 25.1661C332.137 25.2216 330.982 25.2972 330.69 25.3325ZM386.399 13.2782C386.888 13.2732 387.473 13.2933 387.705 13.3185C387.932 13.3437 388.35 13.4143 388.632 13.4698C388.915 13.5303 389.333 13.6462 389.555 13.7219C389.777 13.8025 390.104 13.9286 390.281 14.0092C390.457 14.0899 390.74 14.2411 390.901 14.342C391.067 14.4428 391.355 14.6445 391.546 14.7957C391.733 14.9419 392.015 15.194 392.166 15.3553C392.323 15.5166 392.535 15.7637 392.645 15.9099C392.751 16.051 392.923 16.2981 393.024 16.4645C393.124 16.6308 393.301 16.9585 393.412 17.1955C393.523 17.4274 393.674 17.8055 393.744 18.0273C393.82 18.2542 393.921 18.5819 393.966 18.7584C394.012 18.9348 394.082 19.3028 394.133 19.57C394.178 19.8423 394.239 20.296 394.269 20.5783C394.304 20.9212 394.314 21.6371 394.299 22.7412C394.279 24.173 394.269 24.415 394.203 24.5662C394.163 24.6569 394.087 24.783 394.037 24.8384C393.986 24.8939 393.891 24.9645 393.825 24.9998C393.724 25.0502 392.771 25.0603 381.655 25.0552L381.685 26.0333C381.7 26.5677 381.746 27.208 381.781 27.46C381.821 27.7071 381.897 28.0902 381.952 28.3171C382.008 28.5389 382.119 28.8969 382.194 29.1086C382.275 29.3204 382.436 29.6581 382.557 29.8548C382.673 30.0514 382.885 30.3388 383.031 30.495C383.172 30.6513 383.394 30.858 383.52 30.9589C383.651 31.0547 383.898 31.216 384.075 31.3118C384.251 31.4025 384.599 31.5487 384.846 31.6344C385.093 31.7151 385.527 31.826 385.809 31.8764C386.258 31.9621 386.475 31.9722 387.478 31.9722C388.456 31.9773 388.723 31.9621 389.212 31.8865C389.53 31.8361 390.13 31.7151 390.538 31.6193C390.951 31.5235 391.587 31.3874 391.955 31.3118C392.54 31.1958 392.64 31.1857 392.807 31.2311C392.943 31.2664 393.064 31.342 393.2 31.4781C393.341 31.6243 393.417 31.7453 393.462 31.9168C393.502 32.0428 393.593 32.3907 393.669 32.6881C393.744 32.9805 393.815 33.3385 393.825 33.4796C393.84 33.6611 393.83 33.7771 393.785 33.8678C393.75 33.9384 393.654 34.0594 393.573 34.1401C393.492 34.2207 393.296 34.3518 393.129 34.4274C392.963 34.5031 392.62 34.6442 392.358 34.74C392.101 34.8408 391.677 34.977 391.415 35.0425C391.158 35.1131 390.725 35.2089 390.452 35.2593C390.185 35.3047 389.721 35.3753 389.429 35.4105C389.131 35.4458 388.572 35.4912 388.184 35.5114C387.795 35.5315 387.14 35.5315 386.732 35.5114C386.318 35.4962 385.749 35.4458 385.466 35.4105C385.184 35.3702 384.73 35.2895 384.458 35.229C384.191 35.1685 383.767 35.0526 383.52 34.9719C383.273 34.8862 382.895 34.7451 382.683 34.6493C382.472 34.5585 382.124 34.3821 381.912 34.2611C381.7 34.1401 381.373 33.9233 381.186 33.7821C380.994 33.646 380.662 33.3536 380.44 33.1419C380.223 32.9251 379.921 32.5974 379.774 32.4058C379.623 32.2192 379.401 31.9016 379.275 31.7C379.154 31.4983 378.937 31.095 378.796 30.8026C378.655 30.5051 378.448 29.9859 378.338 29.643C378.227 29.3002 378.085 28.8011 378.025 28.5288C377.964 28.2566 377.874 27.7676 377.828 27.4348C377.783 27.1071 377.717 26.5475 377.692 26.1946C377.662 25.7812 377.652 25.0704 377.667 24.2234C377.677 23.4218 377.717 22.6605 377.758 22.3126C377.793 21.995 377.874 21.4657 377.934 21.138C377.995 20.8052 378.106 20.2859 378.186 19.9784C378.267 19.6709 378.403 19.2171 378.489 18.9701C378.574 18.7231 378.766 18.2693 378.912 17.9668C379.058 17.6593 379.275 17.2459 379.396 17.0442C379.517 16.8426 379.724 16.535 379.855 16.3586C379.991 16.1821 380.218 15.8998 380.364 15.7385C380.515 15.5721 380.818 15.2847 381.04 15.0982C381.262 14.9066 381.594 14.6545 381.786 14.5335C381.972 14.4075 382.351 14.2008 382.618 14.0697C382.89 13.9386 383.314 13.7672 383.561 13.6866C383.808 13.6059 384.211 13.5 384.458 13.4496C384.705 13.3992 385.043 13.3387 385.209 13.3185C385.376 13.2984 385.91 13.2782 386.399 13.2782ZM384.826 16.3989C384.66 16.4493 384.397 16.5602 384.246 16.6359C384.095 16.7115 383.833 16.8829 383.666 17.0089C383.505 17.14 383.278 17.3518 383.172 17.4778C383.067 17.6038 382.91 17.8055 382.835 17.9215C382.754 18.0374 382.608 18.2996 382.507 18.5012C382.411 18.7029 382.26 19.076 382.179 19.3381C382.093 19.5952 381.988 20.0087 381.942 20.2557C381.892 20.5027 381.831 20.8607 381.806 21.0522C381.781 21.2388 381.746 21.6371 381.73 21.9396L381.7 22.4891L390.583 22.484C390.624 22.3025 390.629 21.7581 390.614 21.1581C390.599 20.412 390.568 19.9381 390.518 19.6557C390.483 19.4339 390.377 19.0407 390.291 18.7785C390.205 18.5214 390.044 18.1534 389.938 17.9668C389.812 17.7349 389.631 17.503 389.384 17.256C389.147 17.019 388.91 16.8325 388.698 16.7115C388.521 16.6157 388.234 16.4846 388.058 16.4241C387.881 16.3687 387.564 16.288 387.352 16.2527C387.11 16.2124 386.732 16.1872 386.344 16.1872C386.001 16.1922 385.587 16.2174 385.426 16.2477C385.26 16.2779 384.987 16.3435 384.826 16.3989ZM408.133 14.0647C408.526 14.0697 408.955 14.1 409.101 14.1302C409.242 14.1554 409.409 14.2058 409.474 14.2411C409.54 14.2714 409.63 14.3773 409.676 14.473C409.721 14.5638 409.761 14.71 409.761 14.7957C409.761 14.8764 409.686 15.4209 409.595 16.0057C409.484 16.7216 409.409 17.1098 409.353 17.2056C409.303 17.2913 409.197 17.382 409.076 17.4375C408.884 17.5232 408.884 17.5232 408.33 17.4476C407.936 17.3971 407.639 17.382 407.321 17.3971C407.064 17.4123 406.737 17.4627 406.55 17.5131C406.374 17.5635 406.086 17.6744 405.91 17.7551C405.733 17.8357 405.491 17.9668 405.375 18.0374C405.254 18.113 405.007 18.2945 404.816 18.4407C404.629 18.5869 404.367 18.8188 404.236 18.955C404.1 19.0961 403.903 19.318 403.596 19.7011V26.9004C403.596 32.2142 403.586 34.1602 403.545 34.3266C403.515 34.4829 403.449 34.6039 403.339 34.7249C403.238 34.8308 403.112 34.9165 402.996 34.9518C402.855 34.9921 402.487 35.0022 400.273 34.982L400.107 34.8711C400.011 34.8106 399.9 34.6846 399.85 34.5888C399.764 34.4224 399.764 34.3266 399.754 24.8233C399.749 19.5398 399.749 15.1587 399.764 15.0831C399.779 15.0024 399.855 14.8663 399.946 14.7705C400.036 14.6747 400.177 14.5739 400.258 14.5436C400.359 14.5083 400.782 14.4932 401.584 14.4932C402.602 14.4932 402.789 14.5033 402.965 14.5688C403.091 14.6142 403.207 14.6949 403.273 14.7806C403.328 14.8612 403.394 14.9974 403.419 15.0932C403.449 15.1889 403.47 15.441 403.47 15.6628C403.47 15.8796 403.48 16.0863 403.49 16.1216C403.505 16.167 403.651 16.051 403.994 15.7284C404.256 15.4814 404.649 15.1587 404.861 15.0175C405.073 14.8764 405.38 14.6949 405.547 14.6092C405.708 14.5285 406.036 14.3974 406.273 14.3168C406.51 14.2411 406.863 14.1453 407.064 14.1101C407.321 14.0647 407.634 14.0496 408.133 14.0647ZM435.322 14.3974C436.562 14.4075 436.638 14.4125 436.819 14.4983C436.925 14.5537 437.071 14.6596 437.142 14.7402C437.213 14.826 438.196 16.3031 439.325 18.0223C440.454 19.7465 441.392 21.1531 441.407 21.148C441.422 21.143 442.35 19.7465 443.469 18.0525C444.583 16.3535 445.556 14.8865 445.622 14.7957C445.692 14.705 445.844 14.5789 446.171 14.4075L447.477 14.3924C448.551 14.3823 448.818 14.3924 448.954 14.4428C449.05 14.4781 449.181 14.5688 449.247 14.6394C449.343 14.7453 449.363 14.8108 449.363 14.9873C449.363 15.1032 449.337 15.2545 449.302 15.32C449.272 15.3856 447.956 17.4223 446.388 19.8524C444.815 22.2773 443.525 24.2839 443.509 24.3091C443.499 24.3292 444.911 26.5122 446.645 29.149C448.385 31.7907 449.816 33.9939 449.842 34.0493C449.862 34.0997 449.877 34.256 449.877 34.3922C449.877 34.5585 449.852 34.6694 449.801 34.74C449.761 34.8005 449.665 34.8711 449.59 34.9013C449.484 34.9467 449.106 34.9568 448.067 34.9568C447.18 34.9568 446.625 34.9417 446.514 34.9114C446.423 34.8812 446.272 34.8156 446.187 34.7602C446.066 34.6846 445.879 34.4375 445.486 33.8325C445.188 33.3788 444.16 31.7907 443.197 30.3085C442.239 28.8213 441.432 27.6012 441.412 27.5962C441.397 27.5911 440.379 29.1338 439.159 31.0244C437.873 33.0158 436.865 34.5384 436.759 34.6392C436.663 34.735 436.492 34.8408 436.371 34.8862C436.184 34.9518 435.977 34.9568 434.778 34.9568C433.729 34.9568 433.361 34.9467 433.255 34.9013C433.179 34.8711 433.073 34.7904 433.018 34.7199C432.947 34.6291 432.922 34.5384 432.922 34.3922C432.922 34.2762 432.947 34.125 432.978 34.0493C433.013 33.9687 434.45 31.7605 436.179 29.1288C437.908 26.5021 439.32 24.3444 439.315 24.3292C439.315 24.3192 438.034 22.3429 436.477 19.9381C434.914 17.5333 433.593 15.4763 433.537 15.3704C433.482 15.2646 433.436 15.1083 433.436 15.0175C433.436 14.9318 433.462 14.8058 433.497 14.7402C433.527 14.6747 433.593 14.594 433.633 14.5588C433.678 14.5235 433.779 14.468 433.865 14.4378C433.976 14.4025 434.369 14.3873 435.322 14.3974ZM413.311 14.473H414.909C416.482 14.473 416.507 14.473 416.673 14.5688C416.769 14.6192 416.885 14.7251 416.93 14.7957C416.981 14.8713 418.146 18.1836 419.522 22.1563C421.165 26.8954 422.038 29.3557 422.058 29.3103C422.078 29.27 423.237 26.0535 424.644 22.1664C426.046 18.2744 427.23 15.0175 427.266 14.9217C427.306 14.826 427.417 14.6949 427.674 14.4932L429.111 14.4831C430.205 14.473 430.578 14.4831 430.674 14.5235C430.744 14.5537 430.82 14.6344 430.85 14.71C430.885 14.7957 430.891 14.8965 430.865 15.0276C430.85 15.1335 428.98 20.1952 426.716 26.2803C424.452 32.3604 422.501 37.5683 422.38 37.8506C422.264 38.133 422.073 38.5514 421.957 38.7833C421.841 39.0152 421.634 39.3984 421.488 39.6404C421.347 39.8824 421.11 40.2454 420.964 40.442C420.818 40.6437 420.51 41.0066 420.273 41.2537C420.036 41.4957 419.678 41.8234 419.482 41.9746C419.28 42.1259 418.866 42.3729 418.559 42.5241C418.251 42.6754 417.848 42.8468 417.662 42.9073C417.475 42.9678 417.087 43.0636 416.804 43.1241C416.522 43.1796 416.038 43.2501 415.736 43.2753C415.393 43.3056 414.813 43.3207 414.238 43.3056C413.638 43.2905 413.154 43.2552 412.907 43.2098C412.64 43.1594 412.494 43.109 412.423 43.0434C412.368 42.993 412.297 42.8468 412.257 42.7157C412.207 42.5342 412.196 42.383 412.222 42.0502C412.237 41.8133 412.277 41.4402 412.307 41.2134C412.343 40.9915 412.398 40.7193 412.438 40.6134C412.474 40.5075 412.559 40.3714 412.62 40.3059C412.686 40.2403 412.796 40.1748 412.867 40.1597C412.938 40.1496 413.311 40.1698 413.699 40.2101C414.173 40.2605 414.586 40.2756 414.944 40.2605C415.237 40.2454 415.68 40.195 415.927 40.1445C416.174 40.0941 416.532 39.9883 416.719 39.9076C416.905 39.8219 417.167 39.6958 417.293 39.6202C417.425 39.5446 417.682 39.3278 417.873 39.1362C418.065 38.9497 418.322 38.6422 418.448 38.4506C418.569 38.264 418.756 37.9364 418.856 37.7246C418.957 37.5129 419.315 36.6608 419.653 35.8391C419.986 35.0123 420.263 34.3064 420.263 34.2712C420.268 34.2359 418.645 29.9153 416.663 24.6721C413.643 16.6863 413.059 15.1032 413.064 14.9268C413.064 14.7604 413.089 14.6999 413.185 14.5991L413.311 14.473Z" fill="white"/>
<path d="M32.4441 387.208C31.0249 387.208 29.8423 386.073 29.8423 384.607V377.795C29.8423 376.376 30.9776 375.193 32.4441 375.193C33.8633 375.193 35.0459 376.328 35.0459 377.795V384.607C34.9986 386.026 33.8633 387.208 32.4441 387.208ZM42.6621 386.972V375.146C42.6621 373.726 41.5268 372.544 40.0603 372.544C38.6411 372.544 37.4585 373.679 37.4585 375.146V386.972C37.4585 388.391 38.5938 389.574 40.0603 389.574C41.4795 389.526 42.6621 388.391 42.6621 386.972ZM50.2783 389.574V372.686C50.2783 371.267 49.143 370.084 47.6765 370.084C46.2573 370.084 45.0747 371.219 45.0747 372.686V389.574C45.0747 390.993 46.21 392.176 47.6765 392.176C49.143 392.176 50.2783 390.993 50.2783 389.574ZM57.9418 391.986V369.989C57.9418 368.57 56.8065 367.387 55.34 367.387C53.9208 367.387 52.7382 368.523 52.7382 369.989V391.986C52.7382 393.406 53.8735 394.588 55.34 394.588C56.7591 394.588 57.9418 393.406 57.9418 391.986ZM69.2478 364.171L34.7621 354.095C34.5255 354.047 34.2417 354 34.0052 354C32.5387 354 31.2615 355.183 31.2615 356.744V373.017H33.2956V356.744C33.2956 356.318 33.6267 356.081 33.9579 356.081C34.0052 356.081 34.0998 356.081 34.1471 356.129L68.6328 366.205C68.9167 366.299 69.1059 366.536 69.1059 366.867V388.533C69.1059 388.959 68.7748 389.195 68.4436 389.195C68.3963 389.195 68.3017 389.195 68.2544 389.148L60.4017 386.83V389.006L67.6867 391.135C67.9233 391.229 68.2071 391.229 68.4436 391.229C69.9101 391.229 71.1873 390.047 71.1873 388.486V366.82C71.2346 365.59 70.4305 364.502 69.2478 364.171ZM91.2449 363.792C92.6168 363.556 94.3671 363.367 96.6377 363.367C99.4288 363.367 101.463 364.029 102.74 365.164C103.923 366.205 104.632 367.766 104.632 369.705C104.632 371.692 104.065 373.206 102.929 374.341C101.463 375.902 99.003 376.754 96.2593 376.754C95.4078 376.754 94.6509 376.707 93.9886 376.565V385.269H91.1976V363.792H91.2449ZM94.0359 374.294C94.6509 374.436 95.4078 374.531 96.3539 374.531C99.7599 374.531 101.794 372.875 101.794 369.895C101.794 367.009 99.7599 365.637 96.6377 365.637C95.4078 365.637 94.4617 365.732 93.9886 365.874V374.294H94.0359ZM121.662 377.369C121.662 383.14 117.641 385.695 113.857 385.695C109.647 385.695 106.383 382.573 106.383 377.653C106.383 372.402 109.789 369.327 114.141 369.327C118.635 369.327 121.662 372.591 121.662 377.369ZM109.268 377.511C109.268 380.917 111.255 383.519 113.999 383.519C116.695 383.519 118.729 380.964 118.729 377.464C118.729 374.814 117.405 371.456 114.046 371.456C110.735 371.456 109.268 374.578 109.268 377.511ZM126.156 369.658L128.238 377.653C128.711 379.403 129.089 381.011 129.42 382.62H129.515C129.894 381.059 130.367 379.356 130.887 377.7L133.441 369.705H135.854L138.267 377.511C138.834 379.403 139.307 381.011 139.638 382.62H139.733C139.97 381.059 140.395 379.403 140.916 377.558L143.139 369.705H145.93L140.868 385.364H138.267L135.854 377.889C135.286 376.139 134.861 374.578 134.482 372.733H134.435C134.056 374.625 133.583 376.234 133.016 377.889L130.509 385.316H127.907L123.176 369.658H126.156ZM150.093 378.031C150.14 381.863 152.6 383.471 155.439 383.471C157.473 383.471 158.703 383.093 159.791 382.667L160.264 384.701C159.27 385.174 157.567 385.647 155.06 385.647C150.235 385.647 147.349 382.478 147.349 377.747C147.349 373.017 150.14 369.327 154.682 369.327C159.791 369.327 161.163 373.821 161.163 376.707C161.163 377.274 161.115 377.747 161.068 378.031H150.093ZM158.419 375.997C158.466 374.199 157.662 371.361 154.492 371.361C151.607 371.361 150.377 374.01 150.14 375.997H158.419ZM164.663 374.578C164.663 372.733 164.616 371.172 164.521 369.705H167.028L167.123 372.78H167.265C167.975 370.699 169.678 369.374 171.617 369.374C171.948 369.374 172.185 369.422 172.421 369.469V372.165C172.137 372.118 171.854 372.071 171.475 372.071C169.488 372.071 168.069 373.585 167.643 375.713C167.596 376.092 167.501 376.565 167.501 377.038V385.364H164.663V374.578ZM182.166 363.84C183.396 363.603 185.336 363.367 187.322 363.367C190.114 363.367 191.958 363.84 193.283 364.928C194.418 365.779 195.081 367.056 195.081 368.759C195.081 370.841 193.709 372.686 191.391 373.537V373.585C193.472 374.105 195.885 375.808 195.885 379.025C195.885 380.917 195.128 382.336 194.04 383.377C192.526 384.749 190.066 385.411 186.518 385.411C184.579 385.411 183.112 385.269 182.166 385.174V363.84ZM185.005 372.733H187.559C190.539 372.733 192.29 371.172 192.29 369.09C192.29 366.536 190.35 365.543 187.512 365.543C186.234 365.543 185.478 365.637 185.005 365.732V372.733ZM185.005 383.188C185.572 383.282 186.376 383.329 187.37 383.329C190.255 383.329 192.952 382.241 192.952 379.119C192.952 376.139 190.397 374.909 187.322 374.909H185.005V383.188ZM202.508 363.556V385.316H199.717V363.556H202.508Z" fill="white"/>
<path d="M16.4161 147.045L31.9899 137.841L16.4161 112L0.842285 137.841L16.4161 147.045Z" fill="white"/>
<path d="M16.4161 162.737L31.9983 140.794L16.4161 149.99L0.842285 140.794L16.4161 162.737Z" fill="white"/>
<path d="M67.0236 144.219C67.0236 144.61 66.6911 144.938 66.2945 144.938H52.1599C52.5181 148.382 55.1403 151.524 58.8371 151.524C61.3698 151.524 63.2373 150.578 64.6572 148.584C64.8619 148.306 65.1689 148.13 65.5526 148.294C65.7573 148.382 65.9108 148.571 65.9492 148.799C65.9875 149.026 65.9236 149.152 65.8596 149.278C64.4398 151.726 61.6128 152.924 58.8371 152.924C54.0786 152.924 50.7017 148.735 50.7017 144.244C50.7017 139.752 54.0914 135.563 58.8371 135.563C63.5827 135.551 67.0236 139.727 67.0236 144.219ZM65.5142 143.525C65.2072 140.08 62.5338 136.939 58.8371 136.939C55.1403 136.939 52.5181 140.08 52.1599 143.525H65.5142ZM84.1643 135.904C84.5736 135.904 84.8678 136.257 84.8678 136.598C84.8678 137.002 84.5608 137.292 84.1643 137.292H80.378V151.953C80.378 152.306 80.071 152.647 79.6745 152.647C79.2651 152.647 78.9709 152.293 78.9709 151.953V137.292H75.3253C74.916 137.292 74.6218 136.989 74.6218 136.598C74.6218 136.245 74.9288 135.904 75.3253 135.904H78.9709V130.542C78.9709 130.201 79.2012 129.886 79.5465 129.835C80.0198 129.759 80.3908 130.075 80.3908 130.516V135.904H84.1643ZM107.279 142.982V151.864C107.279 152.268 106.92 152.558 106.575 152.558C106.166 152.558 105.871 152.256 105.871 151.864V142.982C105.871 139.992 104.157 137.002 100.768 137.002C96.4185 137.002 94.551 140.736 94.8068 144.584C94.8068 144.685 94.858 145.127 94.858 145.177V151.839C94.858 152.18 94.6277 152.495 94.2824 152.546C93.8091 152.621 93.4381 152.306 93.4381 151.864V122.694C93.4381 122.341 93.7451 122 94.1417 122C94.551 122 94.8452 122.353 94.8452 122.694V139.197C96.0604 137.052 98.2349 135.601 100.755 135.601C104.899 135.601 107.279 139.197 107.279 142.982ZM132.606 144.219C132.606 144.61 132.273 144.938 131.877 144.938H117.742C118.1 148.382 120.722 151.524 124.419 151.524C126.952 151.524 128.819 150.578 130.239 148.584C130.444 148.306 130.751 148.13 131.135 148.294C131.339 148.382 131.493 148.571 131.531 148.799C131.57 149.026 131.506 149.152 131.442 149.278C130.022 151.726 127.195 152.924 124.419 152.924C119.661 152.924 116.284 148.735 116.284 144.244C116.284 139.752 119.674 135.563 124.419 135.563C129.165 135.551 132.593 139.727 132.606 144.219ZM131.084 143.525C130.777 140.08 128.103 136.939 124.406 136.939C120.71 136.939 118.087 140.08 117.729 143.525H131.084ZM149.951 136.547C149.951 137.002 149.695 137.241 149.299 137.292C145.154 137.885 143.287 141.228 143.287 145.127V151.789C143.287 152.129 143.056 152.445 142.711 152.495C142.238 152.571 141.867 152.256 141.867 151.814V136.611C141.867 136.27 142.097 135.954 142.442 135.904C142.916 135.828 143.287 136.144 143.287 136.585V139.676C144.451 137.733 146.779 135.891 149.196 135.891C149.542 135.904 149.951 136.144 149.951 136.547ZM173.155 144.219C173.155 144.61 172.822 144.938 172.426 144.938H158.291C158.649 148.382 161.272 151.524 164.968 151.524C167.501 151.524 169.369 150.578 170.788 148.584C170.993 148.306 171.3 148.13 171.684 148.294C171.889 148.382 172.042 148.571 172.08 148.799C172.119 149.026 172.055 149.152 171.991 149.278C170.571 151.726 167.744 152.924 164.968 152.924C160.21 152.924 156.833 148.735 156.833 144.244C156.833 139.752 160.223 135.563 164.968 135.563C169.714 135.551 173.142 139.727 173.155 144.219ZM171.633 143.525C171.326 140.08 168.652 136.939 164.956 136.939C161.259 136.939 158.636 140.08 158.278 143.525H171.633ZM195.962 136.724V151.953C195.962 152.357 195.604 152.647 195.259 152.647C194.849 152.647 194.555 152.344 194.555 151.953V149.063C193.391 151.36 191.319 153 188.684 153C184.488 153 182.16 149.404 182.16 145.619V136.686C182.16 136.333 182.467 135.992 182.864 135.992C183.273 135.992 183.567 136.346 183.567 136.686V145.619C183.567 148.609 185.281 151.6 188.671 151.6C193.429 151.6 194.542 147.209 194.542 142.376V136.686C194.542 136.282 194.952 135.879 195.451 136.018C195.758 136.118 195.962 136.409 195.962 136.724ZM231.702 142.932V151.864C231.702 152.268 231.343 152.558 230.998 152.558C230.589 152.558 230.295 152.256 230.295 151.864V142.932C230.295 139.941 228.581 137.002 225.191 137.002C220.944 137.002 219.319 141.493 219.319 144.976V151.852C219.319 152.256 218.961 152.546 218.616 152.546C218.207 152.546 217.912 152.243 217.912 151.852V142.919C217.912 139.929 216.198 136.989 212.809 136.989C208.511 136.989 206.745 140.333 206.899 144.774C206.899 144.875 206.95 145.077 206.899 145.127V151.839C206.899 152.18 206.669 152.495 206.323 152.546C205.85 152.621 205.479 152.306 205.479 151.864V136.611C205.479 136.27 205.709 135.954 206.055 135.904C206.528 135.828 206.899 136.144 206.899 136.585V139.134C208.114 136.989 210.289 135.589 212.809 135.589C215.687 135.589 217.912 137.38 218.821 140.03C219.985 137.431 222.262 135.589 225.191 135.589C229.322 135.601 231.702 139.147 231.702 142.932Z" fill="white"/>
</svg>
