<svg width="225" height="62" viewBox="0 0 225 62" fill="none" xmlns="http://www.w3.org/2000/svg">
<path d="M6.67925 45.6261L8.90747 46.9126L33.7307 3.91873L31.5025 2.63223L6.67925 45.6261Z" fill="#F7F7F7"/>
<path d="M55.8155 42.1912H6.16895V44.7642H55.8155V42.1912Z" fill="#F7F7F7"/>
<path d="M7.15109 43.6366L31.9836 57.9741L33.2701 55.7459L8.43759 41.4084L7.15109 43.6366Z" fill="#F7F7F7"/>
<path d="M28.7231 6.26919L53.5557 20.6067L54.8422 18.3785L30.0096 4.04097L28.7231 6.26919Z" fill="#F7F7F7"/>
<path d="M7.15808 18.3687L8.44458 20.5969L33.2771 6.25942L31.9906 4.0312L7.15808 18.3687Z" fill="#F7F7F7"/>
<path d="M28.2746 3.91922L53.0979 46.9131L55.3261 45.6266L30.5029 2.63272L28.2746 3.91922Z" fill="#F7F7F7"/>
<path d="M10.7102 16.6626H8.13721V45.3376H10.7102V16.6626Z" fill="#F7F7F7"/>
<path d="M53.8623 16.6626H51.2893V45.3376H53.8623V16.6626Z" fill="#F7F7F7"/>
<path d="M30.4221 54.9387L31.5459 56.885L53.1435 44.4153L52.0198 42.4689L30.4221 54.9387Z" fill="#F7F7F7"/>
<path d="M57.2722 46.1746C55.7842 48.7631 52.4672 49.6466 49.8787 48.1586C47.2902 46.6706 46.4067 43.3536 47.8947 40.7651C49.3827 38.1766 52.6997 37.2931 55.2882 38.7811C57.8922 40.2846 58.7757 43.5861 57.2722 46.1746Z" fill="#F7F7F7"/>
<path d="M14.0893 21.2352C12.6013 23.8237 9.28431 24.7072 6.69581 23.2192C4.10731 21.7312 3.22381 18.4142 4.71181 15.8257C6.19981 13.2372 9.51681 12.3537 12.1053 13.8417C14.6938 15.3452 15.5773 18.6467 14.0893 21.2352Z" fill="#F7F7F7"/>
<path d="M4.72719 46.1746C3.23919 43.5861 4.12269 40.2846 6.71119 38.7811C9.29969 37.2931 12.6012 38.1766 14.1047 40.7651C15.5927 43.3536 14.7092 46.6551 12.1207 48.1586C9.51669 49.6466 6.21519 48.7631 4.72719 46.1746Z" fill="#F7F7F7"/>
<path d="M47.9103 21.2352C46.4223 18.6467 47.3058 15.3452 49.8943 13.8417C52.4828 12.3537 55.7843 13.2372 57.2878 15.8257C58.7758 18.4142 57.8923 21.7157 55.3038 23.2192C52.7153 24.7072 49.3983 23.8237 47.9103 21.2352Z" fill="#F7F7F7"/>
<path d="M30.9998 61.349C28.0083 61.349 25.5903 58.931 25.5903 55.9395C25.5903 52.948 28.0083 50.53 30.9998 50.53C33.9913 50.53 36.4093 52.948 36.4093 55.9395C36.4093 58.9155 33.9913 61.349 30.9998 61.349Z" fill="#F7F7F7"/>
<path d="M30.9998 11.4701C28.0083 11.4701 25.5903 9.05212 25.5903 6.06062C25.5903 3.06912 28.0083 0.651123 30.9998 0.651123C33.9913 0.651123 36.4093 3.06912 36.4093 6.06062C36.4093 9.05212 33.9913 11.4701 30.9998 11.4701Z" fill="#F7F7F7"/>
<path d="M90.0812 41.508H89.9372C89.7212 42.036 89.4572 42.54 89.1452 43.02C88.8332 43.476 88.4492 43.884 87.9932 44.244C87.5372 44.604 86.9732 44.892 86.3012 45.108C85.6532 45.324 84.8852 45.432 83.9972 45.432C81.2612 45.432 79.1972 44.364 77.8052 42.228C76.4132 40.092 75.7172 36.864 75.7172 32.544C75.7172 28.104 76.4492 24.816 77.9132 22.68C79.4012 20.52 81.6092 19.44 84.5372 19.44C85.5692 19.44 86.4932 19.584 87.3092 19.872C88.1252 20.16 88.8332 20.544 89.4332 21.024C90.0332 21.504 90.5372 22.068 90.9452 22.716C91.3772 23.364 91.7252 24.048 91.9892 24.768L90.1172 25.596C89.6612 24.372 89.0012 23.352 88.1372 22.536C87.2972 21.72 86.1212 21.312 84.6092 21.312C82.3772 21.312 80.7212 22.14 79.6412 23.796C78.5612 25.428 78.0212 27.744 78.0212 30.744V34.02C78.0212 36.996 78.5252 39.336 79.5332 41.04C80.5652 42.744 82.1972 43.596 84.4292 43.596C85.3172 43.596 86.1092 43.452 86.8052 43.164C87.5012 42.876 88.0892 42.468 88.5692 41.94C89.0492 41.412 89.4212 40.8 89.6852 40.104C89.9492 39.384 90.0812 38.592 90.0812 37.728V34.74H84.3572V33.012H92.0972V45H90.0812V41.508ZM97.8432 43.236H103.675V28.188H97.8432V26.424H105.727V30.672H105.871C106.279 29.376 106.975 28.344 107.959 27.576C108.967 26.808 110.287 26.424 111.919 26.424H115.123V28.44H111.307C109.627 28.44 108.271 28.944 107.239 29.952C106.231 30.936 105.727 32.268 105.727 33.948V43.236H113.287V45H97.8432V43.236ZM133.865 45C133.025 45 132.425 44.796 132.065 44.388C131.705 43.98 131.501 43.428 131.453 42.732V42.084H131.273C130.865 43.068 130.193 43.872 129.257 44.496C128.321 45.12 127.049 45.432 125.441 45.432C123.497 45.432 121.961 44.964 120.833 44.028C119.729 43.068 119.177 41.724 119.177 39.996C119.177 39.18 119.309 38.448 119.573 37.8C119.861 37.128 120.305 36.564 120.905 36.108C121.529 35.652 122.321 35.304 123.281 35.064C124.241 34.8 125.417 34.668 126.809 34.668H131.345V32.4C131.345 30.84 130.913 29.676 130.049 28.908C129.209 28.14 128.033 27.756 126.521 27.756C123.977 27.756 122.201 28.776 121.193 30.816L119.789 29.808C120.269 28.728 121.073 27.828 122.201 27.108C123.353 26.364 124.829 25.992 126.629 25.992C128.741 25.992 130.397 26.544 131.597 27.648C132.797 28.728 133.397 30.24 133.397 32.184V43.2H136.169V45H133.865ZM125.765 43.704C126.557 43.704 127.289 43.608 127.961 43.416C128.633 43.224 129.221 42.96 129.725 42.624C130.229 42.264 130.625 41.832 130.913 41.328C131.201 40.824 131.345 40.26 131.345 39.636V36.216H126.809C124.865 36.216 123.461 36.516 122.597 37.116C121.757 37.692 121.337 38.484 121.337 39.492V40.428C121.337 41.508 121.733 42.324 122.525 42.876C123.341 43.428 124.421 43.704 125.765 43.704ZM142.059 26.424H144.111V29.376H144.219C144.747 28.368 145.479 27.552 146.415 26.928C147.375 26.304 148.563 25.992 149.979 25.992C152.307 25.992 154.119 26.832 155.415 28.512C156.711 30.168 157.359 32.568 157.359 35.712C157.359 38.856 156.711 41.268 155.415 42.948C154.119 44.604 152.307 45.432 149.979 45.432C148.563 45.432 147.375 45.12 146.415 44.496C145.479 43.872 144.747 43.056 144.219 42.048H144.111V52.2H142.059V26.424ZM149.295 43.596C151.167 43.596 152.607 43.008 153.615 41.832C154.647 40.656 155.163 39.048 155.163 37.008V34.416C155.163 32.376 154.647 30.768 153.615 29.592C152.607 28.416 151.167 27.828 149.295 27.828C148.599 27.828 147.939 27.924 147.315 28.116C146.691 28.308 146.139 28.584 145.659 28.944C145.179 29.304 144.795 29.748 144.507 30.276C144.243 30.804 144.111 31.392 144.111 32.04V39.384C144.111 40.032 144.243 40.62 144.507 41.148C144.795 41.676 145.179 42.12 145.659 42.48C146.139 42.84 146.691 43.116 147.315 43.308C147.939 43.5 148.599 43.596 149.295 43.596ZM163.717 18.36H165.769V29.304H165.913C166.273 28.44 166.873 27.672 167.713 27C168.577 26.328 169.789 25.992 171.349 25.992C173.365 25.992 174.925 26.604 176.029 27.828C177.157 29.028 177.721 30.756 177.721 33.012V45H175.669V33.372C175.669 31.452 175.249 30.048 174.409 29.16C173.593 28.272 172.393 27.828 170.809 27.828C170.161 27.828 169.537 27.912 168.937 28.08C168.337 28.248 167.797 28.5 167.317 28.836C166.861 29.172 166.489 29.604 166.201 30.132C165.913 30.636 165.769 31.236 165.769 31.932V45H163.717V18.36ZM198.839 50.508H194.087C193.079 50.508 192.335 50.232 191.855 49.68C191.375 49.152 191.135 48.432 191.135 47.52V45.36C186.119 44.856 183.611 40.548 183.611 32.436C183.611 28.116 184.307 24.876 185.699 22.716C187.115 20.532 189.275 19.44 192.179 19.44C195.083 19.44 197.231 20.532 198.623 22.716C200.039 24.876 200.747 28.116 200.747 32.436C200.747 40.548 198.239 44.856 193.223 45.36V48.744H198.839V50.508ZM192.179 43.56C194.339 43.56 195.923 42.744 196.931 41.112C197.939 39.456 198.443 37.128 198.443 34.128V30.744C198.443 27.768 197.939 25.452 196.931 23.796C195.923 22.14 194.339 21.312 192.179 21.312C190.019 21.312 188.435 22.14 187.427 23.796C186.419 25.452 185.915 27.768 185.915 30.744V34.128C185.915 37.128 186.419 39.456 187.427 41.112C188.435 42.744 190.019 43.56 192.179 43.56ZM207.645 45V19.872H209.805V43.128H222.117V45H207.645Z" fill="#F7F7F7"/>
</svg>
