<svg width="40" height="40" viewBox="0 0 40 40" fill="none" xmlns="http://www.w3.org/2000/svg">
<g clip-path="url(#clip0)">
<path d="M20 23.0847C21.6849 23.0847 23.0508 21.7188 23.0508 20.0338C23.0508 18.3489 21.6849 16.983 20 16.983C18.3151 16.983 16.9492 18.3489 16.9492 20.0338C16.9492 21.7188 18.3151 23.0847 20 23.0847Z" fill="#444AE2"/>
<path d="M11.0848 6.06791C14.5763 6.47469 16.4746 8.37299 16.8814 11.8645C17.0509 13.3899 18.339 14.5425 19.8983 14.5425C21.4577 14.5425 22.7458 13.356 22.9153 11.8645C23.3221 8.37299 25.2204 6.47469 28.7119 6.06791C30.3729 5.86452 31.6272 4.33909 31.356 2.61028C31.1865 1.28825 30.1017 0.203501 28.7797 0.0340095C27.017 -0.203279 25.4916 1.05096 25.3221 2.67808C25.0509 5.05096 24.0678 6.67808 22.3729 7.62723C20.8136 8.50859 18.9153 8.50859 17.356 7.62723C15.6611 6.67808 14.7119 5.05096 14.4068 2.67808C14.2034 1.01706 12.678 -0.237177 10.9492 0.0340095C9.62715 0.203501 8.54241 1.28825 8.37292 2.61028C8.20343 4.37299 9.42376 5.89842 11.0848 6.06791Z" fill="#444AE2"/>
<path d="M14.4746 37.1525C14.8136 34.4407 16 32.7119 18.1695 31.8644C19.2881 31.4237 20.5424 31.4237 21.6949 31.8644C23.8305 32.7119 25.0508 34.4407 25.3898 37.1525C25.5932 38.8136 27.1186 40.0678 28.8475 39.7966C30.1695 39.6271 31.2542 38.5424 31.4237 37.2203C31.661 35.4576 30.4068 33.9322 28.7797 33.7627C25.2881 33.322 23.3898 31.4237 22.9492 27.9322C22.7797 26.4068 21.4915 25.2542 19.9322 25.2542C18.3729 25.2542 17.0847 26.4407 16.9153 27.9322C16.4746 31.4237 14.5763 33.322 11.0847 33.7627C9.42373 33.9661 8.16949 35.4915 8.44068 37.2203C8.61017 38.5424 9.69492 39.6271 11.017 39.7966C12.7797 40.0339 14.2712 38.7797 14.4746 37.1525Z" fill="#444AE2"/>
<path d="M34.0339 15.0169C33.2543 17.4915 31.8983 18.2034 29.3898 17.4237C29.0848 17.322 28.7458 17.2881 28.3729 17.2881C26.7797 17.322 25.4237 18.678 25.3898 20.2712C25.3559 22 26.7458 23.3898 28.4407 23.3898C28.7797 23.3898 29.1526 23.322 29.4576 23.2203C31.8644 22.3729 33.1865 23.0169 34.0339 25.4237C34.4746 26.6441 35.6271 27.4915 37.017 27.4576C38.6102 27.4237 39.9322 26.1017 39.9661 24.5085C40 22.7797 38.6441 21.3559 36.9153 21.3559C36.5763 21.3559 36.2034 21.4237 35.8983 21.5254C34.3051 22.1017 33.1526 22 32.339 21.1525C31.8644 20.678 31.8644 19.8983 32.3051 19.3898C33.1187 18.4746 34.3051 18.3051 36 18.8474C36.3051 18.9491 36.6441 18.983 37.017 18.983C38.6102 18.9491 39.9661 17.5932 40 16C40.0339 14.2712 38.6441 12.8813 36.9492 12.8813C35.5932 12.8813 34.4068 13.7966 34.0339 15.0169Z" fill="#444AE2"/>
<path d="M34.4068 5.79667C32.7119 8.40684 31.8983 8.81362 28.8136 8.47464C28.7119 8.47464 28.6102 8.47464 28.5085 8.47464C26.8136 8.47464 25.4576 9.83057 25.4576 11.5255C25.4576 13.2204 26.8136 14.5763 28.5085 14.5763C29.5932 14.5763 30.5085 14.034 31.0509 13.1865C32.7458 10.5763 33.5593 10.1696 36.6441 10.4746C36.7458 10.4746 36.8475 10.4746 36.9492 10.4746C38.6441 10.4746 40 9.1187 40 7.42379C40 5.72887 38.6441 4.37294 36.9492 4.37294C35.8644 4.40684 34.9492 4.94921 34.4068 5.79667Z" fill="#444AE2"/>
<path d="M31.017 27.1525C30.4746 26.3051 29.5593 25.7627 28.4746 25.7627C26.7797 25.7627 25.4237 27.1186 25.4237 28.8136C25.4237 30.5085 26.7797 31.8644 28.4746 31.8644C28.5763 31.8644 28.678 31.8644 28.7797 31.8644C31.8644 31.5593 32.678 31.9661 34.3729 34.5763C34.9153 35.4237 35.8644 35.9661 36.9153 35.9661C38.6102 35.9661 39.9661 34.6102 39.9661 32.9152C39.9661 31.2203 38.6102 29.8644 36.9153 29.8644C36.8136 29.8644 36.7119 29.8644 36.6102 29.8644C33.5593 30.1356 32.7119 29.7627 31.017 27.1525Z" fill="#444AE2"/>
<path d="M5.96605 25.1526C6.74571 22.678 8.10164 21.9661 10.6101 22.7458C10.9152 22.8475 11.2542 22.8814 11.6271 22.8814C13.2203 22.8475 14.5762 21.4916 14.6101 19.8983C14.644 18.1695 13.2542 16.7797 11.5593 16.7797C11.2203 16.7797 10.8474 16.8475 10.5423 16.9492C8.13554 17.7966 6.8135 17.1526 5.96605 14.7458C5.52537 13.5254 4.37283 12.678 2.98299 12.7119C1.38977 12.7458 0.0677401 14.0678 0.0338418 15.661C-5.65299e-05 17.3899 1.35588 18.8136 3.08469 18.8136C3.42367 18.8136 3.79655 18.7458 4.10164 18.6441C5.69486 18.0678 6.8474 18.1695 7.66096 19.017C8.13554 19.4916 8.13554 20.2712 7.69486 20.7797C6.8813 21.6949 5.69486 21.8644 3.99994 21.3221C3.69486 21.2204 3.35588 21.1865 2.98299 21.1865C1.35588 21.2543 0.0338418 22.6102 -5.65297e-05 24.2034C-0.0339548 25.9322 1.35588 27.3221 3.05079 27.3221C4.40672 27.3221 5.59316 26.4068 5.96605 25.1526Z" fill="#444AE2"/>
<path d="M8.77963 13.2542C8.84743 13.3558 8.88133 13.4236 8.94912 13.5253C9.96607 14.8813 11.8644 15.1525 13.2203 14.1355C14.5762 13.1186 14.8474 11.2203 13.8305 9.86432C13.1864 9.01687 12.1695 8.57619 11.1864 8.64398C8.06777 8.84737 7.28811 8.4406 5.66099 5.76263C5.59319 5.66093 5.55929 5.59314 5.4915 5.52534C4.47455 4.16941 2.57624 3.89822 1.22031 4.91517C-0.135622 5.93212 -0.406809 7.83043 0.61014 9.18636C1.25421 10.0338 2.27116 10.4745 3.25421 10.4067C6.33895 10.1694 7.15251 10.6101 8.77963 13.2542Z" fill="#444AE2"/>
<path d="M5.4915 34.5423C5.55929 34.4745 5.59319 34.3728 5.66099 34.305C7.25421 31.6609 8.06777 31.2203 11.1864 31.4236C12.1695 31.4914 13.1864 31.0508 13.8305 30.2033C14.8474 28.8474 14.5762 26.9491 13.2203 25.9321C11.8644 24.9152 9.96607 25.1864 8.94912 26.5423C8.88133 26.6101 8.84743 26.7118 8.77963 26.7796C7.18641 29.4236 6.37285 29.8643 3.25421 29.6609C2.27116 29.5931 1.25421 30.0338 0.61014 30.8813C-0.406809 32.2372 -0.135622 34.1355 1.22031 35.1525C2.57624 36.1694 4.47455 35.8982 5.4915 34.5423Z" fill="#444AE2"/>
</g>
<defs>
<clipPath id="clip0">
<rect width="40" height="39.8305" fill="white"/>
</clipPath>
</defs>
</svg>
