<svg width="40" height="40" viewBox="0 0 40 40" fill="none" xmlns="http://www.w3.org/2000/svg">
<g clip-path="url(#clip0)">
<path d="M22.1374 19.977C22.1374 25.6649 17.5577 30.2758 11.9087 30.2758C6.25971 30.2758 1.67969 25.6649 1.67969 19.977C1.67969 14.289 6.25936 9.67773 11.9087 9.67773C17.5581 9.67773 22.1374 14.289 22.1374 19.977Z" fill="#F7F7F7"/>
<path d="M33.3736 19.9791C33.3736 25.3331 31.0837 29.675 28.259 29.675C25.4344 29.675 23.1445 25.3331 23.1445 19.9791C23.1445 14.6252 25.434 10.2832 28.2587 10.2832C31.0834 10.2832 33.3732 14.6238 33.3732 19.9791" fill="#F7F7F7"/>
<path d="M37.9527 19.9846C37.9527 24.7804 37.1475 28.6706 36.1539 28.6706C35.1603 28.6706 34.3555 24.7815 34.3555 19.9846C34.3555 15.1877 35.1607 11.2986 36.1539 11.2986C37.1471 11.2986 37.9527 15.1874 37.9527 19.9846Z" fill="#F7F7F7"/>
</g>
<defs>
<clipPath id="clip0">
<rect width="40" height="40" fill="white"/>
</clipPath>
</defs>
</svg>
