<svg width="174" height="41" viewBox="0 0 174 41" fill="none" xmlns="http://www.w3.org/2000/svg">
<path d="M3.44409 33.2085C2.02492 33.2085 0.842285 32.0732 0.842285 30.6067V23.7947C0.842285 22.3755 1.97762 21.1929 3.44409 21.1929C4.86326 21.1929 6.0459 22.3282 6.0459 23.7947V30.6067C5.99859 32.0259 4.86326 33.2085 3.44409 33.2085ZM13.6621 32.972V21.1456C13.6621 19.7264 12.5268 18.5438 11.0603 18.5438C9.64112 18.5438 8.45848 19.6791 8.45848 21.1456V32.972C8.45848 34.3911 9.59381 35.5738 11.0603 35.5738C12.4795 35.5265 13.6621 34.3911 13.6621 32.972ZM21.2783 35.5738V18.6857C21.2783 17.2665 20.143 16.0839 18.6765 16.0839C17.2573 16.0839 16.0747 17.2192 16.0747 18.6857V35.5738C16.0747 36.9929 17.21 38.1756 18.6765 38.1756C20.143 38.1756 21.2783 36.9929 21.2783 35.5738ZM28.9418 37.9864V15.9893C28.9418 14.5701 27.8065 13.3875 26.34 13.3875C24.9208 13.3875 23.7382 14.5228 23.7382 15.9893V37.9864C23.7382 39.4055 24.8735 40.5882 26.34 40.5882C27.7591 40.5882 28.9418 39.4055 28.9418 37.9864ZM40.2478 10.1707L5.76206 0.0946111C5.52554 0.0473056 5.2417 0 5.00517 0C3.5387 0 2.26145 1.18264 2.26145 2.74372V19.0168H4.29559V2.74372C4.29559 2.31797 4.62673 2.08144 4.95787 2.08144C5.00517 2.08144 5.09979 2.08144 5.14709 2.12875L39.6328 12.2048C39.9167 12.2994 40.1059 12.536 40.1059 12.8671V34.5331C40.1059 34.9588 39.7748 35.1953 39.4436 35.1953C39.3963 35.1953 39.3017 35.1953 39.2544 35.148L31.4017 32.8301V35.0061L38.6867 37.1349C38.9233 37.2295 39.2071 37.2295 39.4436 37.2295C40.9101 37.2295 42.1873 36.0468 42.1873 34.4858V12.8198C42.2346 11.5899 41.4305 10.5018 40.2478 10.1707ZM62.2449 9.79225C63.6168 9.55572 65.3671 9.3665 67.6377 9.3665C70.4288 9.3665 72.4629 10.0288 73.7402 11.1641C74.9228 12.2048 75.6324 13.7659 75.6324 15.7054C75.6324 17.6923 75.0647 19.2061 73.9294 20.3414C72.4629 21.9025 70.003 22.754 67.2593 22.754C66.4078 22.754 65.6509 22.7067 64.9886 22.5648V31.269H62.1976V9.79225H62.2449ZM65.0359 20.2941C65.6509 20.436 66.4078 20.5306 67.3539 20.5306C70.7599 20.5306 72.794 18.8749 72.794 15.8947C72.794 13.009 70.7599 11.6372 67.6377 11.6372C66.4078 11.6372 65.4617 11.7318 64.9886 11.8737V20.2941H65.0359ZM92.6624 23.3689C92.6624 29.1402 88.6414 31.6947 84.857 31.6947C80.6468 31.6947 77.3827 28.5726 77.3827 23.6528C77.3827 18.4019 80.7887 15.327 85.1408 15.327C89.6348 15.327 92.6624 18.5911 92.6624 23.3689ZM80.2683 23.5109C80.2683 26.9169 82.2551 29.5187 84.9989 29.5187C87.6953 29.5187 89.7294 26.9642 89.7294 23.4636C89.7294 20.8144 88.4049 17.4558 85.0462 17.4558C81.7348 17.4558 80.2683 20.5779 80.2683 23.5109ZM97.1564 15.6581L99.2379 23.6528C99.7109 25.4031 100.089 27.0115 100.42 28.6199H100.515C100.894 27.0588 101.367 25.3558 101.887 23.7001L104.441 15.7054H106.854L109.267 23.5109C109.834 25.4031 110.307 27.0115 110.638 28.6199H110.733C110.97 27.0588 111.395 25.4031 111.916 23.5582L114.139 15.7054H116.93L111.868 31.3636H109.267L106.854 23.8893C106.286 22.139 105.861 20.5779 105.482 18.733H105.435C105.056 20.6252 104.583 22.2336 104.016 23.8893L101.509 31.3163H98.9067L94.1762 15.6581H97.1564ZM121.093 24.0312C121.14 27.863 123.6 29.4714 126.439 29.4714C128.473 29.4714 129.703 29.0929 130.791 28.6672L131.264 30.7013C130.27 31.1744 128.567 31.6474 126.06 31.6474C121.235 31.6474 118.349 28.4779 118.349 23.7474C118.349 19.0168 121.14 15.327 125.682 15.327C130.791 15.327 132.163 19.821 132.163 22.7067C132.163 23.2743 132.115 23.7474 132.068 24.0312H121.093ZM129.419 21.9971C129.466 20.1995 128.662 17.3611 125.492 17.3611C122.607 17.3611 121.377 20.0103 121.14 21.9971H129.419ZM135.663 20.5779C135.663 18.733 135.616 17.1719 135.521 15.7054H138.028L138.123 18.7803H138.265C138.975 16.6989 140.678 15.3743 142.617 15.3743C142.948 15.3743 143.185 15.4216 143.421 15.4689V18.1653C143.137 18.118 142.854 18.0707 142.475 18.0707C140.488 18.0707 139.069 19.5845 138.643 21.7133C138.596 22.0917 138.501 22.5648 138.501 23.0378V31.3636H135.663V20.5779ZM153.166 9.83956C154.396 9.60303 156.336 9.3665 158.322 9.3665C161.114 9.3665 162.958 9.83956 164.283 10.9276C165.418 11.7791 166.081 13.0563 166.081 14.7593C166.081 16.8408 164.709 18.6857 162.391 19.5372V19.5845C164.472 20.1049 166.885 21.8079 166.885 25.0246C166.885 26.9169 166.128 28.336 165.04 29.3768C163.526 30.7486 161.066 31.4109 157.518 31.4109C155.579 31.4109 154.112 31.269 153.166 31.1744V9.83956ZM156.005 18.733H158.559C161.539 18.733 163.29 17.1719 163.29 15.0905C163.29 12.536 161.35 11.5426 158.512 11.5426C157.234 11.5426 156.478 11.6372 156.005 11.7318V18.733ZM156.005 29.1875C156.572 29.2821 157.376 29.3294 158.37 29.3294C161.255 29.3294 163.952 28.2414 163.952 25.1193C163.952 22.139 161.397 20.9091 158.322 20.9091H156.005V29.1875ZM173.508 9.55572V31.3163H170.717V9.55572H173.508Z" fill="white"/>
</svg>
