<svg width="93" height="55" viewBox="0 0 93 55" fill="none" xmlns="http://www.w3.org/2000/svg">
<path d="M26.7087 19.7072C26.7087 20.8239 26.8308 21.7292 27.0445 22.3932C27.2888 23.0571 27.594 23.7815 28.0214 24.5661C28.1741 24.8076 28.2351 25.049 28.2351 25.2603C28.2351 25.562 28.052 25.8638 27.6551 26.1656L25.7318 27.4332C25.457 27.6143 25.1823 27.7048 24.9381 27.7048C24.6328 27.7048 24.3275 27.5539 24.0222 27.2823C23.5948 26.8296 23.2284 26.3467 22.9232 25.8638C22.6179 25.3508 22.3126 24.7774 21.9768 24.0833C19.5955 26.8598 16.6037 28.248 13.0013 28.248C10.4369 28.248 8.3915 27.5237 6.8956 26.0751C5.39969 24.6265 4.63647 22.695 4.63647 20.2806C4.63647 17.7154 5.55234 15.633 7.41459 14.0637C9.27683 12.4943 11.7497 11.7097 14.8941 11.7097C15.9321 11.7097 17.0006 11.8002 18.1302 11.9511C19.2597 12.102 20.4198 12.3434 21.641 12.615V10.4119C21.641 8.11829 21.1525 6.51877 20.2061 5.58321C19.2292 4.64764 17.5806 4.19495 15.2299 4.19495C14.1614 4.19495 13.0624 4.31567 11.9328 4.58729C10.8033 4.8589 9.70424 5.19088 8.63573 5.61339C8.14727 5.82465 7.78093 5.94536 7.56723 6.00572C7.35353 6.06608 7.20088 6.09626 7.07877 6.09626C6.65137 6.09626 6.43767 5.79447 6.43767 5.1607V3.6819C6.43767 3.19903 6.49872 2.83687 6.65137 2.62562C6.80401 2.41436 7.07877 2.2031 7.50617 1.99185C8.57467 1.44862 9.85688 0.995924 11.3528 0.63377C12.8487 0.241436 14.4362 0.060359 16.1153 0.060359C19.7482 0.060359 22.4042 0.875206 24.1138 2.5049C25.7929 4.13459 26.6477 6.60931 26.6477 9.92906V19.7072H26.7087ZM14.3141 24.2945C15.3215 24.2945 16.3595 24.1134 17.4585 23.7513C18.5576 23.3891 19.5345 22.7252 20.3587 21.8198C20.8472 21.2464 21.2136 20.6126 21.3967 19.8883C21.5799 19.164 21.702 18.2888 21.702 17.2627V15.9951C20.8167 15.7839 19.8703 15.6028 18.8934 15.4821C17.9165 15.3614 16.9701 15.301 16.0237 15.301C13.9783 15.301 12.4823 15.6933 11.4749 16.5082C10.4675 17.323 9.97899 18.4699 9.97899 19.9788C9.97899 21.3973 10.3453 22.4536 11.1086 23.1779C11.8412 23.9324 12.9097 24.2945 14.3141 24.2945ZM38.8286 27.5539C38.2791 27.5539 37.9127 27.4634 37.6685 27.2521C37.4243 27.071 37.2106 26.6485 37.0274 26.0751L29.8532 2.74634C29.67 2.14275 29.5784 1.75041 29.5784 1.53916C29.5784 1.05628 29.8226 0.784667 30.3111 0.784667H33.3029C33.883 0.784667 34.2798 0.875206 34.4935 1.08646C34.7378 1.26754 34.9209 1.69005 35.1041 2.26346L40.2329 22.2423L44.9954 2.26346C45.148 1.65987 45.3312 1.26754 45.5754 1.08646C45.8197 0.905385 46.2471 0.784667 46.7966 0.784667H49.2389C49.8189 0.784667 50.2158 0.875206 50.46 1.08646C50.7043 1.26754 50.918 1.69005 51.0401 2.26346L55.8636 22.4837L61.1451 2.26346C61.3282 1.65987 61.5419 1.26754 61.7556 1.08646C61.9999 0.905385 62.3967 0.784667 62.9463 0.784667H65.7854C66.2739 0.784667 66.5486 1.0261 66.5486 1.53916C66.5486 1.69005 66.5181 1.84095 66.4876 2.02203C66.4571 2.2031 66.396 2.44454 66.2739 2.77652L58.9165 26.1053C58.7333 26.7089 58.5196 27.1012 58.2754 27.2823C58.0311 27.4634 57.6343 27.5841 57.1153 27.5841H54.4898C53.9098 27.5841 53.5129 27.4935 53.2687 27.2823C53.0244 27.071 52.8107 26.6787 52.6886 26.0751L47.9567 6.60931L43.2553 26.0449C43.1026 26.6485 42.9194 27.0408 42.6752 27.2521C42.431 27.4634 42.0036 27.5539 41.4541 27.5539H38.8286ZM78.058 28.3687C76.4705 28.3687 74.883 28.1877 73.3565 27.8255C71.8301 27.4634 70.6395 27.071 69.8457 26.6183C69.3573 26.3467 69.0215 26.0449 68.8994 25.7733C68.7772 25.5017 68.7162 25.1999 68.7162 24.9283V23.3891C68.7162 22.7554 68.9604 22.4536 69.4183 22.4536C69.6015 22.4536 69.7847 22.4837 69.9679 22.5441C70.151 22.6045 70.4258 22.7252 70.7311 22.8459C71.7691 23.2986 72.8986 23.6607 74.0892 23.9022C75.3104 24.1436 76.501 24.2643 77.7221 24.2643C79.6455 24.2643 81.1414 23.9324 82.1793 23.2684C83.2173 22.6045 83.7668 21.6387 83.7668 20.4014C83.7668 19.5563 83.4921 18.8622 82.9426 18.2888C82.393 17.7154 81.3551 17.2023 79.8592 16.7194L75.4325 15.3614C73.2039 14.6672 71.5554 13.6411 70.5479 12.2831C69.5405 10.9552 69.0215 9.47637 69.0215 7.90703C69.0215 6.63949 69.2962 5.52285 69.8457 4.55711C70.3953 3.59136 71.1279 2.74634 72.0438 2.08239C72.9597 1.38826 73.9977 0.875206 75.2188 0.513052C76.4399 0.150898 77.7221 0 79.0654 0C79.737 0 80.4392 0.0301795 81.1108 0.120718C81.813 0.211257 82.4541 0.331975 83.0952 0.452693C83.7058 0.60359 84.2858 0.754488 84.8353 0.935565C85.3848 1.11664 85.8122 1.29772 86.1175 1.4788C86.5449 1.72023 86.8502 1.96167 87.0334 2.23328C87.2166 2.47472 87.3082 2.80669 87.3082 3.22921V4.64764C87.3082 5.28141 87.0639 5.61339 86.606 5.61339C86.3618 5.61339 85.9649 5.49267 85.4459 5.25124C83.7058 4.46657 81.7519 4.07423 79.5844 4.07423C77.8443 4.07423 76.4705 4.34585 75.5241 4.91926C74.5777 5.49267 74.0892 6.36788 74.0892 7.60524C74.0892 8.45026 74.3945 9.17457 75.0051 9.74798C75.6157 10.3214 76.7452 10.8948 78.3633 11.4079L82.6983 12.7659C84.8964 13.4601 86.4839 14.4258 87.4303 15.6632C88.3767 16.9005 88.8346 18.319 88.8346 19.8883C88.8346 21.186 88.5598 22.363 88.0408 23.3891C87.4913 24.4152 86.7586 25.3206 85.8122 26.0449C84.8659 26.7994 83.7363 27.3426 82.4236 27.735C81.0498 28.1575 79.6149 28.3687 78.058 28.3687Z" fill="white"/>
<path fill-rule="evenodd" clip-rule="evenodd" d="M83.829 43.0357C73.7851 50.3693 59.1924 54.2625 46.6451 54.2625C29.0606 54.2625 13.2162 47.8342 1.24893 37.1507C0.302543 36.3057 1.15735 35.1589 2.28691 35.8228C15.2311 43.247 31.1976 47.7437 47.7136 47.7437C58.8566 47.7437 71.0986 45.4501 82.3637 40.7421C84.0427 39.9876 85.4776 41.8285 83.829 43.0357Z" fill="white"/>
<path fill-rule="evenodd" clip-rule="evenodd" d="M88.0111 38.3282C86.7289 36.6985 79.5241 37.5435 76.2576 37.9359C75.2806 38.0566 75.128 37.2115 76.0133 36.5778C81.7527 32.5941 91.1861 33.7409 92.2851 35.0688C93.3842 36.4269 91.9798 45.7523 86.6068 50.2189C85.7825 50.913 84.9888 50.5509 85.3551 49.6455C86.5763 46.6577 89.2933 39.9277 88.0111 38.3282Z" fill="white"/>
</svg>
