<svg xmlns="http://www.w3.org/2000/svg" viewBox="0 0 352.4 74.68"><path d="M0,64.82c1.07-2,1.86-2.36,4-1.6a115.54,115.54,0,0,0,23.31,5.19,167.79,167.79,0,0,0,24,1.32c10.47-.13,20.91-.61,31.24-2.48a62.5,62.5,0,0,0,13.32-3.79c2.3-1,3.83.07,3.85,2.6,0,1.35,0,2.71,0,4.06,0,.73-.18,1.07-1,1.16-6.33.76-12.65,1.74-19,2.31-11.83,1-23.69,1.16-35.56,1A260.07,260.07,0,0,1,1.4,70.75c-1-.16-1.38-.49-1.29-1.53a26.9,26.9,0,0,0-.11-3Z" fill="#162a47"/><path d="M218.14,40.1c-.77,1.93-1.5,3.88-2.32,5.8-2.06,4.83-4.17,9.64-6.21,14.48a1.85,1.85,0,0,1-2,1.29c-4.5,0-3.65.11-5.19-3.32-2.62-5.83-5.56-11.55-7.29-17.76a.86.86,0,0,0-.41-.51c0,.28-.05.56-.05.85q.38,13,.73,26c0,1.45-.14,1.61-1.53,1.62-2.08,0-4.16,0-6.23,0-1.15,0-1.56-.47-1.55-1.57q0-24,0-47.95c0-.9.31-1.35,1.24-1.34,2,0,3.92-.06,5.87.05a2,2,0,0,1,1.43.95q5.45,12.81,10.75,25.66c.37.9.59,1.87,1,3.05,1.2-3,2.27-5.86,3.42-8.65C212.52,32.18,215.3,25.58,218,19a1.67,1.67,0,0,1,1.79-1.23c1.84.06,3.68.05,5.51,0,1,0,1.41.42,1.4,1.34q0,6.53,0,13c0,.51,0,1,0,1.55V66.9c0,1.65,0,1.68-1.67,1.69h-6c-1.31,0-1.58-.35-1.54-1.66.21-7.57.4-15.14.61-22.7,0-1.37.15-2.74.22-4.11Z" fill="#162a47"/><path d="M19.46,65.59c0-3.54-.15-6.82.1-10.06.07-.93,1.13-2,2-2.64,2.52-1.85,5.52-2.64,8.51-3.35a80,80,0,0,1,16-1.95,93.94,93.94,0,0,1,22.27,1.69,32,32,0,0,1,8.91,3,5,5,0,0,1,3,5.11c-.16,2.22,0,4.47,0,6.7,0,1.66,0,1.7-1.67,1.82-6.05.43-12.1,1.06-18.15,1.2-8,.18-16,.14-24-.13C30.83,66.83,25.23,66.1,19.46,65.59Zm36.77-9.35-.1-.35c-1.07,0-2.13,0-3.2,0a1.2,1.2,0,0,1-1.4-1c-.34-1.08-.8-2.13-1.3-3.44-.45,1.19-.87,2.14-1.16,3.12S48.35,56,47.3,55.91s-2,0-3,0l-.06.37c.77.61,1.52,1.27,2.33,1.82a1.51,1.51,0,0,1,.71,2.08,30.69,30.69,0,0,0-.87,3.22c1.22-.8,2.17-1.38,3.05-2a1.14,1.14,0,0,1,1.57,0c.91.67,1.87,1.25,3.1,2.06-.38-1.43-.62-2.51-1-3.55a1.15,1.15,0,0,1,.49-1.51C54.53,57.66,55.37,56.94,56.23,56.24Zm-22.85.48c-.42,0-.68-.1-.94-.11-2.33-.09-2.32-.09-3.15-2.24-.11-.29-.24-.56-.36-.83-.47,2.5-1.93,3.59-4.57,3.14a11.37,11.37,0,0,0,1.8,1.58,1.1,1.1,0,0,1,.48,1.5,24.28,24.28,0,0,0-.63,2.4l2.85-1.84,2.88,1.79c-.31-1.25-.93-2.33-.67-3.12S32.46,57.57,33.38,56.72Zm42.15.11c-.15-.1-.2-.17-.27-.18-.23,0-.47,0-.71,0-2.16-.06-2.16-.06-2.91-2.05-.13-.36-.31-.7-.53-1.19-.45,1.1-.59,2.38-1.3,2.9s-2,.36-3.24.51a18.57,18.57,0,0,0,1.69,1.37,1.24,1.24,0,0,1,.59,1.77,18.35,18.35,0,0,0-.61,2.28l2.89-1.89L74,62.14c-.33-1.29-1-2.37-.7-3.15S74.71,57.58,75.53,56.83Z" fill="#162a47"/><path d="M174.71,68.59c-1.12,0-2.24,0-3.36,0a1.56,1.56,0,0,1-1.8-1.33c-.58-2.23-1.3-4.43-1.87-6.66A1.82,1.82,0,0,0,165.59,59c-3.24.07-6.48,0-9.71,0a1.74,1.74,0,0,0-2,1.55c-.54,2.2-1.26,4.35-1.82,6.55a1.68,1.68,0,0,1-1.91,1.5c-2.28-.06-4.56,0-6.83,0-1.29,0-1.47-.29-1.09-1.53q7.29-24,14.58-48a1.6,1.6,0,0,1,1.79-1.36c1.44.06,2.88.07,4.31,0,1.15-.07,1.61.45,1.93,1.49q4.36,14.45,8.8,28.88,2.84,9.24,5.66,18.49c.55,1.82.42,2-1.46,2ZM160.88,34.26l-.22,0c-.19.81-.39,1.61-.58,2.42-1,4.13-2,8.27-3,12.4-.23.93-.09,1.45,1,1.42,1.79-.05,3.59,0,5.38,0,.87,0,1.13-.38.93-1.21Q162.66,41.79,160.88,34.26Z" fill="#162a47"/><path d="M119.58,69.5c-6.73.16-12-2.2-15.15-8.45-.63-1.27-.58-1.47.69-2.11,2-1,3.92-2,5.86-3,.79-.42,1.35-.35,1.77.48a12.8,12.8,0,0,0,.69,1.11,8.3,8.3,0,0,0,11.41,2.27,5.47,5.47,0,0,0,.62-8.75,24.76,24.76,0,0,0-4.34-2.72c-2.87-1.56-5.83-3-8.68-4.56C104.36,39.21,104,29.57,107,24.1a13.22,13.22,0,0,1,11-7,28.59,28.59,0,0,1,8.2.45c4.56.91,7.47,4,9.46,8.09.41.84.09,1.33-.69,1.71-2,1-4.07,2-6.08,3.09-.91.48-1.39.18-1.76-.69a6.79,6.79,0,0,0-5.3-4.34,6.1,6.1,0,0,0-7.22,6.36c.19,2.06,1.53,3.27,3.25,4.12,2.14,1.06,4.37,2,6.48,3.08a52,52,0,0,1,6.55,3.92c4.19,3.13,5.88,7.52,5.62,12.66a18.64,18.64,0,0,1-.66,4.47c-1.72,5.55-5.88,8.19-11.37,9.07C122.85,69.34,121.21,69.36,119.58,69.5Z" fill="#162a47"/><path d="M56.22,0V44H42.45c0-.37-.06-.8-.06-1.22,0-13.75,0-27.5,0-41.25C42.36.42,42.65,0,43.81,0,47.91,0,52,0,56.22,0Z" fill="#bf262d"/><path d="M33.53,1.3V45.16c-4.79,1.11-9.67,1.92-13.76,5.3,0-.42-.07-.74-.07-1.06q0-21.24,0-42.46a1.66,1.66,0,0,1,.52-1.27A53.56,53.56,0,0,1,33.53,1.3Z" fill="#bf262d"/><path d="M66.48,1.75c1.23.3,2.41.48,3.52.87q4.74,1.68,9.4,3.52a1.59,1.59,0,0,1,.83,1.19q.08,21.24,0,42.47c0,.18,0,.36-.09.7-4-2.94-8.5-4-13.08-4.89-.27-.06-.47-.49-.66-.78-.07-.11,0-.31,0-.47V2.86C66.43,2.54,66.46,2.23,66.48,1.75Z" fill="#bf262d"/><path d="M278.78,51.62h-11.3V48.28h15c.07,6.49-.44,12.76-4.89,17.92-3,3.48-7,4.54-11.46,4.22-7-.5-11.21-4.6-13.13-11.07-2.14-7.25-2.07-14.53,1-21.51a14.41,14.41,0,0,1,19.62-7.21c4.3,2.07,6.38,5.83,7.63,10.19.12.42.19.84.31,1.37h-3.72c-.22-.71-.44-1.46-.7-2.2-1.57-4.58-4.72-7.11-9.06-7.28-5.26-.2-8.86,2-10.83,6.62a27.56,27.56,0,0,0-1.78,12,26.48,26.48,0,0,0,1.55,8.66c2.62,6.89,8.93,8.17,14.16,6.49,3.85-1.24,5.63-4.42,6.51-8.1C278.23,56.21,278.41,54,278.78,51.62Z" fill="#162a47"/><path d="M319,48.9c-.14,5.2-.69,9.22-2.37,13.06-4.62,10.55-17.78,10.32-23.36,4.79a18.51,18.51,0,0,1-5-10,32.53,32.53,0,0,1,.85-16.87c1.65-4.89,4.57-8.7,9.88-10s10.11-.69,14.21,3.12a17.46,17.46,0,0,1,5,9.74C318.62,45.11,318.79,47.54,319,48.9Zm-3.84.92a28.58,28.58,0,0,0-1.78-10.36c-1.78-4.22-4.88-6.6-9.54-6.75-4.91-.17-8.62,1.82-10.46,6.41a29.18,29.18,0,0,0-1.79,7.62,27.47,27.47,0,0,0,1.5,13.4C295,64.9,298.37,67.07,303.7,67c4.6,0,8-2.5,9.8-7.07A30.23,30.23,0,0,0,315.12,49.82Z" fill="#162a47"/><path d="M321.71,30.16c1.22,0,2.25.05,3.28,0,.83,0,.85.58,1,1.08q4.15,12.31,8.29,24.64c.87,2.6,1.75,5.19,2.73,8.07.23-.58.37-.9.48-1.23Q342.76,47.05,348,31.38c.32-1,.75-1.35,1.78-1.22a20.81,20.81,0,0,0,2.64,0c-.81,2.39-1.54,4.6-2.3,6.81q-5.36,15.7-10.7,31.4a1.45,1.45,0,0,1-1.67,1.22c-2.55-.08-2.57,0-3.41-2.44q-6.18-18-12.35-36C321.88,30.91,321.83,30.65,321.71,30.16Z" fill="#162a47"/><path d="M230.82,62.77c2.07-.1,3.77-.24,5.47-.25a1.29,1.29,0,0,0,1.43-1.07c.53-1.58,1.15-3.13,1.87-5.08A31.68,31.68,0,0,1,241,60.14c.41,1.83,1.37,2.65,3.28,2.47,1.25-.12,2.52,0,3.78,0l.1.34c-1.32,1-2.61,2.14-4,3.14a1.38,1.38,0,0,0-.57,1.81c.52,1.58.9,3.2,1.44,5.13-1.69-1.1-3.15-2-4.54-3a1.3,1.3,0,0,0-1.79,0c-1.39,1-2.83,1.92-4.51,3,.54-2,1-3.65,1.49-5.31a1.24,1.24,0,0,0-.54-1.6C233.78,65.14,232.46,64.06,230.82,62.77Z" fill="#bf262d"/><path d="M56.23,56.24c-.86.7-1.7,1.42-2.6,2.07a1.15,1.15,0,0,0-.49,1.51c.36,1,.6,2.12,1,3.55-1.23-.81-2.19-1.39-3.1-2.06a1.14,1.14,0,0,0-1.57,0c-.88.66-1.83,1.24-3.05,2a30.69,30.69,0,0,1,.87-3.22,1.51,1.51,0,0,0-.71-2.08c-.81-.55-1.56-1.21-2.33-1.82l.06-.37c1,0,2-.07,3,0s1.5-.39,1.77-1.31.71-1.93,1.16-3.12c.5,1.31,1,2.36,1.3,3.44a1.2,1.2,0,0,0,1.4,1c1.07,0,2.13,0,3.2,0Z" fill="#fff"/><path d="M33.38,56.72c-.92.85-2,1.42-2.31,2.27s.36,1.87.67,3.12l-2.88-1.79L26,62.16a24.28,24.28,0,0,1,.63-2.4,1.1,1.1,0,0,0-.48-1.5,11.37,11.37,0,0,1-1.8-1.58c2.64.45,4.1-.64,4.57-3.14.12.27.25.54.36.83.83,2.15.82,2.15,3.15,2.24C32.7,56.62,33,56.67,33.38,56.72Z" fill="#fff"/><path d="M75.53,56.83c-.82.75-1.94,1.31-2.22,2.16s.37,1.86.7,3.15L71.13,60.3l-2.89,1.89a18.35,18.35,0,0,1,.61-2.28,1.24,1.24,0,0,0-.59-1.77,18.57,18.57,0,0,1-1.69-1.37c1.23-.15,2.51,0,3.24-.51s.85-1.8,1.3-2.9c.22.49.4.83.53,1.19.75,2,.75,2,2.91,2.05.24,0,.48,0,.71,0C75.33,56.66,75.38,56.73,75.53,56.83Z" fill="#fff"/></svg>