<svg width="155" height="145" viewBox="0 0 155 145" fill="none" xmlns="http://www.w3.org/2000/svg">
<g clip-path="url(#clip0)">
<path d="M139.761 96.0495C141.357 95.9164 144.504 94.2749 146.853 92.5003C149.203 90.6814 152.97 85.5794 152.97 85.5794C151.153 85.4464 147.518 87.4428 145.08 88.8624C142.598 90.2821 140.869 92.7222 140.16 93.2102C139.451 93.6982 138.52 93.8756 138.52 93.8756L138.21 94.0087C139.85 89.9715 141.091 85.7569 141.933 81.3648C142.332 81.0543 142.997 80.5219 143.883 80.167C145.346 79.5459 147.873 76.9727 149.38 74.4883C152.04 70.1405 153.414 65.5266 153.414 65.5266C151.552 66.2808 148.36 69.5194 146.632 71.782C144.814 74.1777 143.44 76.3072 143.263 77.372C143.174 77.9044 142.687 78.5698 142.332 79.0135C142.687 76.5291 142.908 73.9559 142.997 71.3828C143.352 71.0722 143.795 70.7173 144.371 70.4511C145.79 69.6969 147.873 66.8132 149.203 64.1513C151.508 59.6261 151.818 54.6129 151.818 54.6129C150.222 55.8551 147.873 59.1825 146.321 61.5782C144.726 64.1069 143.573 66.5914 143.174 67.2568C143.086 67.3899 143.041 67.523 142.953 67.7005C142.908 65.7928 142.775 63.8851 142.554 62.0218C142.864 61.7556 143.219 61.4451 143.662 61.1789C144.992 60.3359 146.898 57.2748 148.006 54.5685C149.956 49.8659 149.912 44.8527 149.912 44.8527C148.405 46.1836 146.233 49.3335 144.903 51.8179C143.485 54.4798 142.864 57.2304 142.687 58.2508C142.642 58.6057 142.421 59.1381 142.199 59.6261C141.977 58.1621 141.711 56.7424 141.357 55.3227C141.534 55.0122 141.844 54.4355 142.332 53.6813C143.219 52.3503 144.637 49.023 145.258 46.1393C146.366 41.1704 145.391 36.2459 145.391 36.2459C144.149 37.8431 142.598 41.3035 141.711 44.0098C140.781 46.8935 140.648 49.7328 140.692 50.7532C140.692 51.0637 140.603 51.5517 140.515 51.9954C139.983 50.0877 139.362 48.2688 138.653 46.4054C138.919 46.228 139.274 45.6069 139.717 44.8527C140.559 43.4774 141.091 40.1057 141.135 37.1332C141.224 32.0313 139.274 27.4174 139.274 27.4174C138.343 29.2363 137.678 32.5193 137.412 35.6248C137.19 38.5085 137.456 41.2591 136.969 42.5014C136.215 40.8599 135.417 39.2627 134.531 37.71C134.575 37.3551 134.797 36.3347 135.461 35.2255C136.259 33.8502 136.525 30.3011 136.259 27.3286C135.86 22.2711 133.467 17.8346 133.467 17.8346C132.758 19.6979 132.27 23.5133 132.226 26.3526C132.181 29.3694 132.27 31.144 132.625 32.1644C132.891 32.9629 132.846 34.6044 132.846 34.6044L133.777 36.4678C132.536 34.3383 131.162 32.3418 129.699 30.3898C129.832 29.7687 130.054 28.6596 130.142 28.2603C130.408 26.7075 130.674 23.9126 130.009 20.6739C128.99 15.7051 126.463 11.4461 126.463 11.4461C125.887 13.3981 125.71 17.1691 125.887 20.0085C126.064 23.0253 126.862 25.1104 127.261 26.0421C127.527 26.6188 127.483 27.3286 127.483 27.6392C125.887 25.7315 124.158 23.9126 122.341 22.1823L123.626 23.2471C123.626 23.2471 123.759 21.7387 123.759 21.2063C123.759 19.6535 124.158 17.7459 123.006 14.8622C121.277 10.4257 117.642 6.21105 117.642 6.21105C117.465 8.1631 117.598 11.1355 118.573 14.3742C119.415 17.1248 120.302 18.8993 120.834 19.7423C121.144 20.2747 121.277 20.9401 121.277 21.2063C119.859 19.9197 118.44 18.7219 116.933 17.524H116.977C116.977 17.524 116.933 17.4797 116.889 17.1248C116.844 16.6811 116.889 13.7974 115.825 10.2039C114.539 5.1463 108.999 0 108.999 0C108.999 0 109.619 6.07796 111.392 9.58277C112.944 12.6883 115.603 16.4149 116.179 17.3022V17.3466C116.179 17.3466 116.224 17.3466 116.224 17.391C116.268 17.4797 116.312 17.524 116.312 17.524L115.958 17.4797C115.958 17.4797 115.071 16.6368 110.949 16.3706C105.098 15.9713 101.197 16.6811 101.197 16.6811C101.197 16.6811 105.718 19.4317 111.171 20.4521C115.914 21.3394 118.174 20.3634 119.327 20.0085C121.011 21.5169 122.607 23.0696 124.158 24.7111L123.139 24.0013C123.139 24.0013 121.72 23.7351 119.415 23.2027C113.653 21.8718 110.506 22.0049 110.506 22.0049C110.506 22.0049 113.875 25.1104 119.105 27.1068C123.892 28.9258 126.197 28.5265 127.35 28.3934C129.078 30.5229 130.674 32.7411 132.137 35.0481L131.694 34.5157C131.694 34.5157 130.408 33.8946 128.325 32.7411C123.139 29.9018 120.08 29.1476 120.08 29.1476C120.08 29.1476 122.385 33.0517 126.818 36.5121C130.453 39.3515 133.777 40.1944 135.151 40.5049C136.126 42.457 137.013 44.4978 137.766 46.5829C137.545 46.4054 136.525 45.5182 134.974 44.0985C130.63 40.1057 127.97 38.5973 127.97 38.5973C127.97 38.5973 128.724 43.1225 132.625 47.6477C136.126 51.7736 138.564 52.6609 139.672 52.8383C140.249 55.1896 140.648 57.5853 140.869 60.0254C140.559 59.8923 139.938 59.3599 138.963 57.8072C135.24 51.9954 132.536 50.1321 132.536 50.1321C132.536 50.1321 132.403 54.7016 135.373 59.8923C137.944 64.4619 140.027 66.4583 141.135 67.3012C141.135 67.4787 141.135 67.6561 141.135 67.8336C141.047 70.1849 140.825 72.4475 140.559 74.6657C140.293 74.3108 139.938 73.601 139.584 72.1813C137.722 65.5266 135.683 62.9535 135.683 62.9535C135.683 62.9535 134.841 66.9907 135.816 72.8468C136.88 79.1022 138.697 80.8768 139.407 81.3204C139.052 83.0063 138.609 84.6922 138.121 86.2893C138.032 85.6682 137.899 84.8252 137.722 83.7161C136.791 76.8396 135.151 74.0446 135.151 74.0446C135.151 74.0446 133.733 77.9044 133.91 83.8936C134.087 89.2617 135.196 91.5243 135.949 92.4116C135.284 94.0531 134.531 95.6502 133.733 97.203C133.733 96.5819 133.733 95.739 133.688 94.6742C133.6 89.0843 132.58 84.6478 132.58 84.6478C132.58 84.6478 130.231 89.661 129.566 94.0975C129.078 97.4248 129.876 101.285 130.275 102.97C129.3 104.39 128.325 105.81 127.261 107.141C127.039 106.741 126.951 105.677 127.394 103.325C128.325 97.8241 127.039 93.8313 127.039 93.8313C127.039 93.8313 124.114 98.667 123.36 102.394C122.74 105.322 123.183 109.803 123.405 111.533C121.942 113.041 120.435 114.461 118.839 115.792C119.282 114.283 119.947 112.065 120.213 111.089C120.656 109.492 121.942 102.837 121.942 102.837C121.942 102.837 117.731 105.987 116.047 110.867C114.805 114.505 114.451 117.788 114.362 119.208C112.678 120.361 110.949 121.47 109.132 122.491C109.309 122.047 110.373 119.696 111.57 117.833C112.899 115.792 114.451 110.956 114.318 110.867C114.318 110.867 113.653 111.045 113.165 111.444C112.19 112.198 107.935 115.703 106.029 119.252C104.433 122.18 103.857 124.399 103.768 125.286C101.064 126.528 98.2273 127.637 95.3018 128.613L97.6954 125.996C98.05 125.685 98.4489 125.33 98.8035 124.975C102.394 121.47 104.123 116.546 104.123 116.546C104.123 116.546 98.6262 119.341 96.0553 122.092C93.4844 124.887 91.2681 129.855 91.2681 129.855L95.0801 132.34C95.0358 132.34 94.9915 132.34 94.9915 132.34C94.9915 132.34 98.2716 135.046 103.192 136.244C108.112 137.486 113.298 136.333 113.298 136.333C113.298 136.333 109.664 133.671 105.896 132.961C104.477 132.695 102.527 132.162 100.355 131.941C99.3798 131.852 100.311 131.275 100.444 131.009C101.419 130.61 102.394 130.21 103.325 129.767C103.325 129.767 108.511 132.429 111.481 132.562C114.451 132.695 122.607 131.63 122.607 131.63C121.543 130.831 118.839 129.456 114.229 128.924C111.703 128.613 109.353 128.835 107.979 128.613C107.359 128.524 107.226 128.17 107.226 127.859C109.265 126.794 111.215 125.596 113.077 124.354C112.057 125.153 111.215 125.863 111.215 125.863C111.215 125.863 113.919 127.726 119.016 127.282C124.07 126.839 129.876 123.689 129.876 123.689C129.876 123.689 124.114 122.89 120.036 123.068C118.396 123.112 116.8 124.132 114.983 124.044C114.406 123.999 116.224 122.269 115.825 122.491C116.844 121.737 117.82 120.982 118.75 120.184C118.75 120.184 123.937 121.47 126.773 120.45C129.61 119.43 136.747 115.393 136.747 115.393C135.461 115.082 132.403 114.594 127.926 115.792C125.887 116.369 125.045 116.59 123.848 116.901C123.094 117.123 122.961 116.723 123.006 116.324C124.07 115.259 125.089 114.195 126.109 113.086C127.527 113.086 132.314 113.041 136.437 111.444C139.229 110.379 143.972 105.854 143.972 105.854C142.642 105.943 139.761 105.987 135.417 107.629C133.378 108.383 131.694 109.315 130.408 109.758C129.699 109.98 129.61 109.448 129.699 108.827C130.541 107.717 131.339 106.608 132.093 105.455C133.6 105.233 138.165 104.39 141.977 102.261C144.593 100.797 148.582 95.6059 148.582 95.6059C147.252 95.8721 144.415 96.3601 140.382 98.6227C137.545 100.22 135.195 101.639 134.043 102.394C135.24 100.397 136.304 98.3121 137.235 96.1826C137.811 96.1382 138.742 96.1382 139.761 96.0495ZM116.357 17.4797H116.401C116.401 17.4797 116.401 17.4797 116.445 17.4797H116.357Z" fill="#1858A0"/>
<path d="M142.997 84.4261C142.643 85.2247 141.18 86.1563 141.18 86.1563L140.249 88.2858C140.249 88.2858 141.313 87.576 142.864 87.3098C144.416 87.0436 147.43 85.136 149.602 83.0952C151.774 81.0988 154.921 75.3757 154.921 75.3757C153.015 75.9081 149.824 78.0376 147.519 79.6347C145.169 81.2762 143.396 83.4501 142.997 84.4261Z" fill="#1858A0"/>
<path d="M17.5975 96.1382C18.5727 98.2677 19.6365 100.353 20.789 102.349C19.6365 101.595 17.2872 100.175 14.4503 98.5783C10.3723 96.3157 7.53539 95.8277 6.24992 95.5615C6.24992 95.5615 10.2393 100.752 12.8545 102.216C16.6223 104.346 21.2322 105.189 22.7393 105.41C23.4929 106.564 24.2908 107.673 25.133 108.782C25.2216 109.403 25.1329 109.98 24.4237 109.714C23.1383 109.27 21.4539 108.339 19.4149 107.584C15.0709 105.943 12.1897 105.898 10.8599 105.81C10.8599 105.81 15.6028 110.335 18.3953 111.4C22.5177 112.997 27.2606 113.086 28.7234 113.041C29.6986 114.15 30.7624 115.215 31.8262 116.28C31.8706 116.679 31.7376 117.034 30.984 116.857C29.7872 116.546 28.945 116.324 26.906 115.747C22.429 114.505 19.3705 115.038 18.0851 115.348C18.0851 115.348 25.2216 119.385 28.0585 120.406C30.8954 121.426 36.0816 120.14 36.0816 120.14C37.0567 120.938 38.0319 121.692 39.0071 122.446C38.6082 122.225 40.3812 123.999 39.8493 123.999C38.0319 124.088 36.4362 123.068 34.7961 123.023C30.7181 122.89 24.9556 123.644 24.9556 123.644C24.9556 123.644 30.7624 126.794 35.8156 127.238C40.8688 127.682 43.617 125.818 43.617 125.818C43.617 125.818 42.7748 125.108 41.7553 124.31C43.6614 125.552 45.6117 126.75 47.6064 127.815C47.6064 128.125 47.4734 128.48 46.8529 128.569C45.4787 128.791 43.1295 128.613 40.6028 128.879C35.9929 129.456 33.289 130.787 32.2252 131.586C32.2252 131.586 40.3812 132.65 43.3511 132.517C46.3209 132.384 51.5071 129.722 51.5071 129.722C52.4823 130.166 53.4132 130.565 54.3883 130.965C54.5213 131.186 55.4522 131.807 54.477 131.896C52.305 132.118 50.3546 132.606 48.9362 132.917C45.1685 133.626 41.5337 136.288 41.5337 136.288C41.5337 136.288 46.7199 137.442 51.6401 136.2C56.5603 134.957 59.8405 132.295 59.8405 132.295C59.8405 132.295 59.7962 132.295 59.7518 132.295L63.5639 129.811C63.5639 129.811 61.3033 124.842 58.7767 122.047C56.2057 119.252 50.7093 116.502 50.7093 116.502C50.7093 116.502 52.438 121.426 56.0284 124.931C56.383 125.286 56.782 125.641 57.1366 125.951L59.5302 128.569C56.6047 127.593 53.7678 126.484 51.0639 125.241C50.9752 124.354 50.399 122.136 48.8032 119.208C46.8972 115.659 42.5975 112.154 41.6667 111.4C41.1791 111 40.5142 110.823 40.5142 110.823C40.3369 110.912 41.8883 115.747 43.2624 117.788C44.4592 119.652 45.5231 122.003 45.7004 122.446C43.883 121.426 42.1543 120.317 40.4699 119.164C40.3812 117.744 40.0266 114.505 38.7855 110.823C37.1011 105.943 32.8901 102.793 32.8901 102.793C32.8901 102.793 34.1755 109.448 34.6188 111.045C34.9291 112.021 35.5496 114.239 35.9929 115.747C34.3972 114.416 32.8457 112.997 31.4273 111.488C31.6489 109.758 32.0922 105.277 31.4716 102.349C30.7181 98.667 27.7925 93.7869 27.7925 93.7869C27.7925 93.7869 26.5071 97.7797 27.4379 103.281C27.8369 105.632 27.7925 106.697 27.5709 107.096C26.5071 105.765 25.4876 104.39 24.5567 102.926C24.9556 101.24 25.7535 97.3361 25.2659 94.0531C24.601 89.6166 22.2517 84.6034 22.2517 84.6034C22.2517 84.6034 21.2322 89.0399 21.1436 94.6298C21.1436 95.6946 21.1436 96.5375 21.0993 97.1586C20.3014 95.6059 19.5478 94.0087 18.8829 92.3672C19.6365 91.4799 20.7446 89.2174 20.9219 83.8492C21.0993 77.9044 19.6808 74.0003 19.6808 74.0003C19.6808 74.0003 18.0407 76.7952 17.1099 83.6718C16.9769 84.8252 16.8439 85.6682 16.7109 86.2449C16.2234 84.6034 15.7801 82.9619 15.4255 81.2761C16.1347 80.8324 17.9521 79.0578 19.0159 72.8024C20.0354 66.9019 19.1489 62.9091 19.1489 62.9091C19.1489 62.9091 17.1099 65.4379 15.2482 72.137C14.8492 73.5566 14.4946 74.2665 14.273 74.6214C14.007 72.4031 13.7854 70.1405 13.6967 67.7892C13.6967 67.6118 13.6967 67.4343 13.6967 67.2568C14.8049 66.4139 16.8882 64.4175 19.4592 59.8479C22.3847 54.6573 22.2961 50.0877 22.2961 50.0877C22.2961 50.0877 19.6365 51.9067 15.8687 57.7628C14.8492 59.3599 14.273 59.8479 13.9627 59.981C14.2287 57.541 14.6276 55.1453 15.1595 52.794C16.312 52.6165 18.7056 51.6848 22.2074 47.6033C26.1081 43.1225 26.8617 38.5973 26.8617 38.5973C26.8617 38.5973 24.2021 40.1057 19.8581 44.0985C18.3067 45.5182 17.2872 46.4054 17.0656 46.5829C17.8191 44.4978 18.7056 42.5014 19.6808 40.5049C21.0549 40.1944 24.3794 39.3515 28.0142 36.5121C32.4468 33.0517 34.7518 29.1476 34.7518 29.1476C34.7518 29.1476 31.6933 29.8574 26.5071 32.7411C24.4237 33.8946 23.1383 34.5157 23.1383 34.5157L22.695 35.0481C24.1578 32.7411 25.7535 30.5229 27.4822 28.3934C28.6347 28.4821 30.9397 28.8814 35.7269 27.1068C40.9575 25.066 44.3263 22.0049 44.3263 22.0049C44.3263 22.0049 41.1791 21.8718 35.4167 23.2027C33.1117 23.7351 31.6933 24.0013 31.6933 24.0013L30.6737 24.7111C32.2252 23.0696 33.8209 21.5169 35.5053 20.0085C36.6578 20.3634 38.9628 21.3394 43.6614 20.4521C49.0692 19.4317 53.6348 16.6811 53.6348 16.6811C53.6348 16.6811 49.6898 15.9713 43.883 16.3706C39.805 16.6368 38.8741 17.4797 38.8741 17.4797L38.5638 17.524C38.5638 17.524 38.6082 17.4797 38.6525 17.391C38.6525 17.391 38.6968 17.3909 38.6968 17.3466V17.3022C39.3174 16.4593 41.9326 12.7327 43.4841 9.58277C45.2571 6.0336 45.8777 0 45.8777 0C45.8777 0 40.3812 5.19067 38.9184 10.1151C37.8546 13.7087 37.8989 16.5924 37.8546 17.036C37.8103 17.391 37.766 17.4353 37.766 17.4353H37.8103C36.3032 18.5888 34.8404 19.831 33.4663 21.1176C33.5106 20.8514 33.5993 20.1859 33.9096 19.6535C34.4415 18.855 35.328 17.036 36.1702 14.2854C37.1897 11.0468 37.2784 8.07437 37.1011 6.12232C37.1011 6.12232 33.5106 10.337 31.7376 14.7734C30.6294 17.6128 31.0284 19.5648 31.0284 21.0732C31.0284 21.6056 31.1613 23.114 31.1613 23.114L32.4468 22.0492C30.6294 23.7795 28.945 25.5984 27.3049 27.5061C27.2606 27.1955 27.2606 26.5301 27.5266 25.909C27.9255 24.9329 28.7234 22.8922 28.9007 19.8754C29.078 17.036 28.9007 13.265 28.3244 11.313C28.3244 11.313 25.7978 15.572 24.7783 20.5408C24.1134 23.7795 24.3351 26.5744 24.6454 28.1272C24.734 28.5265 24.9556 29.6356 25.0886 30.2567C23.6259 32.2087 22.2517 34.2495 21.0106 36.3347L21.9415 34.4713C21.9415 34.4713 21.8971 32.8299 22.1631 32.0313C22.4734 31.0553 22.6063 29.2363 22.562 26.2195C22.5177 23.3802 22.0744 19.6092 21.3209 17.7015C21.3209 17.7015 18.9273 22.138 18.5283 27.1955C18.3067 30.1236 18.5283 33.7171 19.3262 35.0925C19.9911 36.2016 20.2127 37.222 20.2571 37.5769C19.3705 39.1296 18.5727 40.7268 17.8191 42.3683C17.3758 41.1704 17.6418 38.3754 17.3758 35.4917C17.1099 32.3862 16.445 29.0589 15.5141 27.2843C15.5141 27.2843 13.6081 31.9426 13.6524 37.0001C13.6967 39.9726 14.273 43.3443 15.0709 44.7196C15.5141 45.4738 15.8687 46.0505 16.1347 46.2724C15.4255 48.0913 14.8049 49.9546 14.273 51.8623C14.1843 51.4187 14.0957 50.975 14.0957 50.6201C14.14 49.5553 14.007 46.7604 13.0762 43.8767C12.1897 41.1704 10.6382 37.71 9.39709 36.1128C9.39709 36.1128 8.42191 41.0373 9.53007 46.0062C10.1506 48.8899 11.5691 52.2616 12.4556 53.5482C12.9875 54.3024 13.2535 54.8347 13.4308 55.1897C13.1205 56.6093 12.8545 58.029 12.5886 59.493C12.367 59.005 12.1453 58.517 12.101 58.1177C11.9237 57.0973 11.3031 54.3024 9.88468 51.6848C8.55489 49.2004 6.3829 46.0505 4.87581 44.7196C4.87581 44.7196 4.83148 49.7328 6.78184 54.4354C7.93432 57.1861 9.79603 60.2029 11.1258 61.0458C11.5691 61.312 11.9237 61.6225 12.234 61.8887C12.0123 63.752 11.8794 65.6597 11.835 67.5674C11.7907 67.3899 11.7021 67.2568 11.6134 67.1237C11.2588 66.5026 10.1063 64.0182 8.46624 61.4451C6.95914 59.0494 4.60985 55.6777 2.96977 54.4798C2.96977 54.4798 3.28006 59.493 5.58503 64.0182C6.91482 66.6357 8.99816 69.5638 10.4166 70.318C10.9928 70.6286 11.4361 70.9835 11.7907 71.2497C11.8794 73.8228 12.101 76.396 12.4556 78.8804C12.101 78.4367 11.6134 77.7713 11.5248 77.2389C11.3475 76.2185 9.97334 74.089 8.15596 71.6489C6.47155 69.3863 3.23573 66.1477 1.37402 65.3935C1.37402 65.3935 2.79247 70.0075 5.40772 74.3552C6.95914 76.884 9.44142 79.4128 10.9042 80.0339C11.7907 80.4331 12.4556 80.9212 12.8545 81.2317C13.6524 85.6238 14.9379 89.8385 16.578 93.8756L16.2677 93.7425C16.2677 93.7425 15.3368 93.5207 14.6276 93.0771C13.9184 92.5891 12.1897 90.149 9.70738 88.7293C7.2251 87.3097 3.63467 85.3576 1.81729 85.4464C1.81729 85.4464 5.58503 90.5483 7.93432 92.3672C10.2836 94.1862 13.4308 95.7833 15.0265 95.9164C16.179 96.1826 17.1099 96.1826 17.5975 96.1382ZM38.4752 17.524H38.5638H38.4752Z" fill="#1858A0"/>
<path d="M11.9238 84.4257C12.2784 85.2243 13.7412 86.1559 13.7412 86.1559L14.672 88.2854C14.672 88.2854 13.6082 87.5756 12.0568 87.3094C10.5053 87.0432 7.49116 85.1355 5.31916 83.0948C3.14717 81.1427 0 75.4197 0 75.4197C1.90603 75.9521 5.09753 78.0816 7.4025 79.6787C9.7518 81.2758 11.4805 83.4941 11.9238 84.4257Z" fill="#1858A0"/>
<path d="M66.0904 111.622L68.1737 110.912L67.0656 112.82L68.351 114.55L66.2234 114.062L64.9822 115.881L64.7606 113.707L62.6772 113.041L64.6719 112.198V109.98L66.0904 111.622Z" fill="#BC2630"/>
<path d="M89.5833 112.287L91.578 113.174L89.4946 113.796L89.2287 115.969L88.0319 114.15L85.8599 114.594L87.234 112.864L86.1258 110.956L88.2092 111.71L89.6719 110.113L89.5833 112.287Z" fill="#BC2630"/>
<path d="M42.3764 72.5362C42.7753 73.6453 43.9278 75.8192 45.8338 75.8192C46.8533 75.8192 47.6069 75.1537 47.6069 73.9115C47.6069 72.758 46.8533 72.0925 45.6565 71.5602L45.3462 71.4271C43.7505 70.7172 41.9331 69.6969 41.9331 67.6117C41.9331 65.3935 43.5289 63.6189 46.5874 63.6189C47.208 63.6189 47.8285 63.7076 48.3604 63.8407C48.8037 63.9738 49.114 64.0182 49.3799 64.1069C49.4686 64.8611 49.6016 65.8371 49.8232 67.1237L48.981 67.2568C48.5377 65.9702 47.8728 64.5949 46.3214 64.5949C45.3462 64.5949 44.637 65.3491 44.637 66.2808C44.637 67.2568 45.3906 67.8335 46.6317 68.3659L47.075 68.5434C48.848 69.3419 50.3994 70.3623 50.3994 72.6249C50.3994 75.0206 48.4934 76.7508 45.4792 76.7508C44.6814 76.7508 43.8835 76.5734 43.3959 76.4403C42.8196 76.2628 42.4207 76.0854 42.1547 75.9523C41.9774 75.065 41.7558 74.0002 41.5342 72.7136L42.3764 72.5362Z" fill="#BC2630"/>
<path d="M57.1368 63.9297C59.5305 63.9297 61.5251 64.4177 62.8106 65.6599C63.7415 66.5472 64.495 67.9669 64.495 69.6527C64.495 74.4885 60.8159 76.5736 56.339 76.5736H51.3301V75.8194C52.7485 75.6863 52.9258 75.5532 52.9258 73.4681V67.0352C52.9258 64.9501 52.7485 64.817 51.5074 64.6839V63.9297H57.1368ZM56.206 73.4681C56.206 75.1983 56.6492 75.5089 57.5801 75.5089C59.2645 75.5089 60.9489 73.6456 60.9489 70.2295C60.9489 66.0592 58.8212 64.8613 57.1812 64.8613C56.7379 64.8613 56.4719 64.9057 56.339 64.9944C56.2503 65.0388 56.206 65.4824 56.206 65.9705V73.4681Z" fill="#BC2630"/>
<path d="M70.3463 76.7067C69.0165 73.2019 67.1991 68.4105 66.4899 66.5916C65.8693 64.9057 65.4704 64.817 64.5396 64.6839V63.9297H70.8339V64.6839L70.169 64.7726C69.4598 64.8613 69.4598 65.0388 69.6814 65.7043C70.036 66.8134 71.5874 70.6288 72.2967 72.5364C72.9172 70.8949 74.1584 67.1683 74.4686 66.2367C74.8676 65.0388 74.7789 64.817 73.8924 64.7282L73.3162 64.6839V63.9297H78.0148V64.6839C76.9066 64.817 76.6406 64.9057 75.8871 66.6803C75.7541 66.9465 73.4048 72.7139 71.942 76.7067H70.3463Z" fill="#BC2630"/>
<path d="M90.1604 70.0965C90.1604 74.2668 87.3235 76.8843 83.6001 76.8843C79.655 76.8843 77.1284 74.045 77.1284 70.4514C77.1284 67.3015 79.2118 63.6636 83.866 63.6636C87.4565 63.6193 90.1604 66.2368 90.1604 70.0965ZM80.7632 69.7416C80.7632 73.2464 82.093 75.8196 83.999 75.8196C85.6834 75.8196 86.5699 74.2224 86.5699 70.6733C86.5699 66.7692 85.1515 64.5953 83.5114 64.5953C82.0043 64.6397 80.7632 66.3255 80.7632 69.7416Z" fill="#BC2630"/>
<path d="M92.1103 72.5362C92.5092 73.6453 93.6617 75.8192 95.5677 75.8192C96.5872 75.8192 97.3408 75.1537 97.3408 73.9115C97.3408 72.758 96.5872 72.0925 95.3904 71.5602L95.0801 71.4271C93.4844 70.7172 91.667 69.6969 91.667 67.6117C91.667 65.3935 93.2628 63.6189 96.3213 63.6189C96.9418 63.6189 97.5624 63.7076 98.0943 63.8407C98.5376 63.9738 98.8479 64.0182 99.1138 64.1069C99.2025 64.8611 99.3355 65.8371 99.5571 67.1237L98.7149 67.2568C98.2716 65.9702 97.6067 64.5949 96.0553 64.5949C95.0801 64.5949 94.3709 65.3491 94.3709 66.2808C94.3709 67.2568 95.1245 67.8335 96.3656 68.3659L96.8089 68.5434C98.5819 69.3419 100.133 70.3623 100.133 72.6249C100.133 75.0206 98.2273 76.7508 95.2131 76.7508C94.4152 76.7508 93.6174 76.5734 93.1298 76.4403C92.5535 76.2628 92.1546 76.0854 91.8886 75.9523C91.7113 75.065 91.4897 74.0002 91.2681 72.7136L92.1103 72.5362Z" fill="#BC2630"/>
<path d="M102.616 67.0352C102.616 64.9501 102.438 64.817 101.197 64.6839V63.9297H107.27C110.018 63.9297 111.614 64.7283 111.614 66.8134C111.614 68.4993 110.018 69.3865 108.91 69.5196V69.564C110.772 69.7858 112.367 70.8062 112.367 72.847C112.367 74.2667 111.658 75.1983 110.639 75.8194C109.708 76.3518 108.334 76.5736 106.738 76.5736H101.153V75.8194C102.527 75.6863 102.66 75.5532 102.66 73.4681V67.0352H102.616ZM105.718 69.3422H106.339C107.447 69.3422 108.334 68.6323 108.334 67.0796C108.334 65.3494 107.314 64.9057 106.605 64.9057C106.117 64.9057 105.896 64.9501 105.851 65.0388C105.763 65.0832 105.718 65.5268 105.718 66.0148V69.3422ZM105.718 73.5125C105.718 75.2427 106.162 75.5976 106.871 75.5976C107.669 75.5976 108.821 74.9765 108.821 73.0688C108.821 71.1168 107.624 70.2738 106.295 70.2738H105.718V73.5125Z" fill="#BC2630"/>
<path d="M58.0675 111.045L57.2253 110.646C57.3583 110.291 57.4026 109.98 57.4026 109.714C57.3583 109.448 57.2697 109.137 57.048 108.827C56.8264 108.516 56.5161 108.294 56.1615 108.073C55.8512 107.895 55.4966 107.762 55.2306 107.718C54.9204 107.673 54.6544 107.718 54.4328 107.806C54.2111 107.895 54.0338 108.073 53.9452 108.25C53.8122 108.472 53.8122 108.649 53.8122 108.871C53.8122 109.093 53.9895 109.315 54.1668 109.581C54.2998 109.758 54.6101 110.069 55.142 110.557C55.6739 111.045 55.9842 111.4 56.1615 111.666C56.3831 112.021 56.5161 112.332 56.5161 112.642C56.5161 112.953 56.4718 113.263 56.2945 113.574C56.1172 113.884 55.8512 114.15 55.4966 114.328C55.142 114.505 54.7431 114.594 54.2998 114.55C53.8565 114.505 53.4133 114.372 52.97 114.106C52.4824 113.84 52.0835 113.529 51.8175 113.174C51.5516 112.82 51.3743 112.42 51.3299 112.021C51.2856 111.622 51.3743 111.222 51.5959 110.823L52.4381 111.222C52.2608 111.666 52.2165 112.065 52.3938 112.42C52.5267 112.775 52.837 113.086 53.3689 113.352C53.9009 113.618 54.3441 113.751 54.6544 113.707C55.009 113.662 55.2306 113.485 55.408 113.219C55.5409 112.997 55.5409 112.731 55.4523 112.509C55.3636 112.287 55.009 111.888 54.3884 111.311C53.7679 110.779 53.3689 110.379 53.1916 110.113C52.9257 109.714 52.7484 109.359 52.704 109.004C52.6597 108.649 52.7484 108.294 52.9257 107.939C53.103 107.584 53.4133 107.318 53.7679 107.141C54.1225 106.963 54.5658 106.875 55.009 106.919C55.4966 106.963 55.9399 107.096 56.4275 107.363C57.0037 107.673 57.447 108.028 57.7572 108.427C58.0675 108.827 58.2448 109.27 58.2892 109.714C58.3778 110.113 58.2892 110.601 58.0675 111.045Z" fill="#BC2630"/>
<path d="M48.9364 104.434L48.2715 103.769C48.7148 103.414 49.2024 103.237 49.69 103.237C50.1775 103.237 50.7095 103.414 51.1971 103.813C51.8176 104.301 52.1722 104.878 52.2609 105.544C52.3495 106.209 52.0836 106.874 51.5517 107.584C51.0197 108.294 50.3992 108.738 49.69 108.827C49.0251 108.96 48.3602 108.782 47.7839 108.294C47.2077 107.851 46.8974 107.318 46.8087 106.653C46.7644 105.987 46.986 105.277 47.518 104.612C47.5623 104.568 47.6066 104.523 47.6509 104.434L50.8424 106.874C51.197 106.386 51.33 105.943 51.2857 105.499C51.2414 105.056 51.0197 104.701 50.6651 104.434C50.3992 104.213 50.1332 104.124 49.8229 104.124C49.6456 104.08 49.291 104.213 48.9364 104.434ZM50.4435 107.407L48.0499 105.588C47.8282 105.987 47.6953 106.298 47.6953 106.608C47.6953 107.052 47.9169 107.451 48.2715 107.717C48.6261 107.984 48.9807 108.072 49.3797 108.028C49.7786 107.984 50.1332 107.762 50.4435 107.407Z" fill="#BC2630"/>
<path d="M48.3159 101.551L44.5925 105.455L44.0162 104.878L44.5925 104.301C44.1935 104.434 43.8832 104.479 43.6616 104.434C43.44 104.39 43.2627 104.301 43.1297 104.168C42.9081 103.946 42.7307 103.68 42.6421 103.325L43.44 102.926C43.5286 103.192 43.6173 103.37 43.7946 103.547C43.9276 103.68 44.1049 103.769 44.3265 103.769C44.5038 103.813 44.7254 103.769 44.9027 103.636C45.213 103.458 45.479 103.237 45.7449 102.97L47.6953 100.93L48.3159 101.551Z" fill="#BC2630"/>
<path d="M44.7253 97.8242L41.9327 102.882L41.3121 102.128L43.0409 99.1551C43.2182 98.8445 43.4398 98.534 43.6614 98.1791C43.3955 98.3122 43.0409 98.4453 42.6419 98.5784L39.3618 99.7762L38.7412 99.0664L44.1934 97.1587L44.7253 97.8242Z" fill="#BC2630"/>
<path d="M37.1017 98.4009L36.2595 99.022L35.7275 98.2678L36.5697 97.6467L37.1017 98.4009ZM42.3322 94.763L37.8995 97.8242L37.3676 97.07L41.8003 94.0088L42.3322 94.763Z" fill="#BC2630"/>
<path d="M37.4562 90.5927L37.1016 89.7498C37.6778 89.5279 38.2541 89.5279 38.7417 89.7054C39.2293 89.8829 39.6282 90.2378 39.9385 90.7258C40.2931 91.3469 40.3818 92.0124 40.2044 92.6335C40.0271 93.2546 39.4952 93.787 38.7417 94.2306C38.2541 94.4968 37.7665 94.6743 37.2789 94.7186C36.7913 94.763 36.3924 94.6743 35.9934 94.4524C35.5945 94.2306 35.2842 93.8757 35.0626 93.4764C34.7523 92.9884 34.6637 92.456 34.7523 92.0124C34.841 91.5244 35.0626 91.1251 35.5059 90.7702L36.0821 91.48C35.8161 91.7462 35.6388 92.0124 35.5945 92.2786C35.5502 92.5447 35.5945 92.8109 35.7275 93.0771C35.9491 93.4764 36.3037 93.7426 36.7027 93.8313C37.1016 93.9201 37.6778 93.787 38.2984 93.432C38.919 93.0771 39.3179 92.6778 39.4509 92.2786C39.5839 91.8793 39.5839 91.48 39.3623 91.0807C39.1849 90.7702 38.9633 90.5483 38.653 90.4596C38.2541 90.3709 37.8552 90.4152 37.4562 90.5927Z" fill="#BC2630"/>
<path d="M35.3286 85.2243L35.0627 84.2927C35.6389 84.204 36.1265 84.3371 36.5698 84.5589C37.013 84.8251 37.3233 85.2243 37.5893 85.8011C37.8996 86.5109 37.8996 87.2207 37.6336 87.7975C37.3676 88.4186 36.7914 88.8622 35.9935 89.2172C35.1513 89.5721 34.3978 89.6164 33.7772 89.3503C33.1566 89.0841 32.669 88.6404 32.4031 87.9306C32.1371 87.2651 32.1371 86.644 32.4031 86.0229C32.669 85.4018 33.2453 84.9582 34.0875 84.6032C34.1318 84.6032 34.2205 84.5589 34.3091 84.5145L35.8162 88.2411C36.3481 87.9749 36.7027 87.6644 36.88 87.2651C37.0574 86.8658 37.0574 86.4666 36.88 86.0229C36.7471 85.7124 36.5698 85.4905 36.3038 85.3131C36.0822 85.2687 35.7276 85.2243 35.3286 85.2243ZM35.107 88.5517L33.9988 85.7567C33.5999 85.9785 33.3339 86.2004 33.201 86.4666C32.9793 86.8658 32.9793 87.2651 33.1566 87.7088C33.3339 88.108 33.5556 88.3742 33.9545 88.5517C34.2205 88.6848 34.6637 88.6848 35.107 88.5517Z" fill="#BC2630"/>
<path d="M35.3285 79.3684L27.9703 80.5219L27.5714 77.9931C27.4827 77.4164 27.4384 76.9727 27.4827 76.6622C27.527 76.2185 27.6157 75.8193 27.8373 75.5087C28.1033 75.0651 28.4579 74.7101 28.9455 74.444C29.4331 74.1778 30.0093 74.0003 30.6299 73.8672C31.2061 73.7785 31.6937 73.7785 32.137 73.8228C32.5803 73.8672 32.9792 74.0003 33.2895 74.1778C33.5998 74.3552 33.8657 74.5327 34.043 74.7545C34.2647 74.9763 34.3976 75.2425 34.5306 75.5974C34.6636 75.908 34.7522 76.3073 34.8409 76.7509L35.3285 79.3684ZM34.309 78.5255L34.0874 76.9727C33.9987 76.4847 33.91 76.1298 33.7771 75.8636C33.6441 75.5974 33.4668 75.42 33.2895 75.2425C33.0235 75.0651 32.6689 74.932 32.27 74.8432C31.871 74.7545 31.3834 74.7989 30.8072 74.8876C30.0537 75.0207 29.4774 75.2425 29.0785 75.5531C28.7239 75.8636 28.4579 76.2185 28.3692 76.6178C28.3249 76.884 28.3249 77.3277 28.4136 77.9044L28.6352 79.4572L34.309 78.5255Z" fill="#BC2630"/>
<path d="M28.0588 72.0927L26.995 72.1371L26.9507 71.2054L28.0145 71.161L28.0588 72.0927ZM34.4418 71.8709L29.034 72.0483L28.9897 71.1167L34.3975 70.9392L34.4418 71.8709Z" fill="#BC2630"/>
<path d="M32.7134 69.608L32.6247 68.6763C32.9793 68.6319 33.2896 68.4988 33.4669 68.3214C33.6885 68.0996 33.7772 67.789 33.8215 67.3454C33.8658 66.9461 33.7772 66.5912 33.5999 66.4137C33.4226 66.1919 33.2453 66.1032 33.0236 66.0588C32.802 66.0588 32.669 66.1475 32.536 66.2806C32.4474 66.4137 32.3144 66.7243 32.1814 67.2123C31.9598 67.8777 31.7825 68.3214 31.6495 68.5876C31.5165 68.8538 31.3392 69.0312 31.1176 69.1643C30.896 69.2974 30.63 69.3418 30.3641 69.3418C30.1424 69.3418 29.9208 69.253 29.6992 69.12C29.5218 68.9869 29.3445 68.8538 29.2116 68.6319C29.1229 68.4988 29.0343 68.277 28.9899 68.0552C28.9456 67.789 28.9013 67.5228 28.9456 67.2566C28.9899 66.813 29.0343 66.4581 29.2116 66.1475C29.3445 65.837 29.5218 65.6151 29.7435 65.4821C29.9651 65.349 30.2311 65.2602 30.5857 65.2159L30.6743 66.1032C30.4084 66.1475 30.1867 66.2362 30.0094 66.4137C29.8321 66.5912 29.7435 66.8574 29.7435 67.2123C29.6992 67.6116 29.7878 67.9221 29.9208 68.0996C30.0538 68.277 30.1867 68.3658 30.4084 68.4101C30.5414 68.4101 30.63 68.3658 30.7187 68.3214C30.8073 68.2327 30.896 68.1439 30.9846 67.9665C31.0289 67.8777 31.1176 67.6116 31.2506 67.1679C31.4722 66.5468 31.6052 66.1032 31.7382 65.837C31.8711 65.5708 32.0485 65.3933 32.2701 65.2602C32.4917 65.1271 32.7577 65.0828 33.068 65.0828C33.3782 65.0828 33.6442 65.2159 33.9102 65.3933C34.1761 65.5708 34.3534 65.837 34.4864 66.1919C34.6194 66.5468 34.6637 66.9017 34.6637 67.3454C34.6194 68.0552 34.4421 68.5876 34.1318 68.9425C33.7329 69.3418 33.2896 69.5636 32.7134 69.608Z" fill="#BC2630"/>
<path d="M34.7518 60.4246C34.9734 60.8239 35.1064 61.1788 35.1507 61.4893C35.195 61.7999 35.195 62.1548 35.1507 62.5097C35.062 63.0865 34.7961 63.5301 34.4858 63.7519C34.1312 64.0181 33.7322 64.1069 33.289 64.0181C33.023 63.9738 32.8014 63.885 32.6241 63.7076C32.4468 63.5301 32.2695 63.3527 32.1808 63.1308C32.0922 62.909 32.0478 62.6872 32.0035 62.421C32.0035 62.2435 32.0035 61.9774 32.0035 61.5781C32.0478 60.8239 32.0478 60.2915 32.0035 59.9366C31.8705 59.8922 31.7819 59.8922 31.7819 59.8922C31.4273 59.8035 31.1613 59.8478 30.9397 59.9809C30.6737 60.1584 30.5407 60.5133 30.4521 60.957C30.3634 61.4006 30.4078 61.7112 30.4964 61.933C30.5851 62.1548 30.851 62.3766 31.2056 62.5097L30.9397 63.3527C30.5851 63.2196 30.3191 62.9977 30.0975 62.7759C29.9202 62.5541 29.7872 62.2435 29.6985 61.8886C29.6542 61.5337 29.6542 61.0901 29.7429 60.6464C29.8315 60.2028 29.9645 59.8479 30.0975 59.5817C30.2748 59.3155 30.4521 59.138 30.6294 59.0493C30.8067 58.9606 31.0283 58.8718 31.2943 58.8718C31.4716 58.8718 31.7376 58.9162 32.1365 59.0049L33.3333 59.2267C34.1755 59.4042 34.7074 59.4486 34.9291 59.4486C35.1507 59.4486 35.3723 59.4042 35.594 59.3598L35.4167 60.2915C35.195 60.4246 34.9734 60.4246 34.7518 60.4246ZM32.7127 60.114C32.8014 60.469 32.8014 60.957 32.7571 61.6668C32.7571 62.0661 32.7571 62.3323 32.8014 62.4654C32.8457 62.6428 32.9344 62.7759 33.023 62.8646C33.156 62.9534 33.289 63.0421 33.422 63.0865C33.6436 63.1308 33.8652 63.0865 34.0869 62.909C34.2642 62.7759 34.3971 62.5097 34.4858 62.1548C34.5301 61.7999 34.5301 61.4893 34.4415 61.1788C34.3528 60.8682 34.1755 60.6464 33.9539 60.469C33.7766 60.3359 33.4663 60.2471 33.0674 60.1584L32.7127 60.114Z" fill="#BC2630"/>
<path d="M36.2152 57.4081L35.9493 58.2066L28.9014 55.811L29.2117 54.9237L31.7383 55.7666C31.3836 55.2342 31.3393 54.7018 31.5166 54.1251C31.6053 53.8145 31.7826 53.5484 32.0042 53.2822C32.2258 53.0603 32.4918 52.8829 32.7578 52.7498C33.068 52.6611 33.3783 52.6167 33.7329 52.6167C34.0875 52.6167 34.4422 52.7054 34.8411 52.7942C35.7276 53.1047 36.3039 53.5484 36.6585 54.1251C36.9688 54.7018 37.0574 55.3229 36.8358 55.944C36.6142 56.5651 36.2152 56.9201 35.5946 57.0975L36.2152 57.4081ZM33.6 56.5651C34.2205 56.787 34.6638 56.8313 35.0184 56.7426C35.5503 56.6095 35.9049 56.3433 36.0822 55.8553C36.2152 55.456 36.1709 55.1011 35.9049 54.7018C35.6833 54.3026 35.24 53.992 34.5751 53.7702C33.9102 53.5484 33.3783 53.504 32.9794 53.6815C32.5805 53.8589 32.3145 54.1251 32.1815 54.48C32.0485 54.8793 32.0929 55.2342 32.3588 55.6335C32.5361 56.0328 32.9794 56.3433 33.6 56.5651Z" fill="#BC2630"/>
<path d="M37.988 52.6167L31.2061 49.5556L31.5607 48.7126L38.3426 51.7738L37.988 52.6167Z" fill="#BC2630"/>
<path d="M39.3619 46.2281L39.9381 45.4739C40.337 45.8731 40.5587 46.3168 40.6473 46.8492C40.6916 47.3372 40.603 47.8695 40.2484 48.4019C39.8494 49.0674 39.3175 49.511 38.697 49.6441C38.0321 49.8216 37.3228 49.6441 36.5693 49.2005C35.7714 48.7568 35.2838 48.1801 35.1065 47.5146C34.8849 46.8492 34.9735 46.2281 35.3725 45.5626C35.7271 44.9415 36.259 44.5422 36.8796 44.4091C37.5445 44.276 38.2537 44.4091 39.0072 44.8527C39.0516 44.8971 39.1402 44.9415 39.2289 44.9858L37.2342 48.4907C37.7661 48.7568 38.2537 48.8456 38.6526 48.7568C39.0959 48.6681 39.4062 48.4019 39.6278 48.0026C39.8051 47.6921 39.8494 47.4259 39.8494 47.1153C39.7608 46.8492 39.6278 46.583 39.3619 46.2281ZM36.5693 48.0914L38.0764 45.4739C37.6775 45.2964 37.3228 45.2077 37.0126 45.252C36.5693 45.3408 36.2147 45.5626 35.993 45.9619C35.7714 46.3168 35.7271 46.7161 35.8157 47.071C35.9487 47.5146 36.2147 47.8252 36.5693 48.0914Z" fill="#BC2630"/>
<path d="M44.2376 42.5014L43.7057 42.1021C43.9273 42.6788 43.8386 43.2556 43.3954 43.788C43.1294 44.1429 42.7748 44.3647 42.3759 44.4978C41.9769 44.6309 41.5337 44.6753 41.0904 44.5422C40.6471 44.4091 40.2039 44.2316 39.7606 43.8767C39.3174 43.5661 39.0071 43.1669 38.7854 42.7676C38.5638 42.3683 38.4308 41.9246 38.4752 41.5254C38.5195 41.0817 38.6525 40.7268 38.9184 40.3719C39.1401 40.1057 39.3617 39.9282 39.6276 39.7951C39.8936 39.662 40.1596 39.6177 40.4255 39.6177L38.2979 37.9762L38.8741 37.2664L44.7252 41.8359L44.2376 42.5014ZM40.3369 43.1225C40.8688 43.5661 41.3564 43.7436 41.844 43.7436C42.2872 43.7436 42.6418 43.5661 42.8635 43.2556C43.1294 42.945 43.1738 42.5901 43.0851 42.1465C42.9964 41.7028 42.6862 41.2592 42.1542 40.8599C41.578 40.4162 41.0461 40.1944 40.6028 40.1944C40.1596 40.1944 39.8049 40.3719 39.539 40.7268C39.273 41.0374 39.2287 41.4366 39.3174 41.8359C39.4503 42.2352 39.7606 42.6788 40.3369 43.1225Z" fill="#BC2630"/>
<path d="M49.6897 37.0002L42.7305 33.0517L43.5727 32.3863L48.4929 35.3587C48.8918 35.5805 49.2464 35.8467 49.5567 36.0685C49.3794 35.6693 49.2464 35.27 49.1135 34.8707L47.2518 29.4138L48.0496 28.7927L50.5319 36.3791L49.6897 37.0002Z" fill="#BC2630"/>
<path d="M55.2754 30.9667L56.1619 30.5675C56.3392 31.0998 56.2949 31.6322 56.1176 32.0759C55.9403 32.5639 55.5856 32.9631 55.0537 33.2737C54.3888 33.673 53.7239 33.8061 53.059 33.6286C52.3941 33.4512 51.8622 33.0075 51.419 32.2533C50.9314 31.4991 50.7984 30.7449 50.9314 30.0794C51.0644 29.414 51.4633 28.8816 52.0839 28.4823C52.7044 28.1274 53.325 27.9943 53.9899 28.1718C54.6548 28.3492 55.1867 28.8372 55.6743 29.5914C55.7186 29.6358 55.7629 29.7245 55.8073 29.8133L52.3055 31.9428C52.6601 32.4308 53.0147 32.7413 53.458 32.8301C53.9012 32.9631 54.3002 32.8744 54.6548 32.6526C54.9207 32.4751 55.1424 32.2533 55.231 31.9871C55.364 31.7209 55.364 31.366 55.2754 30.9667ZM51.9509 31.2773L54.5218 29.7245C54.2559 29.3696 53.9899 29.1478 53.6796 29.0147C53.2363 28.8816 52.8374 28.926 52.4385 29.1478C52.0839 29.3696 51.8622 29.6802 51.7736 30.0794C51.6849 30.4344 51.7292 30.8336 51.9509 31.2773Z" fill="#BC2630"/>
<path d="M59.6636 29.8131L60.1512 30.4785C59.9296 30.656 59.7523 30.7447 59.575 30.8334C59.2647 30.9665 58.9987 31.0553 58.8214 31.0109C58.5998 31.0109 58.4225 30.9222 58.2895 30.7891C58.1565 30.656 57.9792 30.3454 57.7133 29.8574L56.3835 27.0624L55.7629 27.3286L55.4526 26.7075L56.0732 26.4413L55.497 25.2435L56.0732 24.3562L56.8711 26.0421L57.7133 25.6428L58.0236 26.2639L57.1814 26.6632L58.5555 29.5025C58.6885 29.7243 58.7328 29.9018 58.8214 29.9462C58.8658 29.9905 58.9544 30.0349 59.0431 30.0349C59.1317 30.0349 59.2204 30.0349 59.3534 29.9462C59.3977 29.9462 59.5307 29.9018 59.6636 29.8131Z" fill="#BC2630"/>
<path d="M63.9187 27.1959L64.8496 26.974C64.8939 27.5508 64.761 28.0388 64.495 28.4824C64.229 28.8817 63.7858 29.2366 63.2095 29.4141C62.456 29.6803 61.7911 29.6359 61.2148 29.3697C60.6386 29.0592 60.1953 28.4824 59.8851 27.6839C59.5748 26.8409 59.5748 26.0867 59.8407 25.4656C60.1067 24.8445 60.5943 24.4009 61.3035 24.1347C61.9684 23.9129 62.6333 23.9129 63.2095 24.2234C63.7858 24.534 64.229 25.1107 64.5393 25.9536C64.5393 25.998 64.5836 26.0867 64.628 26.1755L60.8159 27.5064C61.0375 28.0388 61.3478 28.4381 61.7468 28.6155C62.1457 28.793 62.5446 28.8373 62.9879 28.7043C63.2982 28.5712 63.5641 28.3937 63.6971 28.1719C63.8301 27.9501 63.9187 27.6395 63.9187 27.1959ZM60.5943 26.7966L63.4312 25.8206C63.2539 25.4213 63.0322 25.1107 62.7663 24.9776C62.3673 24.7558 61.9684 24.7114 61.5251 24.8445C61.1262 24.9776 60.8602 25.2438 60.6829 25.5987C60.5056 25.9536 60.4613 26.3529 60.5943 26.7966Z" fill="#BC2630"/>
<path d="M66.667 28.2605L65.4702 22.9811L66.2681 22.8036L66.4454 23.6022C66.5784 23.2029 66.7114 22.8923 66.8443 22.7149C66.9773 22.5374 67.1546 22.4487 67.3763 22.4043C67.6865 22.3156 67.9968 22.36 68.3514 22.493L68.2185 23.3803C67.9525 23.2916 67.7309 23.2916 67.5092 23.336C67.3319 23.3803 67.1546 23.4691 67.0216 23.6465C66.8887 23.7796 66.8 24.0014 66.8 24.2233C66.7557 24.5782 66.8 24.9331 66.8887 25.288L67.5092 28.0386L66.667 28.2605Z" fill="#BC2630"/>
<path d="M73.6266 26.397C73.3163 26.7075 73.006 26.9737 72.74 27.1068C72.4298 27.2399 72.1195 27.373 71.7649 27.4174C71.1886 27.5061 70.701 27.373 70.3464 27.1512C69.9918 26.885 69.8145 26.5301 69.7259 26.0864C69.6815 25.8202 69.7259 25.5984 69.8145 25.3322C69.9032 25.1104 70.0361 24.8886 70.2134 24.7555C70.3907 24.6224 70.6124 24.4893 70.834 24.4006C71.0113 24.3118 71.2773 24.2675 71.6319 24.1787C72.3411 24.0013 72.873 23.8238 73.2276 23.6907C73.2276 23.5576 73.2276 23.4689 73.2276 23.4689C73.1833 23.114 73.0503 22.8478 72.873 22.7147C72.6071 22.5372 72.2525 22.4929 71.8092 22.5372C71.3659 22.5816 71.0556 22.7147 70.8783 22.8478C70.701 23.0253 70.5681 23.2914 70.5237 23.6907H69.6372C69.6815 23.2914 69.7702 22.9809 69.9475 22.7147C70.1248 22.4485 70.3464 22.2711 70.701 22.0936C71.0556 21.9161 71.4546 21.8274 71.8978 21.783C72.3411 21.7387 72.74 21.7387 73.0503 21.8274C73.3606 21.9161 73.5822 22.0049 73.7152 22.1823C73.8482 22.3154 73.9812 22.5372 74.0698 22.7591C74.1142 22.8922 74.1585 23.2027 74.2028 23.602L74.3358 24.7998C74.4244 25.6428 74.5131 26.1751 74.5574 26.397C74.6018 26.6188 74.7347 26.8406 74.8677 27.0181L73.9369 27.1068C73.7596 26.8406 73.6709 26.6632 73.6266 26.397ZM73.3163 24.3562C73.006 24.5337 72.5184 24.7111 71.8535 24.8886C71.4989 24.9773 71.2329 25.066 71.1 25.1548C70.967 25.2435 70.834 25.3322 70.7897 25.5097C70.701 25.6428 70.701 25.7759 70.701 25.9533C70.7454 26.1751 70.834 26.397 71.0556 26.5301C71.2773 26.6632 71.5432 26.7075 71.8978 26.6632C72.2525 26.6188 72.5627 26.5301 72.7844 26.3082C73.0503 26.1308 73.2276 25.909 73.3163 25.5984C73.4049 25.3766 73.4049 25.066 73.3606 24.6667L73.3163 24.3562Z" fill="#BC2630"/>
<path d="M76.1089 26.885L76.2419 21.4725H77.0841V22.2267C77.483 21.65 78.0593 21.3395 78.8128 21.3838C79.1231 21.3838 79.4334 21.4725 79.6993 21.5613C79.9653 21.6944 80.1869 21.8275 80.3199 22.0493C80.4529 22.2267 80.5415 22.4486 80.5859 22.7148C80.6302 22.8922 80.6302 23.2028 80.6302 23.6021L80.5415 26.9294H79.6107L79.6993 23.6464C79.6993 23.2915 79.6993 22.9809 79.6107 22.8035C79.522 22.626 79.4334 22.4486 79.2561 22.3598C79.0788 22.2267 78.8571 22.1824 78.6355 22.1824C78.2366 22.1824 77.9263 22.2711 77.616 22.5373C77.3057 22.7591 77.1727 23.2471 77.1727 23.9126L77.0841 26.8407L76.1089 26.885Z" fill="#BC2630"/>
<path d="M85.8603 23.957C86.1706 22.7591 86.7468 21.9162 87.5447 21.4282C88.3869 20.9402 89.2735 20.8071 90.293 21.0733C90.9579 21.2507 91.5341 21.5613 91.9774 22.0049C92.4206 22.4486 92.7309 23.0253 92.8639 23.6464C92.9969 24.2675 92.9525 24.9774 92.7752 25.6872C92.5979 26.397 92.2433 27.0181 91.8001 27.5505C91.3568 28.0385 90.8249 28.3934 90.2043 28.5265C89.5837 28.6596 88.9632 28.6596 88.3426 28.5265C87.6777 28.3491 87.1015 28.0385 86.6582 27.5505C86.2149 27.0625 85.9047 26.5301 85.816 25.909C85.6387 25.1992 85.683 24.5781 85.8603 23.957ZM86.8355 24.2232C86.6139 25.1104 86.6582 25.8203 86.9685 26.4414C87.3231 27.0625 87.8107 27.4618 88.5199 27.6392C89.2291 27.8167 89.894 27.728 90.4703 27.373C91.0465 26.9738 91.4898 26.3527 91.7557 25.421C91.933 24.8443 91.933 24.3119 91.8444 23.8239C91.7557 23.3359 91.5784 22.9366 91.2238 22.5817C90.9135 22.2267 90.5146 22.0049 90.027 21.8718C89.3621 21.6944 88.6972 21.7831 88.121 22.0936C87.5447 22.4486 87.1015 23.1584 86.8355 24.2232Z" fill="#BC2630"/>
<path d="M93.7949 30.1681L94.6371 24.5781L95.4793 24.9774L94.9031 28.1717L94.6814 29.3695C94.7258 29.3251 94.9474 29.0146 95.3907 28.4822L97.5183 25.9978L98.3605 26.3971L97.74 29.5913L97.5627 30.6561L98.2719 29.8575L100.444 27.4175L101.242 27.8167L97.3854 31.987L96.6318 31.499L97.2524 28.216L97.474 27.2844L94.7258 30.5674L93.7949 30.1681Z" fill="#BC2630"/>
<path d="M99.6899 33.185L102.748 28.7485L103.413 29.1922L102.97 29.8133C103.635 29.5471 104.256 29.6358 104.876 30.0351C105.142 30.2126 105.364 30.4344 105.497 30.7006C105.674 30.9668 105.718 31.1886 105.763 31.4104C105.763 31.6322 105.718 31.8984 105.63 32.1202C105.541 32.2977 105.408 32.5195 105.186 32.8744L103.325 35.6251L102.571 35.0927L104.433 32.3864C104.655 32.0759 104.787 31.8097 104.832 31.6322C104.876 31.4548 104.876 31.233 104.787 31.0555C104.699 30.878 104.566 30.7006 104.344 30.5675C104.034 30.3457 103.679 30.2569 103.325 30.3013C102.97 30.3457 102.571 30.6562 102.172 31.233L100.488 33.673L99.6899 33.185Z" fill="#BC2630"/>
<path d="M108.422 37.7989L109.043 38.5088C108.555 38.8193 108.067 38.9524 107.58 38.908C107.092 38.8637 106.605 38.6419 106.117 38.1982C105.541 37.6658 105.23 37.0447 105.23 36.3793C105.23 35.7138 105.496 35.0483 106.073 34.3829C106.693 33.7174 107.314 33.3625 108.023 33.2737C108.732 33.185 109.309 33.4512 109.885 33.9392C110.417 34.4272 110.683 35.004 110.683 35.6694C110.683 36.3349 110.417 37.0004 109.796 37.6658C109.752 37.7102 109.707 37.7546 109.619 37.8433L106.649 35.1371C106.294 35.5807 106.073 36.0687 106.117 36.468C106.117 36.9116 106.294 37.2666 106.649 37.5771C106.915 37.7989 107.181 37.932 107.447 37.9764C107.713 38.0651 108.067 38.0208 108.422 37.7989ZM107.181 34.6934L109.397 36.7342C109.663 36.3793 109.796 36.0243 109.84 35.7582C109.84 35.3145 109.707 34.9152 109.353 34.6047C109.043 34.3385 108.688 34.2054 108.289 34.2054C107.89 34.2054 107.535 34.3829 107.181 34.6934Z" fill="#BC2630"/>
<path d="M111.082 43.3443L111.614 42.9007C110.994 42.9894 110.462 42.7676 110.018 42.2352C109.752 41.9246 109.575 41.5254 109.531 41.0817C109.487 40.6381 109.575 40.2388 109.752 39.7951C109.93 39.3515 110.284 38.9966 110.683 38.6417C111.082 38.2867 111.526 38.0649 111.969 37.8875C112.412 37.7544 112.855 37.7544 113.254 37.8431C113.653 37.9762 114.008 38.198 114.274 38.5529C114.495 38.8191 114.628 39.0853 114.673 39.3515C114.717 39.6177 114.717 39.9282 114.673 40.15L116.712 38.4198L117.288 39.1297L111.57 43.921L111.082 43.3443ZM111.26 39.3959C110.728 39.8395 110.417 40.2831 110.373 40.7268C110.284 41.1704 110.373 41.5254 110.639 41.8359C110.905 42.1465 111.215 42.2796 111.658 42.3239C112.102 42.3239 112.545 42.1021 113.077 41.7028C113.653 41.2148 113.963 40.7712 114.052 40.3275C114.141 39.8839 114.052 39.5289 113.786 39.174C113.52 38.8635 113.166 38.686 112.767 38.7304C112.323 38.7304 111.836 38.9522 111.26 39.3959Z" fill="#BC2630"/>
<path d="M116.268 46.583L116.756 47.3816C116.445 47.6034 116.224 47.8252 116.091 48.0914C115.958 48.3576 115.913 48.6682 115.913 49.0231C115.958 49.378 116.046 49.7773 116.224 50.1322C116.401 50.4871 116.578 50.7533 116.844 50.9308C117.066 51.1526 117.288 51.2413 117.554 51.2857C117.82 51.33 117.997 51.2857 118.218 51.1969C118.44 51.1082 118.573 50.9308 118.662 50.7533C118.75 50.5315 118.795 50.3097 118.75 49.9547C118.75 49.7329 118.617 49.2893 118.484 48.6238C118.307 47.9583 118.218 47.426 118.263 47.1154C118.263 46.7161 118.351 46.3612 118.529 46.095C118.706 45.8288 118.928 45.607 119.238 45.4295C119.593 45.2521 119.947 45.2077 120.302 45.2521C120.701 45.2964 121.055 45.4739 121.41 45.7401C121.765 46.0063 122.031 46.4056 122.252 46.8492C122.518 47.3372 122.651 47.8252 122.695 48.2689C122.74 48.7125 122.651 49.1118 122.429 49.5111C122.208 49.866 121.942 50.1766 121.543 50.354L121.055 49.5555C121.454 49.2893 121.676 48.9787 121.765 48.6238C121.853 48.2689 121.765 47.8252 121.499 47.2929C121.233 46.7605 120.922 46.4056 120.612 46.2725C120.302 46.1394 119.992 46.1394 119.726 46.2725C119.504 46.4056 119.327 46.583 119.282 46.8492C119.194 47.1154 119.282 47.6034 119.504 48.402C119.726 49.2005 119.814 49.7773 119.814 50.0878C119.814 50.5758 119.77 50.9751 119.593 51.2857C119.415 51.5962 119.149 51.8624 118.795 52.0399C118.44 52.2173 118.041 52.3061 117.642 52.2617C117.243 52.2173 116.844 52.0399 116.49 51.7737C116.135 51.4631 115.825 51.1082 115.559 50.6202C115.249 49.9991 115.071 49.4667 115.071 48.9787C115.071 48.4907 115.16 48.0471 115.382 47.6034C115.515 47.1598 115.825 46.8492 116.268 46.583Z" fill="#BC2630"/>
<path d="M117.376 54.125L122.563 52.5723L122.784 53.3708L122.075 53.5927C122.385 53.6814 122.651 53.8145 122.873 54.0807C123.095 54.3025 123.272 54.5687 123.361 54.9236C123.494 55.3229 123.494 55.6334 123.405 55.944C123.316 56.2545 123.139 56.4764 122.873 56.6538C123.582 56.8756 124.07 57.3193 124.247 57.9848C124.38 58.5171 124.38 58.9164 124.158 59.3157C123.937 59.6706 123.582 59.9368 122.962 60.1143L119.415 61.179L119.15 60.2917L122.385 59.3157C122.74 59.227 122.962 59.0939 123.095 59.0051C123.228 58.9164 123.316 58.7833 123.361 58.6059C123.405 58.4284 123.405 58.2509 123.361 58.0291C123.272 57.6742 123.05 57.408 122.74 57.2306C122.43 57.0531 121.986 57.0531 121.454 57.2306L118.44 58.1178L118.174 57.2306L121.543 56.2545C121.942 56.1214 122.208 55.9883 122.341 55.7665C122.474 55.5447 122.518 55.3229 122.43 54.968C122.341 54.7018 122.208 54.5243 122.031 54.3469C121.853 54.1694 121.587 54.0807 121.322 54.0807C121.056 54.0807 120.657 54.125 120.213 54.2581L117.554 55.0567L117.376 54.125Z" fill="#BC2630"/>
<path d="M120.701 66.0145C120.39 65.7039 120.124 65.3934 119.991 65.1272C119.859 64.8166 119.726 64.5061 119.681 64.1512C119.593 63.5744 119.681 63.0864 119.947 62.7315C120.213 62.3766 120.523 62.1991 121.011 62.1104C121.277 62.066 121.499 62.1104 121.765 62.1991C121.986 62.2878 122.208 62.4209 122.341 62.5984C122.474 62.7759 122.607 62.9977 122.695 63.2195C122.784 63.397 122.828 63.6632 122.917 64.0181C123.094 64.7279 123.272 65.2603 123.405 65.6152C123.538 65.6152 123.626 65.6152 123.626 65.5708C123.981 65.5265 124.247 65.3934 124.38 65.2159C124.557 64.9497 124.601 64.5948 124.557 64.1512C124.513 63.7075 124.38 63.397 124.202 63.2195C124.025 63.042 123.759 62.909 123.36 62.8646V61.9773C123.759 62.0217 124.07 62.1104 124.335 62.2878C124.601 62.4653 124.823 62.6871 124.956 63.0421C125.133 63.397 125.222 63.7963 125.311 64.2399C125.355 64.6835 125.355 65.0828 125.266 65.3934C125.178 65.7039 125.089 65.9258 124.956 66.0588C124.823 66.1919 124.601 66.325 124.38 66.4138C124.247 66.4581 123.937 66.5025 123.538 66.5469L122.341 66.68C121.499 66.7687 120.967 66.8574 120.745 66.9461C120.523 66.9905 120.302 67.1236 120.124 67.2567L119.991 66.325C120.257 66.1476 120.435 66.0589 120.701 66.0145ZM122.74 65.6596C122.562 65.349 122.385 64.861 122.208 64.1955C122.119 63.8406 122.03 63.5744 121.942 63.4413C121.853 63.3082 121.765 63.1751 121.587 63.1308C121.454 63.0421 121.321 63.0421 121.144 63.0421C120.922 63.0864 120.701 63.1751 120.568 63.397C120.435 63.6188 120.39 63.885 120.435 64.2399C120.479 64.5948 120.568 64.9054 120.789 65.1272C120.967 65.3934 121.188 65.5708 121.499 65.6596C121.72 65.7483 122.03 65.7483 122.429 65.7039L122.74 65.6596Z" fill="#BC2630"/>
<path d="M120.169 68.4991L127.616 68.366V69.2976L120.169 69.4307V68.4991Z" fill="#BC2630"/>
<path d="M120.169 71.1167L127.616 71.4273L127.571 72.3589L120.125 72.0484L120.169 71.1167Z" fill="#BC2630"/>
<path d="M119.726 76.7954L126.995 78.4369L126.375 81.1431C126.242 81.7199 126.064 82.1192 125.843 82.4297C125.621 82.7403 125.355 82.9621 125.001 83.0508C124.646 83.1839 124.291 83.1839 123.981 83.1395C123.671 83.0508 123.405 82.9177 123.183 82.6959C122.962 82.4741 122.784 82.1635 122.696 81.7642C122.474 82.1635 122.164 82.4741 121.809 82.6072C121.454 82.7846 121.056 82.829 120.612 82.6959C120.258 82.6072 119.992 82.4741 119.726 82.2523C119.46 82.0304 119.282 81.8086 119.149 81.5868C119.061 81.3206 118.972 81.0544 118.972 80.6995C118.972 80.3446 119.017 79.9453 119.105 79.5016L119.726 76.7954ZM120.346 77.9489L119.947 79.7678C119.859 80.0784 119.859 80.3002 119.814 80.4333C119.814 80.6551 119.814 80.877 119.903 81.0544C119.992 81.2319 120.08 81.365 120.213 81.4981C120.346 81.6312 120.568 81.7199 120.79 81.7642C121.056 81.8086 121.321 81.8086 121.543 81.7199C121.765 81.6312 121.942 81.4537 122.075 81.2319C122.208 81.01 122.341 80.6551 122.43 80.2115L122.829 78.5256L120.346 77.9489ZM123.715 78.7031L123.36 80.2558C123.272 80.6995 123.227 81.01 123.227 81.1875C123.227 81.4537 123.316 81.6755 123.449 81.8086C123.582 81.9861 123.804 82.0748 124.025 82.1192C124.247 82.1635 124.513 82.1635 124.69 82.0748C124.912 81.9861 125.045 81.853 125.178 81.6755C125.311 81.4981 125.399 81.0988 125.532 80.6108L125.843 79.1467L123.715 78.7031Z" fill="#BC2630"/>
<path d="M116.712 86.8659L117.465 87.1765C117.066 86.5554 116.978 85.9342 117.244 85.2688C117.377 84.9582 117.51 84.7364 117.731 84.5146C117.953 84.2928 118.174 84.1597 118.396 84.1153C118.618 84.0709 118.839 84.0709 119.15 84.1153C119.327 84.1597 119.593 84.2484 119.947 84.3815L123.05 85.6237L122.696 86.4666L119.903 85.3575C119.46 85.18 119.15 85.0913 118.972 85.047C118.706 85.0026 118.529 85.047 118.307 85.1801C118.086 85.3131 117.953 85.4906 117.864 85.7568C117.775 86.023 117.731 86.2892 117.775 86.5554C117.82 86.8215 117.953 87.0434 118.13 87.2208C118.307 87.3983 118.618 87.5757 119.061 87.7532L121.765 88.8179L121.41 89.6609L116.401 87.6645L116.712 86.8659Z" fill="#BC2630"/>
<path d="M117.332 89.4837L117.022 90.3266C116.668 90.1935 116.357 90.1935 116.091 90.2822C115.825 90.371 115.559 90.6372 115.382 90.9921C115.16 91.347 115.116 91.6575 115.16 91.9237C115.205 92.1899 115.338 92.3674 115.559 92.5005C115.737 92.5892 115.914 92.5892 116.136 92.5005C116.269 92.4118 116.49 92.1899 116.845 91.835C117.332 91.347 117.687 90.9921 117.909 90.8146C118.13 90.6372 118.396 90.5484 118.662 90.5484C118.928 90.5484 119.15 90.5928 119.371 90.7259C119.593 90.859 119.77 90.9921 119.859 91.2139C119.992 91.3914 120.081 91.6132 120.081 91.835C120.125 92.0125 120.081 92.2343 120.036 92.4561C119.992 92.7223 119.903 92.9441 119.77 93.2103C119.549 93.5652 119.327 93.8758 119.061 94.0976C118.795 94.3194 118.529 94.4525 118.263 94.4969C117.997 94.5413 117.731 94.4969 117.377 94.3638L117.687 93.5209C117.953 93.6096 118.175 93.6096 118.441 93.5209C118.662 93.4321 118.884 93.2103 119.061 92.8998C119.283 92.5448 119.371 92.2343 119.327 92.0125C119.283 91.7906 119.194 91.6132 119.017 91.5245C118.928 91.4801 118.795 91.4357 118.662 91.4801C118.529 91.4801 118.396 91.5688 118.263 91.6576C118.175 91.7019 117.997 91.9237 117.687 92.2343C117.244 92.7223 116.889 93.0329 116.668 93.2103C116.446 93.3878 116.224 93.4765 115.958 93.5209C115.692 93.5652 115.426 93.4765 115.16 93.3434C114.895 93.2103 114.673 92.9885 114.54 92.6779C114.407 92.4117 114.318 92.0568 114.363 91.7019C114.407 91.347 114.496 90.9477 114.717 90.5928C115.072 89.9717 115.426 89.5724 115.87 89.395C116.269 89.3062 116.756 89.3062 117.332 89.4837Z" fill="#BC2630"/>
<path d="M112.988 93.6982L117.421 96.7594L116.889 97.5136L112.456 94.4524L112.988 93.6982ZM118.263 97.2918L119.149 97.8685L118.617 98.6227L117.731 98.046L118.263 97.2918Z" fill="#BC2630"/>
<path d="M111.57 95.7393L115.692 99.1997L115.16 99.8208L114.584 99.3328C114.761 99.9983 114.628 100.664 114.141 101.24C113.919 101.507 113.697 101.684 113.431 101.817C113.166 101.95 112.9 101.995 112.678 101.995C112.456 101.995 112.235 101.906 111.969 101.773C111.836 101.684 111.57 101.507 111.26 101.24L108.733 99.111L109.309 98.4011L111.836 100.531C112.102 100.752 112.368 100.93 112.545 100.974C112.722 101.019 112.944 101.019 113.121 100.974C113.343 100.886 113.52 100.797 113.653 100.575C113.919 100.264 114.008 99.9539 114.008 99.5546C114.008 99.1997 113.742 98.7561 113.21 98.3124L110.949 96.4047L111.57 95.7393Z" fill="#BC2630"/>
<path d="M106.118 103.991L105.32 104.523C105.054 104.035 104.965 103.503 105.054 103.015C105.142 102.527 105.408 102.039 105.896 101.64C106.472 101.107 107.093 100.885 107.758 100.93C108.423 100.974 109.043 101.329 109.664 101.995C110.284 102.66 110.55 103.326 110.55 104.035C110.55 104.701 110.24 105.322 109.708 105.81C109.176 106.298 108.556 106.52 107.891 106.431C107.226 106.387 106.605 106.032 105.985 105.366C105.94 105.322 105.896 105.278 105.807 105.189L108.777 102.483C108.334 102.083 107.935 101.861 107.492 101.817C107.048 101.773 106.694 101.906 106.339 102.216C106.073 102.438 105.94 102.704 105.896 102.971C105.852 103.237 105.985 103.636 106.118 103.991ZM109.353 103.059L107.137 105.1C107.492 105.411 107.802 105.588 108.068 105.633C108.511 105.677 108.91 105.588 109.265 105.278C109.575 105.011 109.752 104.656 109.752 104.257C109.797 103.814 109.619 103.459 109.353 103.059Z" fill="#BC2630"/>
<path d="M104.433 105.233L103.768 105.854C103.502 105.588 103.236 105.455 102.926 105.411C102.616 105.366 102.306 105.499 101.951 105.721C101.596 105.943 101.419 106.209 101.33 106.475C101.242 106.741 101.286 106.963 101.419 107.141C101.552 107.318 101.685 107.407 101.907 107.407C102.04 107.407 102.35 107.318 102.837 107.141C103.502 106.919 103.946 106.741 104.212 106.697C104.478 106.653 104.743 106.697 105.009 106.786C105.231 106.875 105.453 107.052 105.586 107.274C105.719 107.451 105.807 107.673 105.852 107.895C105.896 108.117 105.852 108.339 105.763 108.56C105.719 108.738 105.586 108.915 105.453 109.093C105.275 109.27 105.098 109.492 104.876 109.625C104.522 109.847 104.167 110.024 103.857 110.113C103.502 110.202 103.236 110.202 103.015 110.113C102.793 110.024 102.527 109.847 102.261 109.625L102.926 109.004C103.103 109.226 103.325 109.315 103.591 109.359C103.857 109.359 104.123 109.27 104.389 109.093C104.744 108.871 104.921 108.605 105.009 108.427C105.098 108.205 105.054 108.028 104.965 107.895C104.876 107.806 104.788 107.717 104.699 107.717C104.566 107.673 104.433 107.673 104.256 107.717C104.167 107.762 103.901 107.851 103.458 107.984C102.837 108.205 102.394 108.339 102.084 108.383C101.818 108.427 101.552 108.427 101.33 108.339C101.109 108.25 100.887 108.072 100.71 107.806C100.532 107.54 100.444 107.274 100.444 106.963C100.444 106.653 100.532 106.342 100.71 106.032C100.887 105.721 101.153 105.455 101.508 105.189C102.084 104.789 102.616 104.612 103.059 104.656C103.591 104.612 104.034 104.834 104.433 105.233Z" fill="#BC2630"/>
<path d="M99.8228 108.339L99.0693 108.871C98.8476 108.561 98.5817 108.383 98.3157 108.339C98.0054 108.294 97.6952 108.339 97.3405 108.516C96.9859 108.694 96.72 108.916 96.6313 109.182C96.5427 109.448 96.5427 109.67 96.6313 109.847C96.72 110.025 96.8973 110.113 97.0746 110.158C97.2076 110.158 97.5622 110.113 98.0498 109.98C98.7147 109.803 99.2022 109.714 99.4682 109.714C99.7342 109.714 100 109.758 100.222 109.892C100.443 110.025 100.621 110.202 100.754 110.424C100.887 110.646 100.931 110.868 100.931 111.089C100.931 111.311 100.887 111.533 100.754 111.755C100.665 111.932 100.532 112.065 100.355 112.243C100.177 112.42 99.9558 112.553 99.6898 112.686C99.3352 112.864 98.9363 112.997 98.626 113.041C98.2714 113.086 98.0054 113.041 97.7838 112.908C97.5622 112.775 97.3405 112.598 97.1189 112.332L97.8725 111.799C98.0498 112.021 98.2271 112.154 98.493 112.198C98.759 112.243 99.0249 112.198 99.3352 112.021C99.6898 111.844 99.9558 111.622 100.044 111.4C100.133 111.178 100.133 111.001 100.044 110.823C100 110.734 99.9115 110.646 99.7785 110.601C99.6455 110.557 99.5125 110.513 99.3352 110.557C99.2466 110.557 98.9806 110.646 98.493 110.734C97.8281 110.868 97.3849 110.956 97.1189 111.001C96.853 111.001 96.587 110.956 96.3654 110.868C96.1437 110.734 95.9664 110.557 95.7891 110.291C95.6561 110.025 95.6118 109.714 95.6118 109.404C95.6561 109.093 95.7891 108.782 96.0108 108.472C96.2324 108.206 96.5427 107.939 96.8973 107.762C97.5179 107.451 98.0498 107.318 98.5374 107.407C99.0693 107.629 99.4682 107.895 99.8228 108.339Z" fill="#BC2630"/>
<path d="M68.4845 140.947L70.8781 141.656C70.7008 142.322 70.4792 142.899 70.1246 143.342C69.77 143.786 69.3267 144.141 68.8391 144.363C68.3072 144.585 67.6866 144.718 66.8887 144.718C65.9136 144.718 65.1157 144.585 64.5395 144.274C63.9189 144.008 63.387 143.52 62.9437 142.81C62.5004 142.1 62.2788 141.213 62.2788 140.104C62.2788 138.64 62.6777 137.486 63.4313 136.688C64.2292 135.889 65.3373 135.49 66.7558 135.49C67.8639 135.49 68.7505 135.712 69.4154 136.155C70.0359 136.599 70.5235 137.309 70.8338 138.24L68.3958 138.773C68.3072 138.507 68.2185 138.285 68.1299 138.196C67.9969 137.974 67.7753 137.841 67.5536 137.708C67.332 137.575 67.0661 137.531 66.8001 137.531C66.1795 137.531 65.6919 137.797 65.3817 138.285C65.1157 138.64 65.027 139.261 65.027 140.059C65.027 141.035 65.16 141.701 65.4703 142.1C65.7806 142.455 66.1795 142.632 66.7114 142.632C67.2434 142.632 67.6423 142.499 67.9083 142.189C68.1742 141.923 68.3958 141.523 68.4845 140.947Z" fill="#BC2630"/>
<path d="M84.2202 135.667H91.5784V137.575H86.9684V138.995H91.2681V140.814H86.9684V142.588H91.7113V144.585H84.2202V135.667Z" fill="#BC2630"/>
<path d="M69.4595 129.944H74.2024L77.4825 140.503L80.7184 129.944H85.3283L79.8762 144.584H74.9559L69.4595 129.944Z" fill="#BC2630"/>
</g>
<defs>
<clipPath id="clip0">
<rect width="154.921" height="144.762" fill="white"/>
</clipPath>
</defs>
</svg>
