<svg width="1440" height="444" viewBox="0 0 1440 444" fill="none" xmlns="http://www.w3.org/2000/svg">
<path opacity="0.4" d="M-79.166 87H-61.8393C-46.1048 87 -39.1742 75.9484 -39.1742 54.3135C-39.1742 32.6786 -46.1048 21.627 -61.8393 21.627H-79.166V87ZM-75.7943 83.9093V24.7177H-61.8393C-48.7272 24.7177 -42.9205 34.4581 -42.9205 50.8482V57.7788C-42.9205 74.1689 -48.7272 83.9093 -61.8393 83.9093H-75.7943ZM1.99859 23.5938C4.52735 23.5938 5.46392 22.3763 5.46392 20.7841V19.9412C5.46392 18.349 4.52735 17.1314 1.99859 17.1314C-0.530166 17.1314 -1.46674 18.349 -1.46674 19.9412V20.7841C-1.46674 22.3763 -0.530166 23.5938 1.99859 23.5938ZM-18.4188 87H21.2921V84.0966H3.68443V38.6727H-18.4188V41.5761H0.406412V84.0966H-18.4188V87ZM82.0392 92.8068C82.0392 85.7825 77.3564 81.2869 66.2111 81.2869H54.0356C47.9479 81.2869 45.9811 79.1328 45.9811 76.5104C45.9811 72.9514 49.1654 70.7036 54.1293 69.486C55.8151 69.8607 57.4073 70.048 59.1868 70.048C69.2082 70.048 76.0452 63.5856 76.0452 53.7516C76.0452 48.975 74.453 45.0414 71.6432 42.2317V36.7995H82.8822V33.8961H72.8608C70.4257 33.8961 69.3955 35.1137 69.3955 37.3615V40.4522C66.6794 38.579 63.3077 37.5488 59.1868 37.5488C48.8845 37.5488 42.4221 44.0112 42.4221 53.7516C42.4221 60.8695 45.7001 65.927 51.1322 68.3621V68.6431C46.824 69.8607 42.984 72.3894 42.984 76.9786C42.984 80.0693 44.4825 82.2235 47.8542 83.3474V83.8156C42.1411 85.5951 38.7694 89.0605 38.7694 94.6799C38.7694 102.079 44.7635 106.855 59.1868 106.855C73.891 106.855 82.0392 102.454 82.0392 92.8068ZM78.8549 92.9941C78.8549 100.58 72.0179 104.046 61.7155 104.046H56.4707C47.4796 104.046 42.1411 100.299 42.1411 94.3053C42.1411 88.9668 45.7001 85.8761 51.0386 84.3776H66.0238C75.5769 84.3776 78.8549 87.6556 78.8549 92.9941ZM59.1868 67.3319C50.7576 67.3319 45.9811 62.2744 45.9811 55.4374V52.0657C45.9811 45.3224 50.6639 40.2649 59.1868 40.2649C67.8033 40.2649 72.4862 45.3224 72.4862 52.0657V55.4374C72.4862 62.2744 67.8033 67.3319 59.1868 67.3319ZM121.807 23.5938C124.336 23.5938 125.272 22.3763 125.272 20.7841V19.9412C125.272 18.349 124.336 17.1314 121.807 17.1314C119.278 17.1314 118.342 18.349 118.342 19.9412V20.7841C118.342 22.3763 119.278 23.5938 121.807 23.5938ZM101.39 87H141.101V84.0966H123.493V38.6727H101.39V41.5761H120.215V84.0966H101.39V87ZM199.6 87V84.0966H175.53V41.5761H199.6V38.6727H175.53V21.627H172.346V35.582C172.346 37.7361 171.409 38.6727 169.161 38.6727H154.082V41.5761H172.252V82.3171C172.252 85.3142 173.657 87 176.841 87H199.6ZM260.722 87V84.0966H253.042V53.4706C253.042 43.4492 246.767 37.5488 236.371 37.5488C227.473 37.5488 221.76 41.6697 219.138 47.5702L221.573 49.1623C224.195 43.1682 229.534 40.4522 236.277 40.4522C244.613 40.4522 249.764 44.7604 249.764 53.8452V60.7759H236.558C222.229 60.7759 217.546 66.3953 217.546 74.4499C217.546 83.16 223.446 88.1239 233.748 88.1239C242.459 88.1239 247.235 84.3776 249.483 79.6011H249.858V83.0664C249.951 85.5951 251.169 87 253.978 87H260.722ZM234.029 85.3142C226.349 85.3142 221.105 81.9425 221.105 75.8547V73.045C221.105 67.2382 225.507 63.3983 236.652 63.3983H249.764V73.1387C249.764 81.0059 242.552 85.3142 234.029 85.3142ZM278.667 87H318.378V84.0966H300.209V17.6934H278.667V20.5968H296.931V84.0966H278.667V87ZM420.298 88.1239C429.196 88.1239 435.096 83.2537 437.625 77.3533L435.096 75.8547C432.474 81.5679 427.604 85.2205 420.298 85.2205C409.528 85.2205 403.534 77.5406 403.534 65.5524V60.1203C403.534 48.1321 409.528 40.4522 420.298 40.4522C427.135 40.4522 432.005 43.6365 434.16 49.3496L436.969 48.2258C434.628 41.9507 428.915 37.5488 420.298 37.5488C407.561 37.5488 399.975 46.4463 399.975 62.8363C399.975 79.2264 407.467 88.1239 420.298 88.1239ZM478.236 88.1239C490.879 88.1239 498.466 79.2264 498.466 62.8363C498.466 46.4463 490.879 37.5488 478.236 37.5488C465.592 37.5488 458.006 46.4463 458.006 62.8363C458.006 79.2264 465.592 88.1239 478.236 88.1239ZM478.236 85.2205C467.652 85.2205 461.565 77.8216 461.565 65.3651V60.3076C461.565 47.8511 467.652 40.4522 478.236 40.4522C488.819 40.4522 494.907 47.8511 494.907 60.3076V65.3651C494.907 77.8216 488.819 85.2205 478.236 85.2205ZM519.596 87V51.1291C519.596 43.9175 523.904 40.3585 528.868 40.3585C534.019 40.3585 536.641 43.5429 536.641 50.9418V87H539.732V51.1291C539.732 43.9175 543.947 40.3585 549.004 40.3585C554.155 40.3585 556.778 43.5429 556.778 50.9418V87H559.869V50.4735C559.869 42.138 556.778 37.5488 549.847 37.5488C544.04 37.5488 540.856 40.9205 539.358 45.2287H539.17C538.234 40.3585 535.049 37.5488 529.711 37.5488C524.279 37.5488 521.375 40.4522 519.877 44.3858H519.596V38.6727H516.505V87H519.596ZM579.5 87V51.1291C579.5 43.9175 583.808 40.3585 588.772 40.3585C593.923 40.3585 596.546 43.5429 596.546 50.9418V87H599.636V51.1291C599.636 43.9175 603.851 40.3585 608.909 40.3585C614.06 40.3585 616.682 43.5429 616.682 50.9418V87H619.773V50.4735C619.773 42.138 616.682 37.5488 609.751 37.5488C603.945 37.5488 600.76 40.9205 599.262 45.2287H599.074C598.138 40.3585 594.954 37.5488 589.615 37.5488C584.183 37.5488 581.28 40.4522 579.781 44.3858H579.5V38.6727H576.409V87H579.5ZM658.604 88.1239C667.97 88.1239 674.432 83.2537 677.242 75.7611L674.62 74.3562C671.81 81.5679 666.284 85.2205 658.604 85.2205C647.646 85.2205 641.465 77.5406 641.465 65.5524V63.1173H678.179V61.8061C678.179 47.1955 671.061 37.5488 658.136 37.5488C645.679 37.5488 637.906 46.4463 637.906 62.8363C637.906 79.2264 645.679 88.1239 658.604 88.1239ZM658.136 40.3585C668.626 40.3585 674.713 47.9448 674.713 60.0266V60.4949H641.465V60.1203C641.465 48.0384 647.646 40.3585 658.136 40.3585ZM697.154 87H737.146V84.0966H716.542V56.8423C716.542 47.0082 723.098 41.7634 731.246 41.7634H741.923V38.6727H732.089C723.004 38.6727 718.977 43.2619 716.823 48.694H716.542V38.6727H697.154V41.5761H713.264V84.0966H697.154V87ZM779.724 88.1239C788.621 88.1239 794.522 83.2537 797.051 77.3533L794.522 75.8547C791.899 81.5679 787.029 85.2205 779.724 85.2205C768.953 85.2205 762.959 77.5406 762.959 65.5524V60.1203C762.959 48.1321 768.953 40.4522 779.724 40.4522C786.561 40.4522 791.431 43.6365 793.585 49.3496L796.395 48.2258C794.053 41.9507 788.34 37.5488 779.724 37.5488C766.986 37.5488 759.4 46.4463 759.4 62.8363C759.4 79.2264 766.893 88.1239 779.724 88.1239ZM838.317 88.1239C847.683 88.1239 854.145 83.2537 856.955 75.7611L854.332 74.3562C851.523 81.5679 845.997 85.2205 838.317 85.2205C827.359 85.2205 821.178 77.5406 821.178 65.5524V63.1173H857.891V61.8061C857.891 47.1955 850.773 37.5488 837.849 37.5488C825.392 37.5488 817.619 46.4463 817.619 62.8363C817.619 79.2264 825.392 88.1239 838.317 88.1239ZM837.849 40.3585C848.338 40.3585 854.426 47.9448 854.426 60.0266V60.4949H821.178V60.1203C821.178 48.0384 827.359 40.3585 837.849 40.3585ZM937.895 87H977.419V84.0966H958.781V41.5761H979.573V38.6727H958.781V20.5968H979.573V17.6934H960.186C957.002 17.6934 955.597 19.3792 955.597 22.3763V38.6727H936.959V41.5761H955.597V84.0966H937.895V87ZM1020.37 23.5938C1022.9 23.5938 1023.84 22.3763 1023.84 20.7841V19.9412C1023.84 18.349 1022.9 17.1314 1020.37 17.1314C1017.84 17.1314 1016.91 18.349 1016.91 19.9412V20.7841C1016.91 22.3763 1017.84 23.5938 1020.37 23.5938ZM999.954 87H1039.66V84.0966H1022.06V38.6727H999.954V41.5761H1018.78V84.0966H999.954V87ZM1063.7 87V52.4403C1063.7 44.3858 1070.54 40.4522 1077.84 40.4522C1086.74 40.4522 1091.7 45.3224 1091.7 56.1867V87H1094.98V55.6247C1094.98 43.9175 1089.08 37.5488 1078.59 37.5488C1070.16 37.5488 1065.76 41.5761 1063.98 45.7907H1063.7V38.6727H1060.42V87H1063.7ZM1159.29 87V84.0966H1151.61V53.4706C1151.61 43.4492 1145.33 37.5488 1134.93 37.5488C1126.04 37.5488 1120.32 41.6697 1117.7 47.5702L1120.14 49.1623C1122.76 43.1682 1128.1 40.4522 1134.84 40.4522C1143.18 40.4522 1148.33 44.7604 1148.33 53.8452V60.7759H1135.12C1120.79 60.7759 1116.11 66.3953 1116.11 74.4499C1116.11 83.16 1122.01 88.1239 1132.31 88.1239C1141.02 88.1239 1145.8 84.3776 1148.05 79.6011H1148.42V83.0664C1148.52 85.5951 1149.73 87 1152.54 87H1159.29ZM1132.59 85.3142C1124.91 85.3142 1119.67 81.9425 1119.67 75.8547V73.045C1119.67 67.2382 1124.07 63.3983 1135.22 63.3983H1148.33V73.1387C1148.33 81.0059 1141.12 85.3142 1132.59 85.3142ZM1183.51 87V52.4403C1183.51 44.3858 1190.34 40.4522 1197.65 40.4522C1206.55 40.4522 1211.51 45.3224 1211.51 56.1867V87H1214.79V55.6247C1214.79 43.9175 1208.89 37.5488 1198.4 37.5488C1189.97 37.5488 1185.57 41.5761 1183.79 45.7907H1183.51V38.6727H1180.23V87H1183.51ZM1258.96 88.1239C1267.86 88.1239 1273.76 83.2537 1276.28 77.3533L1273.76 75.8547C1271.13 81.5679 1266.26 85.2205 1258.96 85.2205C1248.19 85.2205 1242.19 77.5406 1242.19 65.5524V60.1203C1242.19 48.1321 1248.19 40.4522 1258.96 40.4522C1265.8 40.4522 1270.67 43.6365 1272.82 49.3496L1275.63 48.2258C1273.29 41.9507 1267.57 37.5488 1258.96 37.5488C1246.22 37.5488 1238.63 46.4463 1238.63 62.8363C1238.63 79.2264 1246.13 88.1239 1258.96 88.1239ZM1317.55 88.1239C1326.92 88.1239 1333.38 83.2537 1336.19 75.7611L1333.57 74.3562C1330.76 81.5679 1325.23 85.2205 1317.55 85.2205C1306.59 85.2205 1300.41 77.5406 1300.41 65.5524V63.1173H1337.13V61.8061C1337.13 47.1955 1330.01 37.5488 1317.08 37.5488C1304.63 37.5488 1296.85 46.4463 1296.85 62.8363C1296.85 79.2264 1304.63 88.1239 1317.55 88.1239ZM1317.08 40.3585C1327.57 40.3585 1333.66 47.9448 1333.66 60.0266V60.4949H1300.41V60.1203C1300.41 48.0384 1306.59 40.3585 1317.08 40.3585ZM1438.11 88.1239C1449.07 88.1239 1457.21 83.5347 1457.21 73.7943C1457.21 64.7095 1450.1 62.4617 1441.86 61.3378L1434.27 60.2139C1426.96 59.1837 1422.19 57.3105 1422.19 50.6609C1422.19 43.5429 1427.81 40.3585 1436.52 40.3585C1445.51 40.3585 1450.1 43.8239 1453.19 47.3828L1455.44 45.1351C1451.6 41.1078 1445.98 37.5488 1436.61 37.5488C1426.87 37.5488 1418.91 41.2951 1418.91 50.8482C1418.91 59.933 1426.03 62.0871 1434.36 63.3046L1441.86 64.3349C1449.16 65.3651 1453.94 67.2382 1453.94 73.9816C1453.94 81.6615 1447.57 85.3142 1438.11 85.3142C1429.77 85.3142 1423.78 82.5981 1418.91 76.604L1416.57 78.5708C1421.72 84.8459 1428.74 88.1239 1438.11 88.1239ZM1518.71 87V84.0966H1511.03V53.4706C1511.03 43.4492 1504.76 37.5488 1494.36 37.5488C1485.46 37.5488 1479.75 41.6697 1477.13 47.5702L1479.56 49.1623C1482.18 43.1682 1487.52 40.4522 1494.27 40.4522C1502.6 40.4522 1507.75 44.7604 1507.75 53.8452V60.7759H1494.55C1480.22 60.7759 1475.54 66.3953 1475.54 74.4499C1475.54 83.16 1481.44 88.1239 1491.74 88.1239C1500.45 88.1239 1505.22 84.3776 1507.47 79.6011H1507.85V83.0664C1507.94 85.5951 1509.16 87 1511.97 87H1518.71ZM1492.02 85.3142C1484.34 85.3142 1479.09 81.9425 1479.09 75.8547V73.045C1479.09 67.2382 1483.5 63.3983 1494.64 63.3983H1507.75V73.1387C1507.75 81.0059 1500.54 85.3142 1492.02 85.3142ZM1536.66 87H1576.37V84.0966H1558.2V17.6934H1536.66V20.5968H1554.92V84.0966H1536.66V87ZM1617.07 88.1239C1626.44 88.1239 1632.9 83.2537 1635.71 75.7611L1633.09 74.3562C1630.28 81.5679 1624.75 85.2205 1617.07 85.2205C1606.11 85.2205 1599.93 77.5406 1599.93 65.5524V63.1173H1636.65V61.8061C1636.65 47.1955 1629.53 37.5488 1616.6 37.5488C1604.15 37.5488 1596.37 46.4463 1596.37 62.8363C1596.37 79.2264 1604.15 88.1239 1617.07 88.1239ZM1616.6 40.3585C1627.09 40.3585 1633.18 47.9448 1633.18 60.0266V60.4949H1599.93V60.1203C1599.93 48.0384 1606.11 40.3585 1616.6 40.3585ZM1677.73 88.1239C1688.68 88.1239 1696.83 83.5347 1696.83 73.7943C1696.83 64.7095 1689.71 62.4617 1681.47 61.3378L1673.89 60.2139C1666.58 59.1837 1661.8 57.3105 1661.8 50.6609C1661.8 43.5429 1667.42 40.3585 1676.13 40.3585C1685.12 40.3585 1689.71 43.8239 1692.8 47.3828L1695.05 45.1351C1691.21 41.1078 1685.59 37.5488 1676.23 37.5488C1666.49 37.5488 1658.53 41.2951 1658.53 50.8482C1658.53 59.933 1665.64 62.0871 1673.98 63.3046L1681.47 64.3349C1688.78 65.3651 1693.55 67.2382 1693.55 73.9816C1693.55 81.6615 1687.19 85.3142 1677.73 85.3142C1669.39 85.3142 1663.4 82.5981 1658.53 76.604L1656.18 78.5708C1661.34 84.8459 1668.36 88.1239 1677.73 88.1239ZM1789.2 88.1239C1797.53 88.1239 1803.62 83.722 1806.62 76.9786H1806.9L1815.52 87H1819.45L1808.77 74.4499C1810.55 69.8607 1811.21 64.6158 1811.86 55.9057H1819.36V53.0023H1808.96C1808.4 62.2744 1808.02 67.8939 1806.71 72.0148H1806.43L1787.7 49.9116C1783.86 45.3224 1781.33 40.9205 1781.33 36.3312V35.2074C1781.33 27.9957 1785.73 23.4065 1792.85 23.4065C1798.85 23.4065 1802.69 26.8718 1804.75 31.1801L1807.56 29.7752C1805.4 24.905 1800.53 20.5031 1792.95 20.5031C1784.14 20.5031 1777.96 26.5909 1777.96 35.582C1777.96 41.5761 1780.86 46.6336 1784.42 50.8482C1774.4 55.812 1771.59 63.211 1771.59 70.5163C1771.59 80.8186 1778.05 88.1239 1789.2 88.1239ZM1789.76 85.1268C1780.58 85.1268 1775.06 79.1328 1775.06 71.4528V69.486C1775.06 63.4919 1777.49 57.4042 1786.11 52.9086L1805.21 75.2928C1802.31 81.2869 1796.88 85.1268 1789.76 85.1268Z" fill="#444AE2"/>
<path opacity="0.4" d="M-18.2132 447.108C-7.25525 447.108 0.89296 442.519 0.89296 432.779C0.89296 423.694 -6.22502 421.446 -14.4669 420.322L-22.0532 419.198C-29.3584 418.168 -34.135 416.295 -34.135 409.645C-34.135 402.527 -28.5155 399.343 -19.8054 399.343C-10.8142 399.343 -6.22502 402.808 -3.13432 406.367L-0.886539 404.119C-4.7265 400.092 -10.346 396.533 -19.7117 396.533C-29.4521 396.533 -37.413 400.279 -37.413 409.833C-37.413 418.917 -30.295 421.071 -21.9595 422.289L-14.4669 423.319C-7.1616 424.349 -2.38506 426.223 -2.38506 432.966C-2.38506 440.646 -8.75378 444.299 -18.2132 444.299C-26.5487 444.299 -32.5428 441.582 -37.413 435.588L-39.7544 437.555C-34.6033 443.83 -27.579 447.108 -18.2132 447.108ZM37.1955 447.108C46.5613 447.108 53.0236 442.238 55.8334 434.745L53.211 433.341C50.4012 440.552 44.8754 444.205 37.1955 444.205C26.2376 444.205 20.0562 436.525 20.0562 424.537V422.102H56.77V420.79C56.77 406.18 49.652 396.533 36.7272 396.533C24.2708 396.533 16.4972 405.431 16.4972 421.821C16.4972 438.211 24.2708 447.108 37.1955 447.108ZM36.7272 399.343C47.2169 399.343 53.3046 406.929 53.3046 419.011V419.479H20.0562V419.105C20.0562 407.023 26.2376 399.343 36.7272 399.343ZM94.6647 447.108C103.562 447.108 109.463 442.238 111.991 436.338L109.463 434.839C106.84 440.552 101.97 444.205 94.6647 444.205C83.8941 444.205 77.9 436.525 77.9 424.537V419.105C77.9 407.116 83.8941 399.437 94.6647 399.437C101.502 399.437 106.372 402.621 108.526 408.334L111.336 407.21C108.994 400.935 103.281 396.533 94.6647 396.533C81.9273 396.533 74.341 405.431 74.341 421.821C74.341 438.211 81.8336 447.108 94.6647 447.108ZM169.741 445.984V443.081H145.671V400.56H169.741V397.657H145.671V380.611H142.487V394.566C142.487 396.72 141.551 397.657 139.303 397.657H124.224V400.56H142.393V441.301C142.393 444.299 143.798 445.984 146.983 445.984H169.741ZM205.014 447.108C217.658 447.108 225.244 438.211 225.244 421.821C225.244 405.431 217.658 396.533 205.014 396.533C192.37 396.533 184.784 405.431 184.784 421.821C184.784 438.211 192.37 447.108 205.014 447.108ZM205.014 444.205C194.431 444.205 188.343 436.806 188.343 424.349V419.292C188.343 406.836 194.431 399.437 205.014 399.437C215.597 399.437 221.685 406.836 221.685 419.292V424.349C221.685 436.806 215.597 444.205 205.014 444.205ZM240.473 445.984H280.465V443.081H259.861V415.827C259.861 405.993 266.417 400.748 274.565 400.748H285.242V397.657H275.408C266.323 397.657 262.296 402.246 260.142 407.678H259.861V397.657H240.473V400.56H256.583V443.081H240.473V445.984ZM374.893 447.108C385.851 447.108 393.999 442.519 393.999 432.779C393.999 423.694 386.881 421.446 378.639 420.322L371.053 419.198C363.747 418.168 358.971 416.295 358.971 409.645C358.971 402.527 364.59 399.343 373.3 399.343C382.292 399.343 386.881 402.808 389.971 406.367L392.219 404.119C388.379 400.092 382.76 396.533 373.394 396.533C363.654 396.533 355.693 400.279 355.693 409.833C355.693 418.917 362.811 421.071 371.146 422.289L378.639 423.319C385.944 424.349 390.721 426.223 390.721 432.966C390.721 440.646 384.352 444.299 374.893 444.299C366.557 444.299 360.563 441.582 355.693 435.588L353.351 437.555C358.503 443.83 365.527 447.108 374.893 447.108ZM443.226 445.984H446.504V397.657H443.226V432.217C443.226 440.271 436.389 444.205 429.084 444.205C420.186 444.205 415.222 439.335 415.222 428.47V397.657H411.944V429.032C411.944 440.74 417.845 447.108 428.334 447.108C436.764 447.108 441.166 443.081 442.945 438.866H443.226V445.984ZM468.758 464.716H472.036V438.585H472.317C474.565 443.081 479.529 447.108 487.396 447.108C499.571 447.108 506.877 438.398 506.877 421.821C506.877 405.243 499.571 396.533 487.396 396.533C479.529 396.533 474.565 400.56 472.317 405.056H472.036V397.657H468.758V464.716ZM486.647 444.205C478.967 444.205 472.036 439.428 472.036 432.123V411.518C472.036 404.213 478.967 399.437 486.647 399.437C497.324 399.437 503.318 407.023 503.318 419.105V424.537C503.318 436.619 497.324 444.205 486.647 444.205ZM524.916 464.716H528.194V438.585H528.475C530.723 443.081 535.687 447.108 543.554 447.108C555.729 447.108 563.035 438.398 563.035 421.821C563.035 405.243 555.729 396.533 543.554 396.533C535.687 396.533 530.723 400.56 528.475 405.056H528.194V397.657H524.916V464.716ZM542.805 444.205C535.125 444.205 528.194 439.428 528.194 432.123V411.518C528.194 404.213 535.125 399.437 542.805 399.437C553.481 399.437 559.476 407.023 559.476 419.105V424.537C559.476 436.619 553.481 444.205 542.805 444.205ZM578.264 445.984H617.975V443.081H599.805V376.678H578.264V379.581H596.527V443.081H578.264V445.984ZM654.465 440.178H654.184L636.764 397.657H633.298L652.592 444.392L645.38 461.813H634.703V464.716H643.694C646.504 464.716 647.909 463.686 648.845 461.438L675.257 397.657H671.885L654.465 440.178ZM768.56 447.108C777.458 447.108 783.358 442.238 785.887 436.338L783.358 434.839C780.736 440.552 775.866 444.205 768.56 444.205C757.79 444.205 751.796 436.525 751.796 424.537V419.105C751.796 407.116 757.79 399.437 768.56 399.437C775.397 399.437 780.267 402.621 782.422 408.334L785.231 407.21C782.89 400.935 777.177 396.533 768.56 396.533C755.823 396.533 748.237 405.431 748.237 421.821C748.237 438.211 755.729 447.108 768.56 447.108ZM805.893 445.984H809.171V411.425C809.171 403.37 816.008 399.437 823.313 399.437C832.211 399.437 837.175 404.307 837.175 415.171V445.984H840.453V414.609C840.453 402.902 834.552 396.533 824.063 396.533C815.633 396.533 811.232 400.56 809.452 404.775H809.171V376.678H805.893V445.984ZM901.013 445.984V443.081H893.333V412.455C893.333 402.434 887.058 396.533 876.662 396.533C867.764 396.533 862.051 400.654 859.429 406.555L861.864 408.147C864.486 402.153 869.825 399.437 876.568 399.437C884.903 399.437 890.055 403.745 890.055 412.83V419.76H876.849C862.519 419.76 857.836 425.38 857.836 433.434C857.836 442.144 863.737 447.108 874.039 447.108C882.749 447.108 887.526 443.362 889.774 438.585H890.148V442.051C890.242 444.58 891.46 445.984 894.269 445.984H901.013ZM874.32 444.299C866.64 444.299 861.395 440.927 861.395 434.839V432.029C861.395 426.223 865.797 422.383 876.943 422.383H890.055V432.123C890.055 439.99 882.843 444.299 874.32 444.299ZM938.064 382.578C940.593 382.578 941.53 381.361 941.53 379.768V378.926C941.53 377.333 940.593 376.116 938.064 376.116C935.536 376.116 934.599 377.333 934.599 378.926V379.768C934.599 381.361 935.536 382.578 938.064 382.578ZM917.647 445.984H957.358V443.081H939.75V397.657H917.647V400.56H936.472V443.081H917.647V445.984ZM977.645 445.984V411.425C977.645 403.37 984.482 399.437 991.787 399.437C1000.68 399.437 1005.65 404.307 1005.65 415.171V445.984H1008.93V414.609C1008.93 402.902 1003.03 396.533 992.537 396.533C984.107 396.533 979.705 400.56 977.926 404.775H977.645V397.657H974.367V445.984H977.645ZM1105.51 447.108C1114.41 447.108 1120.31 442.238 1122.83 436.338L1120.31 434.839C1117.68 440.552 1112.81 444.205 1105.51 444.205C1094.74 444.205 1088.74 436.525 1088.74 424.537V419.105C1088.74 407.116 1094.74 399.437 1105.51 399.437C1112.35 399.437 1117.22 402.621 1119.37 408.334L1122.18 407.21C1119.84 400.935 1114.12 396.533 1105.51 396.533C1092.77 396.533 1085.18 405.431 1085.18 421.821C1085.18 438.211 1092.68 447.108 1105.51 447.108ZM1159.7 447.108C1172.34 447.108 1179.93 438.211 1179.93 421.821C1179.93 405.431 1172.34 396.533 1159.7 396.533C1147.06 396.533 1139.47 405.431 1139.47 421.821C1139.47 438.211 1147.06 447.108 1159.7 447.108ZM1159.7 444.205C1149.12 444.205 1143.03 436.806 1143.03 424.349V419.292C1143.03 406.836 1149.12 399.437 1159.7 399.437C1170.28 399.437 1176.37 406.836 1176.37 419.292V424.349C1176.37 436.806 1170.28 444.205 1159.7 444.205ZM1197.31 445.984V410.114C1197.31 402.902 1201.62 399.343 1206.59 399.343C1211.74 399.343 1214.36 402.527 1214.36 409.926V445.984H1217.45V410.114C1217.45 402.902 1221.66 399.343 1226.72 399.343C1231.87 399.343 1234.5 402.527 1234.5 409.926V445.984H1237.59V409.458C1237.59 401.122 1234.5 396.533 1227.56 396.533C1221.76 396.533 1218.57 399.905 1217.07 404.213H1216.89C1215.95 399.343 1212.77 396.533 1207.43 396.533C1202 396.533 1199.09 399.437 1197.59 403.37H1197.31V397.657H1194.22V445.984H1197.31ZM1254.97 464.716H1258.25V438.585H1258.53C1260.78 443.081 1265.74 447.108 1273.61 447.108C1285.78 447.108 1293.09 438.398 1293.09 421.821C1293.09 405.243 1285.78 396.533 1273.61 396.533C1265.74 396.533 1260.78 400.56 1258.53 405.056H1258.25V397.657H1254.97V464.716ZM1272.86 444.205C1265.18 444.205 1258.25 439.428 1258.25 432.123V411.518C1258.25 404.213 1265.18 399.437 1272.86 399.437C1283.54 399.437 1289.53 407.023 1289.53 419.105V424.537C1289.53 436.619 1283.54 444.205 1272.86 444.205ZM1308.32 445.984H1348.03V443.081H1329.86V376.678H1308.32V379.581H1326.58V443.081H1308.32V445.984ZM1387.33 382.578C1389.86 382.578 1390.79 381.361 1390.79 379.768V378.926C1390.79 377.333 1389.86 376.116 1387.33 376.116C1384.8 376.116 1383.86 377.333 1383.86 378.926V379.768C1383.86 381.361 1384.8 382.578 1387.33 382.578ZM1366.91 445.984H1406.62V443.081H1389.01V397.657H1366.91V400.56H1385.74V443.081H1366.91V445.984ZM1462.59 445.984V443.081H1454.91V412.455C1454.91 402.434 1448.64 396.533 1438.24 396.533C1429.34 396.533 1423.63 400.654 1421.01 406.555L1423.44 408.147C1426.07 402.153 1431.4 399.437 1438.15 399.437C1446.48 399.437 1451.63 403.745 1451.63 412.83V419.76H1438.43C1424.1 419.76 1419.42 425.38 1419.42 433.434C1419.42 442.144 1425.32 447.108 1435.62 447.108C1444.33 447.108 1449.11 443.362 1451.35 438.585H1451.73V442.051C1451.82 444.58 1453.04 445.984 1455.85 445.984H1462.59ZM1435.9 444.299C1428.22 444.299 1422.98 440.927 1422.98 434.839V432.029C1422.98 426.223 1427.38 422.383 1438.52 422.383H1451.63V432.123C1451.63 439.99 1444.42 444.299 1435.9 444.299ZM1483.07 445.984V411.425C1483.07 403.37 1489.9 399.437 1497.21 399.437C1506.11 399.437 1511.07 404.307 1511.07 415.171V445.984H1514.35V414.609C1514.35 402.902 1508.45 396.533 1497.96 396.533C1489.53 396.533 1485.13 400.56 1483.35 404.775H1483.07V397.657H1479.79V445.984H1483.07ZM1554.77 447.108C1563.67 447.108 1569.57 442.238 1572.1 436.338L1569.57 434.839C1566.95 440.552 1562.08 444.205 1554.77 444.205C1544 444.205 1538.01 436.525 1538.01 424.537V419.105C1538.01 407.116 1544 399.437 1554.77 399.437C1561.61 399.437 1566.48 402.621 1568.63 408.334L1571.44 407.21C1569.1 400.935 1563.39 396.533 1554.77 396.533C1542.03 396.533 1534.45 405.431 1534.45 421.821C1534.45 438.211 1541.94 447.108 1554.77 447.108ZM1609.62 447.108C1618.98 447.108 1625.45 442.238 1628.26 434.745L1625.63 433.341C1622.82 440.552 1617.3 444.205 1609.62 444.205C1598.66 444.205 1592.48 436.525 1592.48 424.537V422.102H1629.19V420.79C1629.19 406.18 1622.08 396.533 1609.15 396.533C1596.69 396.533 1588.92 405.431 1588.92 421.821C1588.92 438.211 1596.69 447.108 1609.62 447.108ZM1609.15 399.343C1619.64 399.343 1625.73 406.929 1625.73 419.011V419.479H1592.48V419.105C1592.48 407.023 1598.66 399.343 1609.15 399.343ZM1658 461.438H1660.72L1668.87 437.368H1662.97L1658 461.438ZM1704.23 464.716H1707.51V438.585H1707.79C1710.04 443.081 1715 447.108 1722.87 447.108C1735.05 447.108 1742.35 438.398 1742.35 421.821C1742.35 405.243 1735.05 396.533 1722.87 396.533C1715 396.533 1710.04 400.56 1707.79 405.056H1707.51V397.657H1704.23V464.716ZM1722.12 444.205C1714.44 444.205 1707.51 439.428 1707.51 432.123V411.518C1707.51 404.213 1714.44 399.437 1722.12 399.437C1732.8 399.437 1738.79 407.023 1738.79 419.105V424.537C1738.79 436.619 1732.8 444.205 1722.12 444.205ZM1756.74 445.984H1796.73V443.081H1776.13V415.827C1776.13 405.993 1782.68 400.748 1790.83 400.748H1801.51V397.657H1791.67C1782.59 397.657 1778.56 402.246 1776.41 407.678H1776.13V397.657H1756.74V400.56H1772.85V443.081H1756.74V445.984Z" fill="#444AE2"/>
<path opacity="0.4" d="M-34.4444 320.803C-25.0786 320.803 -18.6163 315.932 -15.8065 308.44L-18.4289 307.035C-21.2387 314.247 -26.7645 317.899 -34.4444 317.899C-45.4023 317.899 -51.5837 310.219 -51.5837 298.231V295.796H-14.8699V294.485C-14.8699 279.874 -21.9879 270.228 -34.9127 270.228C-47.3691 270.228 -55.1427 279.125 -55.1427 295.515C-55.1427 311.905 -47.3691 320.803 -34.4444 320.803ZM-34.9127 273.037C-24.423 273.037 -18.3353 280.623 -18.3353 292.705V293.174H-51.5837V292.799C-51.5837 280.717 -45.4023 273.037 -34.9127 273.037ZM4.48058 319.679L20.8707 297.763H21.058L37.4481 319.679H41.4753L23.0248 295.234L41.1007 271.351H37.3544L21.2453 292.799H21.058L4.94887 271.351H1.01525L19.0912 295.328L0.640623 319.679H4.48058ZM60.1703 338.41H63.4483V312.28H63.7293C65.977 316.775 70.9409 320.803 78.8081 320.803C90.9836 320.803 98.2889 312.092 98.2889 295.515C98.2889 278.938 90.9836 270.228 78.8081 270.228C70.9409 270.228 65.977 274.255 63.7293 278.75H63.4483V271.351H60.1703V338.41ZM78.0589 317.899C70.3789 317.899 63.4483 313.123 63.4483 305.817V285.213C63.4483 277.907 70.3789 273.131 78.0589 273.131C88.7358 273.131 94.7299 280.717 94.7299 292.799V298.231C94.7299 310.313 88.7358 317.899 78.0589 317.899ZM134.03 320.803C143.395 320.803 149.858 315.932 152.667 308.44L150.045 307.035C147.235 314.247 141.709 317.899 134.03 317.899C123.072 317.899 116.89 310.219 116.89 298.231V295.796H153.604V294.485C153.604 279.874 146.486 270.228 133.561 270.228C121.105 270.228 113.331 279.125 113.331 295.515C113.331 311.905 121.105 320.803 134.03 320.803ZM133.561 273.037C144.051 273.037 150.139 280.623 150.139 292.705V293.174H116.89V292.799C116.89 280.717 123.072 273.037 133.561 273.037ZM168.834 319.679H208.825V316.775H188.221V289.521C188.221 279.687 194.777 274.442 202.925 274.442H213.602V271.351H203.768C194.683 271.351 190.656 275.941 188.502 281.373H188.221V271.351H168.834V274.255H184.943V316.775H168.834V319.679ZM248.687 256.273C251.216 256.273 252.152 255.055 252.152 253.463V252.62C252.152 251.028 251.216 249.81 248.687 249.81C246.158 249.81 245.222 251.028 245.222 252.62V253.463C245.222 255.055 246.158 256.273 248.687 256.273ZM228.27 319.679H267.98V316.775H250.373V271.351H228.27V274.255H247.095V316.775H228.27V319.679ZM302.503 320.803C311.869 320.803 318.332 315.932 321.141 308.44L318.519 307.035C315.709 314.247 310.183 317.899 302.503 317.899C291.545 317.899 285.364 310.219 285.364 298.231V295.796H322.078V294.485C322.078 279.874 314.96 270.228 302.035 270.228C289.579 270.228 281.805 279.125 281.805 295.515C281.805 311.905 289.579 320.803 302.503 320.803ZM302.035 273.037C312.525 273.037 318.613 280.623 318.613 292.705V293.174H285.364V292.799C285.364 280.717 291.545 273.037 302.035 273.037ZM344.425 319.679V285.119C344.425 277.065 351.262 273.131 358.568 273.131C367.465 273.131 372.429 278.001 372.429 288.865V319.679H375.707V288.303C375.707 276.596 369.807 270.228 359.317 270.228C350.888 270.228 346.486 274.255 344.706 278.469H344.425V271.351H341.147V319.679H344.425ZM416.131 320.803C425.028 320.803 430.928 315.932 433.457 310.032L430.928 308.533C428.306 314.247 423.436 317.899 416.131 317.899C405.36 317.899 399.366 310.219 399.366 298.231V292.799C399.366 280.811 405.36 273.131 416.131 273.131C422.968 273.131 427.838 276.315 429.992 282.028L432.802 280.904C430.46 274.629 424.747 270.228 416.131 270.228C403.393 270.228 395.807 279.125 395.807 295.515C395.807 311.905 403.299 320.803 416.131 320.803ZM470.977 320.803C480.343 320.803 486.805 315.932 489.615 308.44L486.993 307.035C484.183 314.247 478.657 317.899 470.977 317.899C460.019 317.899 453.838 310.219 453.838 298.231V295.796H490.552V294.485C490.552 279.874 483.434 270.228 470.509 270.228C458.053 270.228 450.279 279.125 450.279 295.515C450.279 311.905 458.053 320.803 470.977 320.803ZM470.509 273.037C480.999 273.037 487.086 280.623 487.086 292.705V293.174H453.838V292.799C453.838 280.717 460.019 273.037 470.509 273.037ZM583.293 320.803C592.659 320.803 599.121 315.932 601.931 308.44L599.309 307.035C596.499 314.247 590.973 317.899 583.293 317.899C572.335 317.899 566.154 310.219 566.154 298.231V295.796H602.868V294.485C602.868 279.874 595.75 270.228 582.825 270.228C570.368 270.228 562.595 279.125 562.595 295.515C562.595 311.905 570.368 320.803 583.293 320.803ZM582.825 273.037C593.315 273.037 599.402 280.623 599.402 292.705V293.174H566.154V292.799C566.154 280.717 572.335 273.037 582.825 273.037ZM625.215 319.679V285.119C625.215 277.065 632.052 273.131 639.358 273.131C648.255 273.131 653.219 278.001 653.219 288.865V319.679H656.497V288.303C656.497 276.596 650.596 270.228 640.107 270.228C631.678 270.228 627.276 274.255 625.496 278.469H625.215V271.351H621.937V319.679H625.215ZM695.609 320.803C704.975 320.803 711.437 315.932 714.247 308.44L711.625 307.035C708.815 314.247 703.289 317.899 695.609 317.899C684.651 317.899 678.47 310.219 678.47 298.231V295.796H715.184V294.485C715.184 279.874 708.066 270.228 695.141 270.228C682.684 270.228 674.911 279.125 674.911 295.515C674.911 311.905 682.684 320.803 695.609 320.803ZM695.141 273.037C705.631 273.037 711.718 280.623 711.718 292.705V293.174H678.47V292.799C678.47 280.717 684.651 273.037 695.141 273.037ZM730.413 319.679H770.405V316.775H749.8V289.521C749.8 279.687 756.356 274.442 764.505 274.442H775.182V271.351H765.348C756.263 271.351 752.235 275.941 750.081 281.373H749.8V271.351H730.413V274.255H746.522V316.775H730.413V319.679ZM830.403 325.485C830.403 318.461 825.72 313.966 814.575 313.966H802.399C796.312 313.966 794.345 311.811 794.345 309.189C794.345 305.63 797.529 303.382 802.493 302.165C804.179 302.539 805.771 302.727 807.55 302.727C817.572 302.727 824.409 296.264 824.409 286.43C824.409 281.654 822.817 277.72 820.007 274.91V269.478H831.246V266.575H821.224C818.789 266.575 817.759 267.792 817.759 270.04V273.131C815.043 271.258 811.671 270.228 807.55 270.228C797.248 270.228 790.786 276.69 790.786 286.43C790.786 293.548 794.064 298.606 799.496 301.041V301.322C795.188 302.539 791.348 305.068 791.348 309.657C791.348 312.748 792.846 314.902 796.218 316.026V316.494C790.505 318.274 787.133 321.739 787.133 327.359C787.133 334.758 793.127 339.534 807.55 339.534C822.255 339.534 830.403 335.132 830.403 325.485ZM827.219 325.673C827.219 333.259 820.382 336.724 810.079 336.724H804.834C795.843 336.724 790.505 332.978 790.505 326.984C790.505 321.646 794.064 318.555 799.402 317.056H814.387C823.941 317.056 827.219 320.334 827.219 325.673ZM807.55 300.011C799.121 300.011 794.345 294.953 794.345 288.116V284.744C794.345 278.001 799.028 272.944 807.55 272.944C816.167 272.944 820.85 278.001 820.85 284.744V288.116C820.85 294.953 816.167 300.011 807.55 300.011ZM863.615 313.872H863.334L845.914 271.351H842.448L861.742 318.087L854.53 335.507H843.853V338.41H852.844C855.654 338.41 857.059 337.38 857.995 335.132L884.407 271.351H881.035L863.615 313.872ZM968.813 320.803C977.148 320.803 983.236 316.401 986.233 309.657H986.514L995.131 319.679H999.064L988.387 307.129C990.167 302.539 990.822 297.295 991.478 288.584H998.97V285.681H988.574C988.013 294.953 987.638 300.573 986.327 304.693H986.046L967.314 282.59C963.474 278.001 960.945 273.599 960.945 269.01V267.886C960.945 260.674 965.347 256.085 972.465 256.085C978.459 256.085 982.299 259.551 984.36 263.859L987.17 262.454C985.015 257.584 980.145 253.182 972.559 253.182C963.755 253.182 957.574 259.27 957.574 268.261C957.574 274.255 960.477 279.312 964.036 283.527C954.015 288.491 951.205 295.89 951.205 303.195C951.205 313.497 957.667 320.803 968.813 320.803ZM969.375 317.806C960.196 317.806 954.67 311.811 954.67 304.132V302.165C954.67 296.171 957.106 290.083 965.722 285.587L984.828 307.972C981.925 313.966 976.493 317.806 969.375 317.806ZM1101.64 319.679H1104.92V271.351H1101.64V305.911C1101.64 313.966 1094.8 317.899 1087.5 317.899C1078.6 317.899 1073.64 313.029 1073.64 302.165V271.351H1070.36V302.727C1070.36 314.434 1076.26 320.803 1086.75 320.803C1095.18 320.803 1099.58 316.775 1101.36 312.561H1101.64V319.679ZM1165.1 319.679V316.775H1141.03V274.255H1165.1V271.351H1141.03V254.306H1137.85V268.261C1137.85 270.415 1136.91 271.351 1134.66 271.351H1119.59V274.255H1137.75V314.996C1137.75 317.993 1139.16 319.679 1142.34 319.679H1165.1ZM1203.37 256.273C1205.9 256.273 1206.84 255.055 1206.84 253.463V252.62C1206.84 251.028 1205.9 249.81 1203.37 249.81C1200.84 249.81 1199.91 251.028 1199.91 252.62V253.463C1199.91 255.055 1200.84 256.273 1203.37 256.273ZM1182.95 319.679H1222.67V316.775H1205.06V271.351H1182.95V274.255H1201.78V316.775H1182.95V319.679ZM1236.68 319.679H1276.39V316.775H1258.22V250.372H1236.68V253.275H1254.94V316.775H1236.68V319.679ZM1315.69 256.273C1318.22 256.273 1319.15 255.055 1319.15 253.463V252.62C1319.15 251.028 1318.22 249.81 1315.69 249.81C1313.16 249.81 1312.22 251.028 1312.22 252.62V253.463C1312.22 255.055 1313.16 256.273 1315.69 256.273ZM1295.27 319.679H1334.98V316.775H1317.37V271.351H1295.27V274.255H1314.1V316.775H1295.27V319.679ZM1389.73 319.679V316.775H1365.66V274.255H1389.73V271.351H1365.66V254.306H1362.48V268.261C1362.48 270.415 1361.54 271.351 1359.3 271.351H1344.22V274.255H1362.39V314.996C1362.39 317.993 1363.79 319.679 1366.98 319.679H1389.73ZM1428 256.273C1430.53 256.273 1431.47 255.055 1431.47 253.463V252.62C1431.47 251.028 1430.53 249.81 1428 249.81C1425.48 249.81 1424.54 251.028 1424.54 252.62V253.463C1424.54 255.055 1425.48 256.273 1428 256.273ZM1407.59 319.679H1447.3V316.775H1429.69V271.351H1407.59V274.255H1426.41V316.775H1407.59V319.679ZM1481.82 320.803C1491.19 320.803 1497.65 315.932 1500.46 308.44L1497.84 307.035C1495.03 314.247 1489.5 317.899 1481.82 317.899C1470.86 317.899 1464.68 310.219 1464.68 298.231V295.796H1501.4V294.485C1501.4 279.874 1494.28 270.228 1481.35 270.228C1468.9 270.228 1461.12 279.125 1461.12 295.515C1461.12 311.905 1468.9 320.803 1481.82 320.803ZM1481.35 273.037C1491.84 273.037 1497.93 280.623 1497.93 292.705V293.174H1464.68V292.799C1464.68 280.717 1470.86 273.037 1481.35 273.037ZM1538.73 320.803C1549.69 320.803 1557.83 316.213 1557.83 306.473C1557.83 297.388 1550.72 295.14 1542.47 294.017L1534.89 292.893C1527.58 291.862 1522.81 289.989 1522.81 283.34C1522.81 276.222 1528.43 273.037 1537.14 273.037C1546.13 273.037 1550.72 276.503 1553.81 280.062L1556.05 277.814C1552.21 273.786 1546.6 270.228 1537.23 270.228C1527.49 270.228 1519.53 273.974 1519.53 283.527C1519.53 292.612 1526.65 294.766 1534.98 295.983L1542.47 297.014C1549.78 298.044 1554.56 299.917 1554.56 306.66C1554.56 314.34 1548.19 317.993 1538.73 317.993C1530.39 317.993 1524.4 315.277 1519.53 309.283L1517.19 311.25C1522.34 317.525 1529.36 320.803 1538.73 320.803ZM1632.59 338.41H1635.87V312.28H1636.15C1638.4 316.775 1643.36 320.803 1651.23 320.803C1663.41 320.803 1670.71 312.092 1670.71 295.515C1670.71 278.938 1663.41 270.228 1651.23 270.228C1643.36 270.228 1638.4 274.255 1636.15 278.75H1635.87V271.351H1632.59V338.41ZM1650.48 317.899C1642.8 317.899 1635.87 313.123 1635.87 305.817V285.213C1635.87 277.907 1642.8 273.131 1650.48 273.131C1661.16 273.131 1667.15 280.717 1667.15 292.799V298.231C1667.15 310.313 1661.16 317.899 1650.48 317.899ZM1719.38 319.679H1722.66V271.351H1719.38V305.911C1719.38 313.966 1712.54 317.899 1705.24 317.899C1696.34 317.899 1691.37 313.029 1691.37 302.165V271.351H1688.1V302.727C1688.1 314.434 1694 320.803 1704.49 320.803C1712.91 320.803 1717.32 316.775 1719.1 312.561H1719.38V319.679ZM1744.91 319.679H1748.19V312.28H1748.47C1750.72 316.775 1755.68 320.803 1763.55 320.803C1775.72 320.803 1783.03 312.092 1783.03 295.515C1783.03 278.938 1775.72 270.228 1763.55 270.228C1755.68 270.228 1750.72 274.255 1748.47 278.75H1748.19V250.372H1744.91V319.679ZM1762.8 317.899C1755.12 317.899 1748.19 313.123 1748.19 305.817V285.213C1748.19 277.907 1755.12 273.131 1762.8 273.131C1773.47 273.131 1779.47 280.717 1779.47 292.799V298.231C1779.47 310.313 1773.47 317.899 1762.8 317.899ZM1798.26 319.679H1837.97V316.775H1819.8V250.372H1798.26V253.275H1816.52V316.775H1798.26V319.679ZM1877.27 256.273C1879.8 256.273 1880.73 255.055 1880.73 253.463V252.62C1880.73 251.028 1879.8 249.81 1877.27 249.81C1874.74 249.81 1873.8 251.028 1873.8 252.62V253.463C1873.8 255.055 1874.74 256.273 1877.27 256.273ZM1856.85 319.679H1896.56V316.775H1878.95V271.351H1856.85V274.255H1875.68V316.775H1856.85V319.679ZM1932.4 320.803C1941.29 320.803 1947.19 315.932 1949.72 310.032L1947.19 308.533C1944.57 314.247 1939.7 317.899 1932.4 317.899C1921.63 317.899 1915.63 310.219 1915.63 298.231V292.799C1915.63 280.811 1921.63 273.131 1932.4 273.131C1939.23 273.131 1944.1 276.315 1946.26 282.028L1949.07 280.904C1946.73 274.629 1941.01 270.228 1932.4 270.228C1919.66 270.228 1912.07 279.125 1912.07 295.515C1912.07 311.905 1919.56 320.803 1932.4 320.803Z" fill="#444AE2"/>
<path opacity="0.4" d="M-12.359 206.627V170.756C-12.359 163.544 -8.05079 159.985 -3.08693 159.985C2.06423 159.985 4.68665 163.17 4.68665 170.569V206.627H7.77735V170.756C7.77735 163.544 11.9919 159.985 17.0494 159.985C22.2006 159.985 24.823 163.17 24.823 170.569V206.627H27.9137V170.1C27.9137 161.765 24.823 157.176 17.8924 157.176C12.0856 157.176 8.90124 160.547 7.40272 164.856H7.2154C6.27883 159.985 3.09447 157.176 -2.24402 157.176C-7.67616 157.176 -10.5795 160.079 -12.0781 164.013H-12.359V158.3H-15.4497V206.627H-12.359ZM84.4463 206.627V203.724H76.7664V173.098C76.7664 163.076 70.4913 157.176 60.0954 157.176C51.1979 157.176 45.4848 161.297 42.8624 167.197L45.2975 168.789C47.9199 162.795 53.2583 160.079 60.0017 160.079C68.3372 160.079 73.4884 164.387 73.4884 173.472V180.403H60.2827C45.9531 180.403 41.2702 186.022 41.2702 194.077C41.2702 202.787 47.1706 207.751 57.4729 207.751C66.1831 207.751 70.9596 204.005 73.2074 199.228H73.582V202.693C73.6757 205.222 74.8933 206.627 77.703 206.627H84.4463ZM57.7539 204.941C50.074 204.941 44.8292 201.569 44.8292 195.482V192.672C44.8292 186.865 49.2311 183.025 60.3763 183.025H73.4884V192.766C73.4884 200.633 66.2768 204.941 57.7539 204.941ZM97.8028 206.627H137.795V203.724H117.19V176.469C117.19 166.635 123.746 161.39 131.894 161.39H142.571V158.3H132.737C123.652 158.3 119.625 162.889 117.471 168.321H117.19V158.3H97.8028V161.203H113.912V203.724H97.8028V206.627ZM158.831 206.627H162.109V188.738L172.973 179.279L195.357 206.627H199.385L175.502 177.218L196.856 158.3H192.641L172.88 175.626L162.39 184.898H162.109V137.32H158.831V206.627ZM231.473 207.751C240.838 207.751 247.301 202.881 250.11 195.388L247.488 193.983C244.678 201.195 239.153 204.847 231.473 204.847C220.515 204.847 214.333 197.168 214.333 185.179V182.744H251.047V181.433C251.047 166.822 243.929 157.176 231.004 157.176C218.548 157.176 210.774 166.073 210.774 182.463C210.774 198.853 218.548 207.751 231.473 207.751ZM231.004 159.985C241.494 159.985 247.582 167.572 247.582 179.654V180.122H214.333V179.747C214.333 167.665 220.515 159.985 231.004 159.985ZM307.861 206.627V203.724H283.791V161.203H307.861V158.3H283.791V141.254H280.606V155.209C280.606 157.363 279.67 158.3 277.422 158.3H262.343V161.203H280.513V201.944C280.513 204.941 281.917 206.627 285.102 206.627H307.861ZM346.13 143.221C348.659 143.221 349.595 142.003 349.595 140.411V139.568C349.595 137.976 348.659 136.758 346.13 136.758C343.601 136.758 342.665 137.976 342.665 139.568V140.411C342.665 142.003 343.601 143.221 346.13 143.221ZM325.713 206.627H365.423V203.724H347.816V158.3H325.713V161.203H344.538V203.724H325.713V206.627ZM385.711 206.627V172.067C385.711 164.013 392.548 160.079 399.853 160.079C408.75 160.079 413.714 164.949 413.714 175.814V206.627H416.992V175.252C416.992 163.544 411.092 157.176 400.602 157.176C392.173 157.176 387.771 161.203 385.992 165.418H385.711V158.3H382.433V206.627H385.711ZM478.582 212.434C478.582 205.409 473.899 200.914 462.754 200.914H450.579C444.491 200.914 442.524 198.76 442.524 196.137C442.524 192.578 445.709 190.331 450.672 189.113C452.358 189.488 453.95 189.675 455.73 189.675C465.751 189.675 472.588 183.213 472.588 173.379C472.588 168.602 470.996 164.668 468.186 161.859V156.426H479.425V153.523H469.404C466.969 153.523 465.939 154.741 465.939 156.988V160.079C463.222 158.206 459.851 157.176 455.73 157.176C445.428 157.176 438.965 163.638 438.965 173.379C438.965 180.496 442.243 185.554 447.675 187.989V188.27C443.367 189.488 439.527 192.016 439.527 196.606C439.527 199.696 441.026 201.85 444.397 202.974V203.443C438.684 205.222 435.313 208.687 435.313 214.307C435.313 221.706 441.307 226.482 455.73 226.482C470.434 226.482 478.582 222.08 478.582 212.434ZM475.398 212.621C475.398 220.207 468.561 223.673 458.259 223.673H453.014C444.023 223.673 438.684 219.926 438.684 213.932C438.684 208.594 442.243 205.503 447.582 204.005H462.567C472.12 204.005 475.398 207.283 475.398 212.621ZM455.73 186.959C447.301 186.959 442.524 181.901 442.524 175.064V171.693C442.524 164.949 447.207 159.892 455.73 159.892C464.346 159.892 469.029 164.949 469.029 171.693V175.064C469.029 181.901 464.346 186.959 455.73 186.959ZM1412.1 207.751C1421 207.751 1426.9 202.881 1429.43 196.98L1426.9 195.482C1424.28 201.195 1419.41 204.847 1412.1 204.847C1401.33 204.847 1395.34 197.168 1395.34 185.179V179.747C1395.34 167.759 1401.33 160.079 1412.1 160.079C1418.94 160.079 1423.81 163.263 1425.96 168.977L1428.77 167.853C1426.43 161.578 1420.72 157.176 1412.1 157.176C1399.36 157.176 1391.78 166.073 1391.78 182.463C1391.78 198.853 1399.27 207.751 1412.1 207.751ZM1479.87 206.627H1483.15V158.3H1479.87V192.859C1479.87 200.914 1473.04 204.847 1465.73 204.847C1456.83 204.847 1451.87 199.977 1451.87 189.113V158.3H1448.59V189.675C1448.59 201.382 1454.49 207.751 1464.98 207.751C1473.41 207.751 1477.81 203.724 1479.59 199.509H1479.87V206.627ZM1523.86 207.751C1534.81 207.751 1542.96 203.162 1542.96 193.421C1542.96 184.336 1535.84 182.089 1527.6 180.965L1520.02 179.841C1512.71 178.811 1507.93 176.937 1507.93 170.288C1507.93 163.17 1513.55 159.985 1522.26 159.985C1531.25 159.985 1535.84 163.451 1538.93 167.01L1541.18 164.762C1537.34 160.735 1531.72 157.176 1522.36 157.176C1512.62 157.176 1504.66 160.922 1504.66 170.475C1504.66 179.56 1511.77 181.714 1520.11 182.932L1527.6 183.962C1534.91 184.992 1539.68 186.865 1539.68 193.609C1539.68 201.288 1533.31 204.941 1523.86 204.941C1515.52 204.941 1509.53 202.225 1504.66 196.231L1502.31 198.198C1507.47 204.473 1514.49 207.751 1523.86 207.751ZM1599.49 206.627V203.724H1575.42V161.203H1599.49V158.3H1575.42V141.254H1572.24V155.209C1572.24 157.363 1571.3 158.3 1569.06 158.3H1553.98V161.203H1572.15V201.944C1572.15 204.941 1573.55 206.627 1576.74 206.627H1599.49ZM1634.77 207.751C1647.41 207.751 1655 198.853 1655 182.463C1655 166.073 1647.41 157.176 1634.77 157.176C1622.12 157.176 1614.54 166.073 1614.54 182.463C1614.54 198.853 1622.12 207.751 1634.77 207.751ZM1634.77 204.847C1624.18 204.847 1618.1 197.449 1618.1 184.992V179.935C1618.1 167.478 1624.18 160.079 1634.77 160.079C1645.35 160.079 1651.44 167.478 1651.44 179.935V184.992C1651.44 197.449 1645.35 204.847 1634.77 204.847ZM1672.38 206.627V170.756C1672.38 163.544 1676.69 159.985 1681.65 159.985C1686.8 159.985 1689.43 163.17 1689.43 170.569V206.627H1692.52V170.756C1692.52 163.544 1696.73 159.985 1701.79 159.985C1706.94 159.985 1709.56 163.17 1709.56 170.569V206.627H1712.65V170.1C1712.65 161.765 1709.56 157.176 1702.63 157.176C1696.82 157.176 1693.64 160.547 1692.14 164.856H1691.95C1691.02 159.985 1687.83 157.176 1682.49 157.176C1677.06 157.176 1674.16 160.079 1672.66 164.013H1672.38V158.3H1669.29V206.627H1672.38ZM1747.74 207.751C1757.1 207.751 1763.57 202.881 1766.38 195.388L1763.75 193.983C1760.94 201.195 1755.42 204.847 1747.74 204.847C1736.78 204.847 1730.6 197.168 1730.6 185.179V182.744H1767.31V181.433C1767.31 166.822 1760.19 157.176 1747.27 157.176C1734.81 157.176 1727.04 166.073 1727.04 182.463C1727.04 198.853 1734.81 207.751 1747.74 207.751ZM1747.27 159.985C1757.76 159.985 1763.85 167.572 1763.85 179.654V180.122H1730.6V179.747C1730.6 167.665 1736.78 159.985 1747.27 159.985ZM1782.54 206.627H1822.53V203.724H1801.93V176.469C1801.93 166.635 1808.48 161.39 1816.63 161.39H1827.31V158.3H1817.48C1808.39 158.3 1804.36 162.889 1802.21 168.321H1801.93V158.3H1782.54V161.203H1798.65V203.724H1782.54V206.627Z" fill="#444AE2"/>
<path opacity="0.4" d="M579.223 202C576.163 202 574.634 200.439 574.634 197.317V156.579H556.465V153.675H571.543C573.666 153.675 574.727 152.645 574.727 150.585V136.631H577.912V153.675H601.98V156.579H577.912V199.097H601.98V202H579.223ZM652.61 202C651.174 202 650.143 201.657 649.519 200.97C648.895 200.283 648.551 199.315 648.489 198.067V194.601H648.114C646.99 196.974 645.18 199.003 642.682 200.689C640.185 202.312 636.751 203.124 632.381 203.124C627.199 203.124 623.203 201.938 620.393 199.565C617.584 197.193 616.179 193.821 616.179 189.451C616.179 187.453 616.491 185.611 617.115 183.925C617.74 182.239 618.801 180.803 620.299 179.617C621.798 178.368 623.765 177.432 626.2 176.808C628.635 176.121 631.631 175.777 635.19 175.777H648.395V168.847C648.395 164.289 647.178 160.918 644.743 158.733C642.37 156.547 639.092 155.455 634.909 155.455C631.538 155.455 628.572 156.173 626.012 157.609C623.452 158.982 621.517 161.168 620.206 164.164L617.771 162.572C619.082 159.575 621.142 157.172 623.952 155.361C626.824 153.488 630.508 152.552 635.003 152.552C640.247 152.552 644.337 153.956 647.271 156.766C650.206 159.513 651.673 163.415 651.673 168.472V199.097H659.352V202H652.61ZM632.662 200.314C634.784 200.314 636.782 200.065 638.655 199.565C640.591 199.003 642.277 198.223 643.713 197.224C645.149 196.162 646.272 194.882 647.084 193.384C647.958 191.886 648.395 190.137 648.395 188.139V178.4H635.284C629.727 178.4 625.731 179.305 623.296 181.116C620.924 182.864 619.738 185.174 619.738 188.046V190.855C619.738 193.915 620.924 196.256 623.296 197.879C625.669 199.503 628.791 200.314 632.662 200.314ZM672.989 202L691.439 177.65L673.364 153.675H677.297L693.405 175.122H693.593L709.701 153.675H713.447L695.372 177.557L713.822 202H709.795L693.405 180.085H693.218L676.829 202H672.989ZM821.074 202C819.638 202 818.608 201.657 817.983 200.97C817.359 200.283 817.016 199.315 816.953 198.067V194.601H816.579C815.455 196.974 813.644 199.003 811.147 200.689C808.649 202.312 805.216 203.124 800.845 203.124C795.663 203.124 791.667 201.938 788.858 199.565C786.048 197.193 784.643 193.821 784.643 189.451C784.643 187.453 784.955 185.611 785.58 183.925C786.204 182.239 787.265 180.803 788.764 179.617C790.262 178.368 792.229 177.432 794.664 176.808C797.099 176.121 800.096 175.777 803.655 175.777H816.86V168.847C816.86 164.289 815.642 160.918 813.207 158.733C810.835 156.547 807.557 155.455 803.374 155.455C800.002 155.455 797.037 156.173 794.477 157.609C791.917 158.982 789.981 161.168 788.67 164.164L786.235 162.572C787.546 159.575 789.607 157.172 792.416 155.361C795.288 153.488 798.972 152.552 803.467 152.552C808.712 152.552 812.801 153.956 815.736 156.766C818.67 159.513 820.137 163.415 820.137 168.472V199.097H827.817V202H821.074ZM801.126 200.314C803.249 200.314 805.247 200.065 807.12 199.565C809.055 199.003 810.741 198.223 812.177 197.224C813.613 196.162 814.737 194.882 815.548 193.384C816.423 191.886 816.86 190.137 816.86 188.139V178.4H803.748C798.192 178.4 794.196 179.305 791.761 181.116C789.388 182.864 788.202 185.174 788.202 188.046V190.855C788.202 193.915 789.388 196.256 791.761 197.879C794.133 199.503 797.255 200.314 801.126 200.314ZM875.449 194.882H875.168C874.294 197.005 872.671 198.909 870.299 200.595C867.988 202.281 864.742 203.124 860.559 203.124C855.252 203.124 851.193 201.594 848.384 198.535C845.574 195.413 844.17 190.918 844.17 185.049V153.675H847.447V184.487C847.447 189.981 848.634 193.977 851.006 196.475C853.379 198.972 856.813 200.221 861.308 200.221C863.119 200.221 864.867 199.971 866.552 199.471C868.301 198.972 869.83 198.223 871.141 197.224C872.453 196.225 873.483 194.976 874.232 193.478C875.044 191.979 875.449 190.231 875.449 188.233V153.675H878.727V202H875.449V194.882ZM916.152 202C913.092 202 911.563 200.439 911.563 197.317V156.579H893.394V153.675H908.472C910.595 153.675 911.656 152.645 911.656 150.585V136.631H914.84V153.675H938.909V156.579H914.84V199.097H938.909V202H916.152ZM974.179 203.124C967.811 203.124 962.848 200.97 959.289 196.662C955.73 192.354 953.951 186.079 953.951 177.838C953.951 169.596 955.73 163.322 959.289 159.014C962.848 154.706 967.811 152.552 974.179 152.552C980.548 152.552 985.511 154.706 989.07 159.014C992.629 163.322 994.408 169.596 994.408 177.838C994.408 186.079 992.629 192.354 989.07 196.662C985.511 200.97 980.548 203.124 974.179 203.124ZM974.179 200.221C979.486 200.221 983.576 198.472 986.448 194.976C989.382 191.48 990.85 186.61 990.85 180.366V175.309C990.85 169.066 989.382 164.196 986.448 160.699C983.576 157.203 979.486 155.455 974.179 155.455C968.873 155.455 964.752 157.203 961.817 160.699C958.945 164.196 957.509 169.066 957.509 175.309V180.366C957.509 186.61 958.945 191.48 961.817 194.976C964.752 198.472 968.873 200.221 974.179 200.221ZM1008.7 202V153.675H1011.79V159.388H1012.07C1012.82 157.39 1013.95 155.767 1015.44 154.518C1017 153.207 1019.16 152.552 1021.91 152.552C1024.59 152.552 1026.71 153.238 1028.27 154.612C1029.83 155.923 1030.86 157.796 1031.36 160.231H1031.55C1032.3 158.046 1033.49 156.235 1035.11 154.799C1036.8 153.301 1039.11 152.552 1042.04 152.552C1045.54 152.552 1048.07 153.675 1049.63 155.923C1051.25 158.108 1052.06 161.292 1052.06 165.476V202H1048.97V165.944C1048.97 162.198 1048.32 159.513 1047 157.89C1045.76 156.204 1043.82 155.361 1041.2 155.361C1038.64 155.361 1036.45 156.266 1034.64 158.077C1032.83 159.825 1031.93 162.51 1031.93 166.131V202H1028.84V165.944C1028.84 162.198 1028.18 159.513 1026.87 157.89C1025.62 156.204 1023.68 155.361 1021.06 155.361C1018.57 155.361 1016.38 156.266 1014.51 158.077C1012.7 159.825 1011.79 162.51 1011.79 166.131V202H1008.7ZM1101.85 202C1100.41 202 1099.38 201.657 1098.76 200.97C1098.13 200.283 1097.79 199.315 1097.73 198.067V194.601H1097.35C1096.23 196.974 1094.42 199.003 1091.92 200.689C1089.42 202.312 1085.99 203.124 1081.62 203.124C1076.44 203.124 1072.44 201.938 1069.63 199.565C1066.82 197.193 1065.42 193.821 1065.42 189.451C1065.42 187.453 1065.73 185.611 1066.35 183.925C1066.98 182.239 1068.04 180.803 1069.54 179.617C1071.04 178.368 1073 177.432 1075.44 176.808C1077.87 176.121 1080.87 175.777 1084.43 175.777H1097.63V168.847C1097.63 164.289 1096.42 160.918 1093.98 158.733C1091.61 156.547 1088.33 155.455 1084.15 155.455C1080.78 155.455 1077.81 156.173 1075.25 157.609C1072.69 158.982 1070.76 161.168 1069.44 164.164L1067.01 162.572C1068.32 159.575 1070.38 157.172 1073.19 155.361C1076.06 153.488 1079.75 152.552 1084.24 152.552C1089.49 152.552 1093.58 153.956 1096.51 156.766C1099.44 159.513 1100.91 163.415 1100.91 168.472V199.097H1108.59V202H1101.85ZM1081.9 200.314C1084.02 200.314 1086.02 200.065 1087.89 199.565C1089.83 199.003 1091.52 198.223 1092.95 197.224C1094.39 196.162 1095.51 194.882 1096.32 193.384C1097.2 191.886 1097.63 190.137 1097.63 188.139V178.4H1084.52C1078.97 178.4 1074.97 179.305 1072.53 181.116C1070.16 182.864 1068.98 185.174 1068.98 188.046V190.855C1068.98 193.915 1070.16 196.256 1072.53 197.879C1074.91 199.503 1078.03 200.314 1081.9 200.314ZM1140.77 202C1137.71 202 1136.18 200.439 1136.18 197.317V156.579H1118.01V153.675H1133.09C1135.21 153.675 1136.28 152.645 1136.28 150.585V136.631H1139.46V153.675H1163.53V156.579H1139.46V199.097H1163.53V202H1140.77ZM1201.8 138.597C1200.55 138.597 1199.64 138.348 1199.08 137.848C1198.58 137.286 1198.33 136.599 1198.33 135.788V134.945C1198.33 134.133 1198.58 133.478 1199.08 132.978C1199.64 132.416 1200.55 132.135 1201.8 132.135C1203.04 132.135 1203.92 132.416 1204.42 132.978C1204.98 133.478 1205.26 134.133 1205.26 134.945V135.788C1205.26 136.599 1204.98 137.286 1204.42 137.848C1203.92 138.348 1203.04 138.597 1201.8 138.597ZM1181.38 199.097H1200.2V156.579H1181.38V153.675H1203.48V199.097H1221.09V202H1181.38V199.097ZM1254.95 203.124C1248.59 203.124 1243.62 200.97 1240.06 196.662C1236.5 192.354 1234.72 186.079 1234.72 177.838C1234.72 169.596 1236.5 163.322 1240.06 159.014C1243.62 154.706 1248.59 152.552 1254.95 152.552C1261.32 152.552 1266.29 154.706 1269.84 159.014C1273.4 163.322 1275.18 169.596 1275.18 177.838C1275.18 186.079 1273.4 192.354 1269.84 196.662C1266.29 200.97 1261.32 203.124 1254.95 203.124ZM1254.95 200.221C1260.26 200.221 1264.35 198.472 1267.22 194.976C1270.16 191.48 1271.62 186.61 1271.62 180.366V175.309C1271.62 169.066 1270.16 164.196 1267.22 160.699C1264.35 157.203 1260.26 155.455 1254.95 155.455C1249.65 155.455 1245.53 157.203 1242.59 160.699C1239.72 164.196 1238.28 169.066 1238.28 175.309V180.366C1238.28 186.61 1239.72 191.48 1242.59 194.976C1245.53 198.472 1249.65 200.221 1254.95 200.221ZM1294.25 202V153.675H1297.53V160.793H1297.81C1298.25 159.732 1298.84 158.701 1299.59 157.702C1300.4 156.703 1301.4 155.829 1302.59 155.08C1303.77 154.331 1305.18 153.738 1306.8 153.301C1308.42 152.801 1310.3 152.552 1312.42 152.552C1317.73 152.552 1321.78 154.112 1324.59 157.234C1327.4 160.293 1328.81 164.758 1328.81 170.626V202H1325.53V171.188C1325.53 165.694 1324.34 161.698 1321.97 159.201C1319.6 156.703 1316.17 155.455 1311.67 155.455C1309.86 155.455 1308.08 155.705 1306.33 156.204C1304.65 156.703 1303.15 157.453 1301.84 158.452C1300.53 159.451 1299.46 160.699 1298.65 162.198C1297.9 163.696 1297.53 165.444 1297.53 167.442V202H1294.25Z" fill="#444AE2"/>
</svg>
