<svg width="40" height="40" viewBox="0 0 40 40" fill="none" xmlns="http://www.w3.org/2000/svg">
<path d="M12.5792 36.252C27.6736 36.252 35.9296 23.7465 35.9296 12.9016C35.9296 12.5465 35.9296 12.1929 35.9056 11.8409C37.5117 10.6791 38.8982 9.2407 40 7.59289C38.5023 8.25656 36.9133 8.69172 35.2864 8.88406C36.9992 7.85875 38.282 6.24484 38.8944 4.34484C37.2835 5.3007 35.5209 5.97445 33.6832 6.33687C32.1315 4.6868 29.9643 3.75 27.6994 3.75C23.193 3.75 19.4849 7.45812 19.4849 11.9644C19.4849 12.5895 19.5563 13.2127 19.6976 13.8216C13.1024 13.4911 6.94914 10.3716 2.78398 5.24727C0.618047 8.97586 1.73875 13.8079 5.32477 16.2024C4.01891 16.1637 2.74109 15.8114 1.6 15.1752V15.2792C1.60109 19.1709 4.3693 22.5535 8.18398 23.3241C6.97586 23.6535 5.70797 23.7016 4.47844 23.4648C5.55086 26.7996 8.64336 29.0983 12.1456 29.1641C9.24016 31.4474 5.64898 32.6877 1.95359 32.6841C1.30063 32.6828 0.648281 32.6433 0 32.5656C3.75266 34.9738 8.12031 36.2516 12.5792 36.2456" fill="#F7F7F7"/>
</svg>
