<svg width="146" height="50" viewBox="0 0 146 50" fill="none" xmlns="http://www.w3.org/2000/svg">
<path d="M0.842285 0H49.9673V49.2446H0.842285V0ZM44.8583 44.1232V5.12144H5.95129V44.1232H44.8583ZM10.3725 12.7051V27.577C10.3725 34.3728 14.106 38.4108 20.394 38.4108C26.8785 38.4108 30.612 34.3728 30.612 27.577V12.7051H25.503V27.577C25.503 31.4181 23.8328 33.5848 20.4923 33.5848C16.9553 33.5848 15.3833 31.3196 15.3833 27.577V12.7051H10.3725ZM37.1948 15.7583C38.9633 15.7583 40.3388 14.4779 40.3388 12.7051C40.3388 10.8338 39.0616 9.55346 37.1948 9.55346C35.4263 9.55346 34.0508 10.8338 34.0508 12.7051C34.0508 14.4779 35.4263 15.7583 37.1948 15.7583ZM34.6403 18.122V38.1154H39.7493V18.122H34.6403ZM65.0978 29.9407C70.5998 29.9407 74.2351 26.6906 74.2351 21.2737C74.2351 16.0538 70.6981 12.7051 65.0978 12.7051H55.4693V38.2138H60.5783V30.0392H65.0978V29.9407ZM64.5083 25.9027H60.4801V16.8417H64.5083C67.4558 16.8417 69.0278 18.516 69.0278 21.2737C69.0278 24.2284 67.4558 25.9027 64.5083 25.9027ZM75.9053 28.1679C75.9053 34.1758 79.7371 38.4108 85.1408 38.4108C88.3831 38.4108 90.4463 37.2289 91.6253 35.3577V38.2138H96.7343V18.122H91.6253V21.2737C90.3481 19.2054 88.2848 17.925 85.1408 17.925C79.6388 17.925 75.9053 22.2586 75.9053 28.1679ZM91.6253 28.1679C91.6253 31.6151 89.4638 33.8803 86.3198 33.8803C82.8811 33.8803 81.1126 31.4181 81.1126 28.1679C81.1126 24.6223 83.0776 22.3571 86.3198 22.3571C89.5621 22.3571 91.6253 24.7208 91.6253 28.1679ZM109.507 33.7818C107.542 33.7818 107.051 32.8954 107.051 31.1226V22.4556H111.472V18.122H107.051V12.6066H101.942V18.122H99.5836V22.4556H101.942V31.1226C101.942 35.8501 104.005 38.1154 108.917 38.1154H111.57V33.7818H109.507ZM119.43 20.9782V11.5232H114.321V38.2138H119.43V27.577C119.43 24.1299 121.199 22.0616 124.244 22.0616C127.192 22.0616 128.764 24.0314 128.764 27.0846V38.1154H133.873V26.5921C133.873 21.3722 130.139 17.925 125.423 17.925C122.476 17.925 120.609 19.0084 119.43 20.9782ZM133.48 11.4248V12.2127H135.15V17.3341H136.133V12.2127H137.705V11.4248H133.48ZM144.091 11.4248L142.028 16.1522L140.063 11.4248H138.884V17.3341H139.768V12.8036L141.733 17.3341H142.421L144.287 12.8036V17.3341H145.172V11.4248H144.091Z" fill="white"/>
</svg>
